STARTFONT 2.1
FONT -Adobe-Utopia-Regular-R-Normal--25-180-100-100-P-135-ISO10646-1
SIZE 18 100 100
FONTBOUNDINGBOX 33 39 -4 -10
COMMENT $Xorg: $
COMMENT ISO10646-1 extension by Markus Kuhn <mkuhn@acm.org>, 2001-03-20
STARTPROPERTIES 28
FOUNDRY "Adobe"
FAMILY_NAME "Utopia"
WEIGHT_NAME "Regular"
SLANT "R"
SETWIDTH_NAME "Normal"
ADD_STYLE_NAME ""
PIXEL_SIZE 25
POINT_SIZE 180
RESOLUTION_X 100
RESOLUTION_Y 100
SPACING "P"
AVERAGE_WIDTH 135
CHARSET_REGISTRY "ISO10646"
CHARSET_ENCODING "1"
CAP_HEIGHT 17
X_HEIGHT 12
RELATIVE_SETWIDTH 50
RELATIVE_WEIGHT 50
WEIGHT 136
FACE_NAME "Utopia Regular"
COPYRIGHT "Copyright (c) 1989, 1991 Adobe Systems Incorporated.  All Rights Reserved."
NOTICE "Utopia is a registered trademark of Adobe Systems Incorporated."
DESTINATION 0
FONT_ASCENT 23
FONT_DESCENT 6
DEFAULT_CHAR 0
_ADOBE_PSFONT "Utopia-Regular"
_DEC_DEVICE_FONTNAMES "PS=Utopia-Regular"
ENDPROPERTIES
CHARS 756
STARTCHAR char0
ENCODING 0
SWIDTH 798 0
DWIDTH 20 0
BBX 17 17 1 0
BITMAP
AAAA80
000000
800080
000000
800080
000000
800080
000000
800080
000000
800080
000000
800080
000000
800080
000000
AAAA80
ENDCHAR
STARTCHAR space
ENCODING 32
SWIDTH 225 0
DWIDTH 6 0
BBX 0 0 0 0
BITMAP
ENDCHAR
STARTCHAR exclam
ENCODING 33
SWIDTH 242 0
DWIDTH 6 0
BBX 3 18 2 0
BITMAP
E0
E0
E0
E0
E0
40
40
40
40
40
40
40
00
00
00
E0
E0
E0
ENDCHAR
STARTCHAR quotedbl
ENCODING 34
SWIDTH 458 0
DWIDTH 11 0
BBX 6 7 3 12
BITMAP
CC
CC
CC
CC
48
48
48
ENDCHAR
STARTCHAR numbersign
ENCODING 35
SWIDTH 530 0
DWIDTH 13 0
BBX 13 17 0 0
BITMAP
0010
0620
0420
0420
0460
0C40
7FF8
0840
08C0
1880
FFF0
1180
3100
3100
2100
2300
6300
ENDCHAR
STARTCHAR dollar
ENCODING 36
SWIDTH 530 0
DWIDTH 13 0
BBX 11 21 1 -2
BITMAP
0400
0400
1F00
65C0
C4C0
C440
C400
E400
7C00
3E00
1F80
07C0
04E0
0460
0460
C460
C440
64C0
3F00
0400
0400
ENDCHAR
STARTCHAR percent
ENCODING 37
SWIDTH 838 0
DWIDTH 21 0
BBX 19 19 1 -1
BITMAP
000200
3C0200
67FC00
C30C00
C30800
C31000
C33000
C32000
666000
3C4780
008CC0
019860
011860
021860
021860
041860
0C0CC0
180780
080000
ENDCHAR
STARTCHAR ampersand
ENCODING 38
SWIDTH 706 0
DWIDTH 18 0
BBX 16 17 1 0
BITMAP
0F00
1980
30C0
30C0
30C0
3980
1B06
0C06
1E06
6704
438C
C1C8
C0E8
C0F0
E07C
70CE
1F03
ENDCHAR
STARTCHAR quotesingle
ENCODING 39
SWIDTH 278 0
DWIDTH 7 0
BBX 2 7 2 12
BITMAP
C0
C0
C0
C0
C0
80
80
ENDCHAR
STARTCHAR parenleft
ENCODING 40
SWIDTH 350 0
DWIDTH 9 0
BBX 6 21 2 -3
BITMAP
0C
10
30
60
60
40
C0
C0
C0
C0
C0
C0
C0
C0
C0
40
60
60
30
18
0C
ENDCHAR
STARTCHAR parenright
ENCODING 41
SWIDTH 350 0
DWIDTH 9 0
BBX 6 21 0 -3
BITMAP
C0
60
30
18
18
08
0C
0C
0C
0C
0C
0C
0C
0C
0C
08
18
18
30
60
C0
ENDCHAR
STARTCHAR asterisk
ENCODING 42
SWIDTH 412 0
DWIDTH 10 0
BBX 8 9 1 9
BITMAP
18
18
CB
76
18
76
CB
18
18
ENDCHAR
STARTCHAR plus
ENCODING 43
SWIDTH 570 0
DWIDTH 14 0
BBX 12 13 1 0
BITMAP
0600
0600
0600
0600
0600
0600
FFF0
0600
0600
0600
0600
0600
0600
ENDCHAR
STARTCHAR comma
ENCODING 44
SWIDTH 265 0
DWIDTH 7 0
BBX 3 7 2 -4
BITMAP
40
E0
60
40
40
80
80
ENDCHAR
STARTCHAR hyphen
ENCODING 45
SWIDTH 392 0
DWIDTH 10 0
BBX 6 2 2 5
BITMAP
FC
FC
ENDCHAR
STARTCHAR period
ENCODING 46
SWIDTH 265 0
DWIDTH 7 0
BBX 3 3 2 0
BITMAP
E0
E0
E0
ENDCHAR
STARTCHAR slash
ENCODING 47
SWIDTH 460 0
DWIDTH 11 0
BBX 7 18 2 0
BITMAP
06
06
04
0C
0C
08
18
18
10
10
30
30
20
60
60
40
C0
C0
ENDCHAR
STARTCHAR zero
ENCODING 48
SWIDTH 530 0
DWIDTH 13 0
BBX 11 17 1 0
BITMAP
0E00
3180
60C0
60C0
C0C0
C060
C060
C060
C060
C060
C060
C060
C0C0
60C0
60C0
3180
0E00
ENDCHAR
STARTCHAR one
ENCODING 49
SWIDTH 530 0
DWIDTH 13 0
BBX 8 17 3 0
BITMAP
18
F8
18
18
18
18
18
18
18
18
18
18
18
18
18
18
FF
ENDCHAR
STARTCHAR two
ENCODING 50
SWIDTH 530 0
DWIDTH 13 0
BBX 12 17 0 0
BITMAP
0F80
38C0
7060
6060
2060
0060
0060
00C0
0180
0300
0600
0C00
1000
3010
6020
7FE0
FFE0
ENDCHAR
STARTCHAR three
ENCODING 51
SWIDTH 530 0
DWIDTH 13 0
BBX 11 17 1 0
BITMAP
1F00
7180
E0C0
C0C0
00C0
00C0
0180
1F00
01C0
00C0
0060
0060
0060
6060
60C0
70C0
1F00
ENDCHAR
STARTCHAR four
ENCODING 52
SWIDTH 530 0
DWIDTH 13 0
BBX 12 17 1 0
BITMAP
0180
0380
0380
0780
0580
0980
1980
1180
2180
6180
4180
FFF0
0180
0180
0180
0180
07E0
ENDCHAR
STARTCHAR five
ENCODING 53
SWIDTH 530 0
DWIDTH 13 0
BBX 11 17 1 0
BITMAP
7FC0
7FC0
4000
4000
4000
4000
5F00
61C0
40C0
0060
0060
0060
0060
C060
C0C0
6180
3F00
ENDCHAR
STARTCHAR six
ENCODING 54
SWIDTH 530 0
DWIDTH 13 0
BBX 11 17 1 0
BITMAP
0F80
30C0
6060
6060
6000
C000
C000
CF80
F1C0
E0E0
C060
C060
C060
6060
60C0
31C0
1F00
ENDCHAR
STARTCHAR seven
ENCODING 55
SWIDTH 530 0
DWIDTH 13 0
BBX 11 17 1 0
BITMAP
7FE0
FFC0
80C0
00C0
0180
0100
0300
0200
0400
0400
0C00
0800
0800
1800
1800
1800
1800
ENDCHAR
STARTCHAR eight
ENCODING 56
SWIDTH 530 0
DWIDTH 13 0
BBX 11 17 1 0
BITMAP
1F00
3180
60C0
60C0
60C0
60C0
2080
3180
1F00
71C0
60C0
C060
C060
C060
E0C0
60C0
1F00
ENDCHAR
STARTCHAR nine
ENCODING 57
SWIDTH 530 0
DWIDTH 13 0
BBX 11 17 1 0
BITMAP
1F00
7180
60C0
C0C0
C060
C060
C060
E0E0
71E0
3E60
0060
0060
00C0
C0C0
C0C0
6380
3E00
ENDCHAR
STARTCHAR colon
ENCODING 58
SWIDTH 265 0
DWIDTH 7 0
BBX 3 13 2 0
BITMAP
40
E0
E0
00
00
00
00
00
00
00
E0
E0
40
ENDCHAR
STARTCHAR semicolon
ENCODING 59
SWIDTH 265 0
DWIDTH 7 0
BBX 3 16 2 -3
BITMAP
C0
E0
E0
00
00
00
00
00
40
E0
60
60
40
40
80
80
ENDCHAR
STARTCHAR less
ENCODING 60
SWIDTH 570 0
DWIDTH 14 0
BBX 11 13 1 0
BITMAP
0020
00E0
03E0
0F00
3C00
F000
8000
E000
3800
0F00
03C0
00E0
0020
ENDCHAR
STARTCHAR equal
ENCODING 61
SWIDTH 570 0
DWIDTH 14 0
BBX 12 6 1 3
BITMAP
FFF0
0000
0000
0000
0000
FFF0
ENDCHAR
STARTCHAR greater
ENCODING 62
SWIDTH 570 0
DWIDTH 14 0
BBX 11 13 2 0
BITMAP
8000
E000
F800
1E00
0780
01E0
0020
00E0
0380
1E00
7800
E000
8000
ENDCHAR
STARTCHAR question
ENCODING 63
SWIDTH 389 0
DWIDTH 10 0
BBX 8 18 1 0
BITMAP
3C
66
C3
C3
03
06
0E
1C
30
60
60
70
3E
00
00
18
38
18
ENDCHAR
STARTCHAR at
ENCODING 64
SWIDTH 793 0
DWIDTH 20 0
BBX 18 18 1 0
BITMAP
01F800
070600
1C0100
380080
300C80
607C40
60C840
418840
C31840
C31840
C61080
C67080
C6B300
631C00
600000
300000
1C0C00
07F000
ENDCHAR
STARTCHAR A
ENCODING 65
SWIDTH 635 0
DWIDTH 16 0
BBX 17 18 -1 0
BITMAP
00C000
01C000
01C000
02E000
026000
026000
067000
043000
043000
0C3800
0FF800
081800
181C00
100C00
100C00
300E00
300E00
FC1F80
ENDCHAR
STARTCHAR B
ENCODING 66
SWIDTH 646 0
DWIDTH 16 0
BBX 14 18 1 0
BITMAP
FFE0
3070
3038
3018
3018
3018
3030
3060
3FC0
3078
3018
300C
300C
300C
300C
3018
3038
FFE0
ENDCHAR
STARTCHAR C
ENCODING 67
SWIDTH 684 0
DWIDTH 17 0
BBX 15 18 1 0
BITMAP
01F8
0E0E
1806
3002
7002
6000
6000
E000
E000
E000
E000
E000
6000
7002
3002
3806
0E0E
03F8
ENDCHAR
STARTCHAR D
ENCODING 68
SWIDTH 779 0
DWIDTH 19 0
BBX 17 18 1 0
BITMAP
FFE000
303800
300E00
300600
300700
300300
300380
300380
300380
300380
300380
300380
300300
300700
300600
300E00
303800
FFE000
ENDCHAR
STARTCHAR E
ENCODING 69
SWIDTH 606 0
DWIDTH 15 0
BBX 13 18 1 0
BITMAP
FFF8
3018
3008
3008
3000
3000
3000
3020
3060
3FE0
3020
3020
3000
3000
3008
3008
3018
FFF8
ENDCHAR
STARTCHAR F
ENCODING 70
SWIDTH 580 0
DWIDTH 14 0
BBX 13 18 1 0
BITMAP
FFF8
3018
3008
3008
3000
3000
3000
3020
3020
3FE0
3020
3020
3000
3000
3000
3000
3000
FE00
ENDCHAR
STARTCHAR G
ENCODING 71
SWIDTH 734 0
DWIDTH 18 0
BBX 17 18 1 0
BITMAP
01F000
0E0E00
180600
300200
700200
700000
E00000
E00000
E00000
E00000
E03F80
600600
600600
700600
300600
380600
0E0600
03F800
ENDCHAR
STARTCHAR H
ENCODING 72
SWIDTH 798 0
DWIDTH 20 0
BBX 18 18 1 0
BITMAP
FE1FC0
300300
300300
300300
300300
300300
300300
300300
300300
3FFF00
300300
300300
300300
300300
300300
300300
300300
FE1FC0
ENDCHAR
STARTCHAR I
ENCODING 73
SWIDTH 349 0
DWIDTH 9 0
BBX 6 18 1 0
BITMAP
FC
30
30
30
30
30
30
30
30
30
30
30
30
30
30
30
30
FC
ENDCHAR
STARTCHAR J
ENCODING 74
SWIDTH 350 0
DWIDTH 9 0
BBX 7 20 1 -2
BITMAP
7E
18
18
18
18
18
18
18
18
18
18
18
18
18
18
18
18
38
30
E0
ENDCHAR
STARTCHAR K
ENCODING 75
SWIDTH 658 0
DWIDTH 16 0
BBX 16 18 1 0
BITMAP
FC3F
3018
3030
3060
30C0
3180
3200
3400
3E00
3700
3780
33C0
31E0
30F0
3070
3038
301E
FC07
ENDCHAR
STARTCHAR L
ENCODING 76
SWIDTH 568 0
DWIDTH 14 0
BBX 13 18 1 0
BITMAP
FC00
3000
3000
3000
3000
3000
3000
3000
3000
3000
3000
3000
3000
3008
3010
3010
3030
FFF0
ENDCHAR
STARTCHAR M
ENCODING 77
SWIDTH 944 0
DWIDTH 24 0
BBX 21 18 1 0
BITMAP
F80078
3800E0
3C00E0
3C01E0
2E0160
2E0360
260260
270260
230460
238460
238860
21C860
21D860
20F060
20F060
206060
706060
FC41F8
ENDCHAR
STARTCHAR N
ENCODING 78
SWIDTH 780 0
DWIDTH 19 0
BBX 18 18 1 0
BITMAP
F80FC0
3C0380
3C0100
2E0100
2F0100
278100
238100
21C100
21E100
20E100
207100
203900
203D00
201D00
200F00
200700
700700
FC0300
ENDCHAR
STARTCHAR O
ENCODING 79
SWIDTH 762 0
DWIDTH 19 0
BBX 17 18 1 0
BITMAP
03E000
0C1800
380E00
300600
700700
600300
E00380
E00380
E00380
E00380
E00380
E00380
600300
700700
300600
380E00
0C1800
03E000
ENDCHAR
STARTCHAR P
ENCODING 80
SWIDTH 600 0
DWIDTH 15 0
BBX 13 18 1 0
BITMAP
FFC0
3070
3030
3018
3018
3018
3018
3018
3030
3060
3FC0
3000
3000
3000
3000
3000
3000
FE00
ENDCHAR
STARTCHAR Q
ENCODING 81
SWIDTH 762 0
DWIDTH 19 0
BBX 17 23 1 -5
BITMAP
03E000
0C1800
380E00
300600
700700
600300
E00380
E00380
E00380
E00380
E00380
E00380
600300
700700
300600
380E00
0C1C00
03F000
00E000
00F000
007800
003C00
000F00
ENDCHAR
STARTCHAR R
ENCODING 82
SWIDTH 644 0
DWIDTH 16 0
BBX 15 18 1 0
BITMAP
FFC0
3070
3030
3018
3018
3018
3010
3030
3060
3F80
3060
3030
3030
3030
3038
3018
3018
FC0E
ENDCHAR
STARTCHAR S
ENCODING 83
SWIDTH 541 0
DWIDTH 14 0
BBX 11 18 1 0
BITMAP
0F80
30E0
2060
6020
6020
7000
7800
3E00
1F80
07C0
01C0
00E0
8060
8060
4060
4040
71C0
1F00
ENDCHAR
STARTCHAR T
ENCODING 84
SWIDTH 621 0
DWIDTH 16 0
BBX 14 18 0 0
BITMAP
FFFC
C30C
C30C
8304
0300
0300
0300
0300
0300
0300
0300
0300
0300
0300
0300
0300
0300
1FE0
ENDCHAR
STARTCHAR U
ENCODING 85
SWIDTH 791 0
DWIDTH 20 0
BBX 18 18 1 0
BITMAP
FE1FC0
300300
300300
300300
300300
300300
300300
300300
300300
300300
300300
300300
300300
300300
180600
180600
0E1C00
03F000
ENDCHAR
STARTCHAR V
ENCODING 86
SWIDTH 634 0
DWIDTH 16 0
BBX 17 18 0 0
BITMAP
FC0F80
380600
380600
180400
180400
1C0C00
0C0800
0C0800
0E1000
061000
061000
072000
032000
03A000
03C000
01C000
01C000
018000
ENDCHAR
STARTCHAR W
ENCODING 87
SWIDTH 940 0
DWIDTH 23 0
BBX 25 18 0 0
BITMAP
FC001F80
70180600
301C0600
301C0400
381C0400
182E0C00
18260800
18260800
1C470800
0C431800
0C431000
0E439000
0E819000
0681A000
0681E000
0701E000
0700E000
0300C000
ENDCHAR
STARTCHAR X
ENCODING 88
SWIDTH 624 0
DWIDTH 16 0
BBX 16 18 0 0
BITMAP
FE3F
380C
1810
1C10
0E20
0640
0740
0380
0180
01C0
03C0
06E0
0460
0C70
1838
3818
301C
FC7F
ENDCHAR
STARTCHAR Y
ENCODING 89
SWIDTH 588 0
DWIDTH 15 0
BBX 16 18 0 0
BITMAP
FE3F
380C
1808
1C18
0C10
0E30
0620
0760
0340
0340
0180
0180
0180
0180
0180
0180
0180
0FF0
ENDCHAR
STARTCHAR Z
ENCODING 90
SWIDTH 610 0
DWIDTH 15 0
BBX 14 18 1 0
BITMAP
7FFC
603C
4038
4070
00F0
00E0
01C0
03C0
0380
0700
0E00
0E00
1C00
3804
3804
7004
E00C
FFFC
ENDCHAR
STARTCHAR bracketleft
ENCODING 91
SWIDTH 330 0
DWIDTH 8 0
BBX 4 21 3 -3
BITMAP
F0
C0
C0
C0
C0
C0
C0
C0
C0
C0
C0
C0
C0
C0
C0
C0
C0
C0
C0
C0
F0
ENDCHAR
STARTCHAR backslash
ENCODING 92
SWIDTH 460 0
DWIDTH 11 0
BBX 7 18 2 0
BITMAP
C0
C0
40
60
60
20
30
30
10
10
18
18
08
0C
0C
04
06
06
ENDCHAR
STARTCHAR bracketright
ENCODING 93
SWIDTH 330 0
DWIDTH 8 0
BBX 4 21 1 -3
BITMAP
F0
30
30
30
30
30
30
30
30
30
30
30
30
30
30
30
30
30
30
30
F0
ENDCHAR
STARTCHAR asciicircum
ENCODING 94
SWIDTH 570 0
DWIDTH 14 0
BBX 11 11 2 6
BITMAP
0600
0E00
0A00
1B00
1100
3180
3180
2080
60C0
4040
C060
ENDCHAR
STARTCHAR underscore
ENCODING 95
SWIDTH 500 0
DWIDTH 12 0
BBX 12 1 0 -3
BITMAP
FFF0
ENDCHAR
STARTCHAR grave
ENCODING 96
SWIDTH 400 0
DWIDTH 10 0
BBX 6 5 1 13
BITMAP
40
E0
70
18
04
ENDCHAR
STARTCHAR a
ENCODING 97
SWIDTH 523 0
DWIDTH 13 0
BBX 12 13 1 0
BITMAP
0F00
3180
60C0
60C0
00C0
03C0
1CC0
60C0
C0C0
C0C0
C0C0
61C0
7EF0
ENDCHAR
STARTCHAR b
ENCODING 98
SWIDTH 598 0
DWIDTH 15 0
BBX 13 19 0 0
BITMAP
3000
F000
3000
3000
3000
3000
33C0
3C70
3030
3018
3018
3018
3018
3018
3018
3010
3030
3860
2FC0
ENDCHAR
STARTCHAR c
ENCODING 99
SWIDTH 496 0
DWIDTH 12 0
BBX 10 13 2 0
BITMAP
1E00
3380
61C0
4080
C000
C000
C000
C000
C000
E040
60C0
7180
1E00
ENDCHAR
STARTCHAR d
ENCODING 100
SWIDTH 598 0
DWIDTH 15 0
BBX 13 19 2 0
BITMAP
0060
01E0
0060
0060
0060
0060
1F60
30E0
6060
6060
C060
C060
C060
C060
C060
C060
6060
70E0
1F78
ENDCHAR
STARTCHAR e
ENCODING 101
SWIDTH 514 0
DWIDTH 13 0
BBX 10 13 2 0
BITMAP
1E00
2180
6080
40C0
C0C0
FFC0
C000
C000
C000
C040
6040
7080
1F00
ENDCHAR
STARTCHAR f
ENCODING 102
SWIDTH 319 0
DWIDTH 8 0
BBX 9 19 1 0
BITMAP
0E00
1380
1100
3000
3000
3000
FE00
3000
3000
3000
3000
3000
3000
3000
3000
3000
3000
3000
FC00
ENDCHAR
STARTCHAR g
ENCODING 103
SWIDTH 520 0
DWIDTH 13 0
BBX 12 19 1 -6
BITMAP
1E30
31E0
6080
60C0
60C0
60C0
30C0
3180
1F00
2000
6000
7FC0
1FE0
6070
C030
C030
C020
70E0
1F00
ENDCHAR
STARTCHAR h
ENCODING 104
SWIDTH 607 0
DWIDTH 15 0
BBX 14 19 1 0
BITMAP
3000
F000
3000
3000
3000
3000
33C0
3C60
3830
3030
3030
3030
3030
3030
3030
3030
3030
3030
FCFC
ENDCHAR
STARTCHAR i
ENCODING 105
SWIDTH 291 0
DWIDTH 7 0
BBX 6 18 1 0
BITMAP
30
30
30
00
00
30
F0
30
30
30
30
30
30
30
30
30
30
FC
ENDCHAR
STARTCHAR j
ENCODING 106
SWIDTH 280 0
DWIDTH 7 0
BBX 5 24 0 -6
BITMAP
38
38
38
00
00
18
78
18
18
18
18
18
18
18
18
18
18
18
18
18
10
30
60
C0
ENDCHAR
STARTCHAR k
ENCODING 107
SWIDTH 524 0
DWIDTH 13 0
BBX 13 19 1 0
BITMAP
3000
F000
3000
3000
3000
3000
30F0
31C0
3180
3300
3600
3C00
3E00
3E00
3700
3380
31C0
30F0
FC38
ENDCHAR
STARTCHAR l
ENCODING 108
SWIDTH 279 0
DWIDTH 7 0
BBX 6 19 1 0
BITMAP
30
F0
30
30
30
30
30
30
30
30
30
30
30
30
30
30
30
30
FC
ENDCHAR
STARTCHAR m
ENCODING 109
SWIDTH 923 0
DWIDTH 23 0
BBX 22 13 1 0
BITMAP
33E3C0
FC7C60
383030
303030
303030
303030
303030
303030
303030
303030
303030
303030
FCFCFC
ENDCHAR
STARTCHAR n
ENCODING 110
SWIDTH 619 0
DWIDTH 15 0
BBX 14 13 1 0
BITMAP
33C0
FC60
3830
3030
3030
3030
3030
3030
3030
3030
3030
3030
FCFC
ENDCHAR
STARTCHAR o
ENCODING 111
SWIDTH 577 0
DWIDTH 14 0
BBX 11 13 2 0
BITMAP
1F00
3180
60C0
C060
C060
C060
C060
C060
C060
C060
60C0
3180
1F00
ENDCHAR
STARTCHAR p
ENCODING 112
SWIDTH 608 0
DWIDTH 15 0
BBX 13 19 1 -6
BITMAP
33C0
FC70
3830
3018
3018
3018
3018
3018
3018
3030
3030
3860
37C0
3000
3000
3000
3000
3000
FC00
ENDCHAR
STARTCHAR q
ENCODING 113
SWIDTH 591 0
DWIDTH 15 0
BBX 13 19 2 -6
BITMAP
1F20
30E0
6060
6060
C060
C060
C060
C060
C060
C060
6060
70E0
1F60
0060
0060
0060
0060
0060
01F8
ENDCHAR
STARTCHAR r
ENCODING 114
SWIDTH 389 0
DWIDTH 10 0
BBX 9 13 1 0
BITMAP
3380
FF00
3000
3000
3000
3000
3000
3000
3000
3000
3000
3000
FC00
ENDCHAR
STARTCHAR s
ENCODING 115
SWIDTH 436 0
DWIDTH 11 0
BBX 9 13 1 0
BITMAP
3C00
6300
C100
C100
E000
7C00
3F00
0F80
8380
8180
C180
C300
3E00
ENDCHAR
STARTCHAR t
ENCODING 116
SWIDTH 344 0
DWIDTH 9 0
BBX 8 16 1 0
BITMAP
10
10
30
FE
30
30
30
30
30
30
30
30
30
30
30
1F
ENDCHAR
STARTCHAR u
ENCODING 117
SWIDTH 606 0
DWIDTH 15 0
BBX 14 13 1 0
BITMAP
3030
F0F0
3030
3030
3030
3030
3030
3030
3030
3030
3030
38F0
0F3C
ENDCHAR
STARTCHAR v
ENCODING 118
SWIDTH 504 0
DWIDTH 13 0
BBX 13 13 0 0
BITMAP
FCF8
7030
3020
3860
1840
1840
18C0
0C80
0C80
0C80
0700
0700
0600
ENDCHAR
STARTCHAR w
ENCODING 119
SWIDTH 768 0
DWIDTH 19 0
BBX 20 13 0 0
BITMAP
F801F0
706060
306040
30B0C0
30B080
189880
199880
191900
091D00
0D0D00
0F0D00
060E00
060600
ENDCHAR
STARTCHAR x
ENCODING 120
SWIDTH 486 0
DWIDTH 12 0
BBX 13 13 0 0
BITMAP
F9F0
70C0
3880
1900
1F00
0E00
0700
0F00
0980
19C0
10C0
30E0
F9F8
ENDCHAR
STARTCHAR y
ENCODING 121
SWIDTH 506 0
DWIDTH 13 0
BBX 13 19 0 -6
BITMAP
F8F8
7030
3020
3860
1840
1840
1CC0
0C80
0C80
0700
0700
0700
0200
0200
0200
0400
0400
3800
7000
ENDCHAR
STARTCHAR z
ENCODING 122
SWIDTH 480 0
DWIDTH 12 0
BBX 11 13 0 0
BITMAP
7FE0
60E0
41C0
4380
0300
0700
0E00
1C00
1C00
3820
7020
7060
FFE0
ENDCHAR
STARTCHAR braceleft
ENCODING 123
SWIDTH 340 0
DWIDTH 8 0
BBX 6 21 2 -3
BITMAP
1C
10
30
30
30
30
30
30
30
20
C0
20
30
30
30
30
30
30
30
10
0C
ENDCHAR
STARTCHAR bar
ENCODING 124
SWIDTH 228 0
DWIDTH 6 0
BBX 2 18 2 0
BITMAP
C0
C0
C0
C0
C0
C0
C0
C0
C0
C0
C0
C0
C0
C0
C0
C0
C0
C0
ENDCHAR
STARTCHAR braceright
ENCODING 125
SWIDTH 340 0
DWIDTH 8 0
BBX 6 21 1 -3
BITMAP
E0
20
30
30
30
30
30
30
30
10
0C
30
30
30
30
30
30
30
30
20
C0
ENDCHAR
STARTCHAR asciitilde
ENCODING 126
SWIDTH 570 0
DWIDTH 14 0
BBX 11 4 2 4
BITMAP
1060
7EC0
4FC0
C000
ENDCHAR
STARTCHAR space
ENCODING 160
SWIDTH 225 0
DWIDTH 6 0
BBX 0 0 0 0
BITMAP
ENDCHAR
STARTCHAR exclamdown
ENCODING 161
SWIDTH 242 0
DWIDTH 6 0
BBX 3 18 2 -5
BITMAP
E0
E0
E0
00
00
00
40
40
40
40
40
40
40
E0
E0
E0
E0
E0
ENDCHAR
STARTCHAR cent
ENCODING 162
SWIDTH 530 0
DWIDTH 13 0
BBX 12 17 1 0
BITMAP
0200
0200
1F80
32E0
6260
4220
C200
C200
C200
C200
C200
E200
6230
7A60
1F80
0200
0200
ENDCHAR
STARTCHAR sterling
ENCODING 163
SWIDTH 530 0
DWIDTH 13 0
BBX 11 17 1 0
BITMAP
0F00
3180
20C0
60C0
6000
6000
7000
3000
3800
FF80
1C00
0C00
0C00
0800
1020
7FC0
FFC0
ENDCHAR
STARTCHAR currency
ENCODING 164
SWIDTH 530 0
DWIDTH 13 0
BBX 11 11 1 3
BITMAP
CE60
71C0
60C0
C060
C060
C060
C060
C060
60C0
71C0
CE60
ENDCHAR
STARTCHAR yen
ENCODING 165
SWIDTH 530 0
DWIDTH 13 0
BBX 13 17 0 0
BITMAP
F8F8
7020
3020
3840
18C0
1880
0D80
0D00
7FF0
0600
0600
7FF0
0600
0600
0600
0600
1FC0
ENDCHAR
STARTCHAR brokenbar
ENCODING 166
SWIDTH 228 0
DWIDTH 6 0
BBX 2 18 2 0
BITMAP
C0
C0
C0
C0
C0
C0
C0
00
00
00
C0
C0
C0
C0
C0
C0
C0
C0
ENDCHAR
STARTCHAR section
ENCODING 167
SWIDTH 554 0
DWIDTH 14 0
BBX 12 21 1 -3
BITMAP
0F80
18E0
3040
3000
3800
5C00
8F00
87C0
81E0
C0E0
6030
7810
3C10
0F10
0790
01E0
00C0
00C0
30C0
3980
0E00
ENDCHAR
STARTCHAR dieresis
ENCODING 168
SWIDTH 400 0
DWIDTH 10 0
BBX 8 3 1 14
BITMAP
E7
E7
42
ENDCHAR
STARTCHAR copyright
ENCODING 169
SWIDTH 818 0
DWIDTH 20 0
BBX 19 18 1 0
BITMAP
03E000
0C1C00
180600
300100
61E180
6618C0
460840
CC0040
CC0060
CC0060
CC0060
460840
6618C0
61F180
300180
180700
0C1C00
03E000
ENDCHAR
STARTCHAR ordfeminine
ENCODING 170
SWIDTH 390 0
DWIDTH 10 0
BBX 8 8 1 7
BITMAP
3C
46
C6
1E
66
C6
C6
7F
ENDCHAR
STARTCHAR guillemotleft
ENCODING 171
SWIDTH 442 0
DWIDTH 11 0
BBX 9 10 1 1
BITMAP
1080
1100
2300
6300
C600
C600
6300
2300
1100
1080
ENDCHAR
STARTCHAR logicalnot
ENCODING 172
SWIDTH 570 0
DWIDTH 14 0
BBX 12 7 1 2
BITMAP
FFF0
0030
0030
0030
0030
0030
0030
ENDCHAR
STARTCHAR hyphen
ENCODING 173
SWIDTH 392 0
DWIDTH 10 0
BBX 6 2 2 5
BITMAP
FC
FC
ENDCHAR
STARTCHAR registered
ENCODING 174
SWIDTH 818 0
DWIDTH 20 0
BBX 19 18 1 0
BITMAP
01F000
060C00
180300
300180
27F180
6310C0
431840
431840
C33060
C3C060
C33060
431040
4318C0
678CC0
300180
180300
0E0C00
01F000
ENDCHAR
STARTCHAR macron
ENCODING 175
SWIDTH 400 0
DWIDTH 10 0
BBX 7 1 1 15
BITMAP
FE
ENDCHAR
STARTCHAR degree
ENCODING 176
SWIDTH 350 0
DWIDTH 9 0
BBX 7 7 1 10
BITMAP
38
44
82
82
82
44
38
ENDCHAR
STARTCHAR plusminus
ENCODING 177
SWIDTH 570 0
DWIDTH 14 0
BBX 12 14 1 0
BITMAP
0600
0600
0600
0600
0600
FFF0
0600
0600
0600
0600
0600
0000
0000
FFF0
ENDCHAR
STARTCHAR twosuperior
ENCODING 178
SWIDTH 380 0
DWIDTH 9 0
BBX 7 10 1 7
BITMAP
38
64
C6
46
04
0C
10
60
C2
FE
ENDCHAR
STARTCHAR threesuperior
ENCODING 179
SWIDTH 380 0
DWIDTH 9 0
BBX 7 10 1 7
BITMAP
38
46
C6
04
38
04
06
C6
44
38
ENDCHAR
STARTCHAR acute
ENCODING 180
SWIDTH 400 0
DWIDTH 10 0
BBX 6 5 3 13
BITMAP
08
1C
38
60
80
ENDCHAR
STARTCHAR mu
ENCODING 181
SWIDTH 606 0
DWIDTH 15 0
BBX 14 19 1 -6
BITMAP
3030
F0F0
3030
3030
3030
3030
3030
3030
3030
3030
3030
38F0
2F3C
2000
2000
3000
3000
3000
2000
ENDCHAR
STARTCHAR paragraph
ENCODING 182
SWIDTH 555 0
DWIDTH 14 0
BBX 12 21 1 -3
BITMAP
1CF0
3CC0
7CC0
7CC0
FCC0
FCC0
FCC0
FCC0
7CC0
7CC0
3CC0
04C0
00C0
00C0
00C0
00C0
00C0
00C0
00C0
00C0
07C0
ENDCHAR
STARTCHAR periodcentered
ENCODING 183
SWIDTH 265 0
DWIDTH 7 0
BBX 3 3 2 5
BITMAP
E0
E0
E0
ENDCHAR
STARTCHAR cedilla
ENCODING 184
SWIDTH 400 0
DWIDTH 10 0
BBX 4 6 4 -6
BITMAP
60
E0
30
30
30
E0
ENDCHAR
STARTCHAR onesuperior
ENCODING 185
SWIDTH 380 0
DWIDTH 9 0
BBX 6 10 2 7
BITMAP
30
F0
30
30
30
30
30
30
30
FC
ENDCHAR
STARTCHAR ordmasculine
ENCODING 186
SWIDTH 398 0
DWIDTH 10 0
BBX 8 8 1 7
BITMAP
3C
66
C3
C3
C3
C3
66
3C
ENDCHAR
STARTCHAR guillemotright
ENCODING 187
SWIDTH 442 0
DWIDTH 11 0
BBX 9 10 1 1
BITMAP
8400
4400
6200
6300
3180
3180
6300
6200
4400
8400
ENDCHAR
STARTCHAR onequarter
ENCODING 188
SWIDTH 860 0
DWIDTH 21 0
BBX 19 19 1 -1
BITMAP
000200
300600
F00400
300C00
300800
301800
303000
302000
306180
304380
FC8380
018580
010980
030980
021180
041FE0
0C0180
0807C0
080000
ENDCHAR
STARTCHAR onehalf
ENCODING 189
SWIDTH 860 0
DWIDTH 21 0
BBX 19 19 1 -1
BITMAP
000400
300600
F00C00
300C00
301800
303800
303000
306000
306380
30CC60
FD8460
018040
0300C0
020180
060300
0C0600
080C20
180FE0
100000
ENDCHAR
STARTCHAR threequarters
ENCODING 190
SWIDTH 860 0
DWIDTH 21 0
BBX 20 19 1 -1
BITMAP
000100
380180
460300
C60300
040600
3C0C00
060C00
031800
0310C0
C331C0
3C61C0
0062C0
00C4C0
0084C0
0188C0
031FF0
0200C0
0603E0
040000
ENDCHAR
STARTCHAR questiondown
ENCODING 191
SWIDTH 389 0
DWIDTH 10 0
BBX 8 18 1 -5
BITMAP
18
1C
18
00
00
00
78
1C
0C
0C
18
30
60
40
C3
C3
E6
3C
ENDCHAR
STARTCHAR Agrave
ENCODING 192
SWIDTH 635 0
DWIDTH 16 0
BBX 16 23 0 0
BITMAP
0400
0F00
0780
00C0
0000
0180
0180
02C0
02C0
02C0
0460
0460
0C60
0870
0830
0FF0
1038
1018
1018
2018
200C
600C
F83F
ENDCHAR
STARTCHAR Aacute
ENCODING 193
SWIDTH 635 0
DWIDTH 16 0
BBX 16 23 0 0
BITMAP
0020
00E0
01C0
0600
0000
0180
0180
02C0
02C0
02C0
0460
0460
0C60
0870
0830
0FF0
1038
1018
1018
2018
200C
600C
F83F
ENDCHAR
STARTCHAR Acircumflex
ENCODING 194
SWIDTH 635 0
DWIDTH 16 0
BBX 17 22 -1 0
BITMAP
008000
01E000
023000
040800
00C000
01C000
01C000
02E000
026000
026000
067000
043000
043000
0C3800
0FF800
081800
181C00
100C00
100C00
300E00
300E00
FC1F80
ENDCHAR
STARTCHAR Atilde
ENCODING 195
SWIDTH 635 0
DWIDTH 16 0
BBX 17 21 -1 0
BITMAP
038800
0C7000
000000
00C000
01C000
01C000
02E000
026000
026000
067000
043000
043000
0C3800
0FF800
081800
181C00
100C00
100C00
300E00
300E00
FC1F80
ENDCHAR
STARTCHAR Adieresis
ENCODING 196
SWIDTH 635 0
DWIDTH 16 0
BBX 16 21 0 0
BITMAP
0E70
0E70
0000
0180
0180
02C0
02C0
02C0
04E0
0460
0C60
0870
0830
0FF0
1038
1018
1018
201C
200C
600E
F83F
ENDCHAR
STARTCHAR Aring
ENCODING 197
SWIDTH 627 0
DWIDTH 16 0
BBX 17 22 -1 0
BITMAP
01C000
022000
022000
022000
01C000
01C000
01C000
02E000
02E000
026000
047000
047000
043800
0C3800
0FF800
181C00
101C00
100C00
300E00
200600
600700
FC1F80
ENDCHAR
STARTCHAR AE
ENCODING 198
SWIDTH 876 0
DWIDTH 22 0
BBX 23 18 -2 0
BITMAP
00FFFC
003C0C
002C0C
006C04
00CC00
00CC00
018C00
018C08
030C18
03FFF8
060C08
060C08
0C0C00
0C0C00
180C02
100C02
300C06
FC3FFE
ENDCHAR
STARTCHAR Ccedilla
ENCODING 199
SWIDTH 680 0
DWIDTH 17 0
BBX 15 24 1 -6
BITMAP
01F8
0E0E
1806
3002
7002
6000
6000
E000
E000
E000
E000
E000
6000
7002
3002
3806
0E0E
03F8
0080
01C0
0060
0060
0060
01C0
ENDCHAR
STARTCHAR Egrave
ENCODING 200
SWIDTH 606 0
DWIDTH 15 0
BBX 13 23 1 0
BITMAP
1800
3C00
1F00
0380
0000
FFF8
3018
3008
3008
3000
3000
3000
3020
3060
3FE0
3020
3020
3000
3000
3008
3008
3018
FFF8
ENDCHAR
STARTCHAR Eacute
ENCODING 201
SWIDTH 606 0
DWIDTH 15 0
BBX 13 23 1 0
BITMAP
0040
01C0
0380
0C00
0000
FFF8
3018
3008
3008
3000
3000
3000
3020
3060
3FE0
3020
3020
3000
3000
3008
3008
3018
FFF8
ENDCHAR
STARTCHAR Ecircumflex
ENCODING 202
SWIDTH 606 0
DWIDTH 15 0
BBX 13 22 1 0
BITMAP
0300
0780
0CC0
1020
FFF8
3018
3008
3008
3000
3000
3000
3020
3060
3FE0
3020
3020
3000
3000
3008
3008
3018
FFF8
ENDCHAR
STARTCHAR Edieresis
ENCODING 203
SWIDTH 606 0
DWIDTH 15 0
BBX 13 21 1 0
BITMAP
38E0
38E0
0000
FFF8
3018
3008
3008
3000
3000
3000
3020
3060
3FE0
3020
3020
3000
3000
3008
3008
3018
FFF8
ENDCHAR
STARTCHAR Igrave
ENCODING 204
SWIDTH 349 0
DWIDTH 9 0
BBX 7 23 0 0
BITMAP
40
F0
78
0C
00
7E
18
18
18
18
18
18
18
18
18
18
18
18
18
18
18
18
7E
ENDCHAR
STARTCHAR Iacute
ENCODING 205
SWIDTH 349 0
DWIDTH 9 0
BBX 7 23 1 0
BITMAP
04
0E
38
60
00
FC
30
30
30
30
30
30
30
30
30
30
30
30
30
30
30
30
FC
ENDCHAR
STARTCHAR Icircumflex
ENCODING 206
SWIDTH 349 0
DWIDTH 9 0
BBX 8 22 0 0
BITMAP
18
3C
66
81
7E
18
18
18
18
18
18
18
18
18
18
18
18
18
18
18
18
7E
ENDCHAR
STARTCHAR Idieresis
ENCODING 207
SWIDTH 349 0
DWIDTH 9 0
BBX 8 21 0 0
BITMAP
E7
E7
00
7E
18
18
18
18
18
18
18
18
18
18
18
18
18
18
18
18
7E
ENDCHAR
STARTCHAR Eth
ENCODING 208
SWIDTH 785 0
DWIDTH 20 0
BBX 18 18 1 0
BITMAP
7FF000
181C00
180F00
180300
180380
180380
1801C0
1801C0
1801C0
FF01C0
1801C0
1801C0
180180
180380
180300
180700
181C00
7FF000
ENDCHAR
STARTCHAR Ntilde
ENCODING 209
SWIDTH 780 0
DWIDTH 19 0
BBX 18 21 1 0
BITMAP
038400
047800
000000
F80FC0
3C0380
3C0100
2E0100
2F0100
278100
238100
21C100
21E100
20E100
207100
203900
203D00
201D00
200F00
200700
700700
FC0300
ENDCHAR
STARTCHAR Ograve
ENCODING 210
SWIDTH 762 0
DWIDTH 19 0
BBX 17 23 1 0
BITMAP
040000
0E0000
078000
00C000
000000
03E000
0C1800
380E00
300600
700700
600300
E00380
E00380
E00380
E00380
E00380
E00380
600300
700700
300600
380E00
0C1800
03E000
ENDCHAR
STARTCHAR Oacute
ENCODING 211
SWIDTH 762 0
DWIDTH 19 0
BBX 17 23 1 0
BITMAP
001000
007000
01E000
030000
000000
03E000
0C1800
380E00
300600
700700
600300
E00380
E00380
E00380
E00380
E00380
E00380
600300
700700
300600
380E00
0C1800
03E000
ENDCHAR
STARTCHAR Ocircumflex
ENCODING 212
SWIDTH 762 0
DWIDTH 19 0
BBX 17 22 1 0
BITMAP
008000
01C000
063000
041000
03E000
0C1800
380E00
300600
700700
600300
E00380
E00380
E00380
E00380
E00380
E00380
600300
700700
300600
380E00
0C1800
03E000
ENDCHAR
STARTCHAR Otilde
ENCODING 213
SWIDTH 762 0
DWIDTH 19 0
BBX 17 21 1 0
BITMAP
078800
087000
000000
03E000
0C1800
380E00
300600
700700
600300
E00380
E00380
E00380
E00380
E00380
E00380
600300
700700
300600
380E00
0C1800
03E000
ENDCHAR
STARTCHAR Odieresis
ENCODING 214
SWIDTH 762 0
DWIDTH 19 0
BBX 17 21 1 0
BITMAP
0E3800
0E3800
000000
03E000
0C1800
380E00
300600
700700
600300
E00380
E00380
E00380
E00380
E00380
E00380
600300
700700
300600
380E00
0C1800
03E000
ENDCHAR
STARTCHAR multiply
ENCODING 215
SWIDTH 570 0
DWIDTH 14 0
BBX 11 11 2 1
BITMAP
4040
E0E0
71C0
3B80
1F00
0E00
1F00
3B80
71C0
E0E0
4040
ENDCHAR
STARTCHAR Oslash
ENCODING 216
SWIDTH 762 0
DWIDTH 19 0
BBX 17 20 1 -1
BITMAP
000200
03E600
0C1C00
380E00
301E00
701700
602300
E06380
E04380
E08380
E08380
E10380
E20380
620300
740700
380600
380E00
1C1800
33E000
200000
ENDCHAR
STARTCHAR Ugrave
ENCODING 217
SWIDTH 791 0
DWIDTH 20 0
BBX 18 23 1 0
BITMAP
040000
0F0000
078000
00E000
000000
FE1FC0
300300
300300
300300
300300
300300
300300
300300
300300
300300
300300
300300
300300
300300
180600
180600
0E1C00
03F000
ENDCHAR
STARTCHAR Uacute
ENCODING 218
SWIDTH 791 0
DWIDTH 20 0
BBX 18 23 1 0
BITMAP
001000
007000
00E000
030000
000000
FE1FC0
300300
300300
300300
300300
300300
300300
300300
300300
300300
300300
300300
300300
300300
180600
180600
0E1C00
03F000
ENDCHAR
STARTCHAR Ucircumflex
ENCODING 219
SWIDTH 791 0
DWIDTH 20 0
BBX 18 22 1 0
BITMAP
00C000
01E000
061800
040800
FE1FC0
300300
300300
300300
300300
300300
300300
300300
300300
300300
300300
300300
300300
300300
180600
180600
0E1C00
03F000
ENDCHAR
STARTCHAR Udieresis
ENCODING 220
SWIDTH 791 0
DWIDTH 20 0
BBX 18 21 1 0
BITMAP
073800
073800
000000
FE1FC0
300300
300300
300300
300300
300300
300300
300300
300300
300300
300300
300300
300300
300300
180600
180600
0E1C00
03F000
ENDCHAR
STARTCHAR Yacute
ENCODING 221
SWIDTH 588 0
DWIDTH 15 0
BBX 16 23 0 0
BITMAP
0010
0070
00E0
0180
0000
FE3F
380C
1808
1C18
0C10
0E30
0620
0760
0340
0340
0180
0180
0180
0180
0180
0180
0180
0FF0
ENDCHAR
STARTCHAR Thorn
ENCODING 222
SWIDTH 593 0
DWIDTH 15 0
BBX 13 18 1 0
BITMAP
FE00
3000
3000
3000
3FC0
3070
3038
3018
3018
3018
3018
3030
3060
3FC0
3000
3000
3000
FE00
ENDCHAR
STARTCHAR germandbls
ENCODING 223
SWIDTH 601 0
DWIDTH 15 0
BBX 13 19 1 0
BITMAP
07C0
08E0
1820
1030
3030
3060
3080
3100
3300
3300
3180
31E0
3070
3030
3018
3018
3218
3310
FDE0
ENDCHAR
STARTCHAR agrave
ENCODING 224
SWIDTH 523 0
DWIDTH 13 0
BBX 12 18 1 0
BITMAP
2000
7800
1C00
0600
0100
0F00
3180
60C0
60C0
00C0
03C0
1CC0
60C0
C0C0
C0C0
C0C0
61C0
7EF0
ENDCHAR
STARTCHAR aacute
ENCODING 225
SWIDTH 523 0
DWIDTH 13 0
BBX 12 18 1 0
BITMAP
0080
01C0
0700
0C00
1000
0F00
3180
60C0
60C0
00C0
03C0
1CC0
60C0
C0C0
C0C0
C0C0
61C0
7EF0
ENDCHAR
STARTCHAR acircumflex
ENCODING 226
SWIDTH 523 0
DWIDTH 13 0
BBX 12 18 1 0
BITMAP
0400
1E00
3100
60C0
0000
0F00
3180
60C0
60C0
00C0
03C0
1CC0
60C0
C0C0
C0C0
C0C0
61C0
7EF0
ENDCHAR
STARTCHAR atilde
ENCODING 227
SWIDTH 523 0
DWIDTH 13 0
BBX 12 17 1 0
BITMAP
1C40
2380
0000
0000
0F00
3180
60C0
60C0
00C0
03C0
3CC0
60C0
C0C0
C0C0
C0C0
61C0
7EF0
ENDCHAR
STARTCHAR adieresis
ENCODING 228
SWIDTH 523 0
DWIDTH 13 0
BBX 12 17 1 0
BITMAP
71C0
71C0
2080
0000
0F00
3180
60C0
60C0
00C0
03C0
1CC0
60C0
C0C0
C0C0
C0C0
61C0
7EF0
ENDCHAR
STARTCHAR aring
ENCODING 229
SWIDTH 523 0
DWIDTH 13 0
BBX 12 19 1 0
BITMAP
0E00
1100
1100
1100
0E00
0000
0F00
3180
60C0
60C0
00C0
03C0
1CC0
60C0
C0C0
C0C0
C0C0
61C0
7EF0
ENDCHAR
STARTCHAR ae
ENCODING 230
SWIDTH 797 0
DWIDTH 20 0
BBX 18 13 1 0
BITMAP
1F1E00
31A180
60E080
60C0C0
00C0C0
07FFC0
38C000
60C000
C0C000
C0C040
C0E040
637080
3C3F00
ENDCHAR
STARTCHAR ccedilla
ENCODING 231
SWIDTH 496 0
DWIDTH 12 0
BBX 10 19 2 -6
BITMAP
1E00
3380
6180
4180
C000
C000
C000
C000
C000
C040
6080
7180
3E00
0800
0C00
0600
0600
0600
1C00
ENDCHAR
STARTCHAR egrave
ENCODING 232
SWIDTH 514 0
DWIDTH 13 0
BBX 10 18 2 0
BITMAP
7000
3800
0C00
0200
0000
1E00
2180
6080
40C0
C0C0
FFC0
C000
C000
C000
C040
6040
7080
1F00
ENDCHAR
STARTCHAR eacute
ENCODING 233
SWIDTH 514 0
DWIDTH 13 0
BBX 10 18 2 0
BITMAP
0180
0700
0E00
1800
0000
1E00
2180
6080
40C0
C0C0
FFC0
C000
C000
C000
C040
6040
7080
1F00
ENDCHAR
STARTCHAR ecircumflex
ENCODING 234
SWIDTH 514 0
DWIDTH 13 0
BBX 10 18 2 0
BITMAP
0C00
1E00
3300
6080
0000
1E00
2180
6080
40C0
C0C0
FFC0
C000
C000
C000
C040
6040
7080
1F00
ENDCHAR
STARTCHAR edieresis
ENCODING 235
SWIDTH 514 0
DWIDTH 13 0
BBX 10 17 2 0
BITMAP
E380
E380
4100
0000
1E00
2180
6080
40C0
C0C0
FFC0
C000
C000
C000
C040
6040
7080
1F00
ENDCHAR
STARTCHAR igrave
ENCODING 236
SWIDTH 291 0
DWIDTH 7 0
BBX 6 18 1 0
BITMAP
C0
E0
30
18
00
30
F0
30
30
30
30
30
30
30
30
30
30
FC
ENDCHAR
STARTCHAR iacute
ENCODING 237
SWIDTH 291 0
DWIDTH 7 0
BBX 6 18 1 0
BITMAP
1C
18
30
40
00
30
F0
30
30
30
30
30
30
30
30
30
30
FC
ENDCHAR
STARTCHAR icircumflex
ENCODING 238
SWIDTH 291 0
DWIDTH 7 0
BBX 8 18 0 0
BITMAP
18
3C
64
C3
00
18
78
18
18
18
18
18
18
18
18
18
18
7E
ENDCHAR
STARTCHAR idieresis
ENCODING 239
SWIDTH 291 0
DWIDTH 7 0
BBX 8 17 0 0
BITMAP
E6
E7
C6
00
18
78
18
18
18
18
18
18
18
18
18
18
7E
ENDCHAR
STARTCHAR eth
ENCODING 240
SWIDTH 577 0
DWIDTH 14 0
BBX 11 19 2 0
BITMAP
6000
3080
1980
0E00
7700
0380
1F80
31C0
60C0
E060
C060
C060
C060
C060
C060
E040
60C0
3180
1F00
ENDCHAR
STARTCHAR ntilde
ENCODING 241
SWIDTH 619 0
DWIDTH 15 0
BBX 14 17 1 0
BITMAP
0E20
31C0
0000
0000
33C0
FC60
3830
3030
3030
3030
3030
3030
3030
3030
3030
3030
FCFC
ENDCHAR
STARTCHAR ograve
ENCODING 242
SWIDTH 577 0
DWIDTH 14 0
BBX 11 18 2 0
BITMAP
7000
3800
0C00
0200
0000
1F00
3180
60C0
C060
C060
C060
C060
C060
C060
C060
60C0
3180
1F00
ENDCHAR
STARTCHAR oacute
ENCODING 243
SWIDTH 577 0
DWIDTH 14 0
BBX 11 18 2 0
BITMAP
0180
0300
0E00
1800
0000
1F00
3180
60C0
C060
C060
C060
C060
C060
C060
C060
60C0
3180
1F00
ENDCHAR
STARTCHAR ocircumflex
ENCODING 244
SWIDTH 577 0
DWIDTH 14 0
BBX 11 18 2 0
BITMAP
0400
0E00
1100
2080
0000
1F00
3180
60C0
C060
C060
C060
C060
C060
C060
C060
60C0
3180
1F00
ENDCHAR
STARTCHAR otilde
ENCODING 245
SWIDTH 577 0
DWIDTH 14 0
BBX 11 17 2 0
BITMAP
3C40
4380
0000
0000
1F00
3180
60C0
C060
C060
C060
C060
C060
C060
C060
60C0
3180
1F00
ENDCHAR
STARTCHAR odieresis
ENCODING 246
SWIDTH 577 0
DWIDTH 14 0
BBX 11 17 2 0
BITMAP
7380
7380
2100
0000
1F00
3180
60C0
C060
C060
C060
C060
C060
C060
C060
60C0
3180
1F00
ENDCHAR
STARTCHAR divide
ENCODING 247
SWIDTH 570 0
DWIDTH 14 0
BBX 12 11 2 1
BITMAP
0E00
0E00
0E00
0000
0000
FFF0
0000
0000
0E00
0E00
0E00
ENDCHAR
STARTCHAR oslash
ENCODING 248
SWIDTH 577 0
DWIDTH 14 0
BBX 12 15 1 -1
BITMAP
0020
1F20
30C0
60E0
C1F0
C130
C230
C630
CC30
C830
F020
7060
70C0
4F80
4000
ENDCHAR
STARTCHAR ugrave
ENCODING 249
SWIDTH 606 0
DWIDTH 15 0
BBX 14 18 1 0
BITMAP
1800
1C00
0600
0300
0000
3030
F0F0
3030
3030
3030
3030
3030
3030
3030
3030
3030
38F0
0F3C
ENDCHAR
STARTCHAR uacute
ENCODING 250
SWIDTH 606 0
DWIDTH 15 0
BBX 14 18 1 0
BITMAP
0060
00C0
0180
0600
0000
3030
F0F0
3030
3030
3030
3030
3030
3030
3030
3030
3030
38F0
0F3C
ENDCHAR
STARTCHAR ucircumflex
ENCODING 251
SWIDTH 606 0
DWIDTH 15 0
BBX 14 18 1 0
BITMAP
0300
0780
0CC0
1860
0000
3030
F0F0
3030
3030
3030
3030
3030
3030
3030
3030
3030
38F0
0F3C
ENDCHAR
STARTCHAR udieresis
ENCODING 252
SWIDTH 606 0
DWIDTH 15 0
BBX 14 17 1 0
BITMAP
38E0
38E0
1040
0000
3030
F0F0
3030
3030
3030
3030
3030
3030
3030
3030
3030
38F0
0F3C
ENDCHAR
STARTCHAR yacute
ENCODING 253
SWIDTH 506 0
DWIDTH 13 0
BBX 13 25 0 -6
BITMAP
0040
00E0
0180
0300
0400
0000
F8F8
7030
3020
3860
1840
1840
1CC0
0C80
0C80
0700
0700
0700
0200
0200
0200
0400
0400
3800
7000
ENDCHAR
STARTCHAR thorn
ENCODING 254
SWIDTH 606 0
DWIDTH 15 0
BBX 13 25 1 -6
BITMAP
1000
F000
3000
3000
3000
3000
33C0
3C70
3830
3010
3018
3018
3018
3018
3018
3038
3030
3860
37C0
3000
3000
3000
3000
3000
FC00
ENDCHAR
STARTCHAR ydieresis
ENCODING 255
SWIDTH 506 0
DWIDTH 13 0
BBX 13 23 0 -6
BITMAP
1CE0
1CE0
0840
0000
F8F8
7030
3020
3860
1840
1840
1CC0
0C80
0C80
0F00
0700
0700
0200
0200
0200
0400
0400
3800
7000
ENDCHAR
STARTCHAR Amacron
ENCODING 256
SWIDTH 635 0
DWIDTH 16 0
BBX 17 20 -1 0
BITMAP
07F000
000000
00C000
01C000
01C000
02E000
026000
026000
067000
043000
043000
0C3800
0FF800
081800
181C00
100C00
100C00
300E00
300E00
FC1F80
ENDCHAR
STARTCHAR amacron
ENCODING 257
SWIDTH 523 0
DWIDTH 13 0
BBX 12 15 1 0
BITMAP
3F80
0000
0F00
3180
60C0
60C0
00C0
03C0
1CC0
60C0
C0C0
C0C0
C0C0
61C0
7EF0
ENDCHAR
STARTCHAR Abreve
ENCODING 258
SWIDTH 635 0
DWIDTH 16 0
BBX 17 23 -1 0
BITMAP
040800
061800
03F000
01E000
000000
00C000
01C000
01C000
02E000
026000
026000
067000
043000
043000
0C3800
0FF800
081800
181C00
100C00
100C00
300E00
300E00
FC1F80
ENDCHAR
STARTCHAR abreve
ENCODING 259
SWIDTH 523 0
DWIDTH 13 0
BBX 12 18 1 0
BITMAP
2040
30C0
1F80
0F00
0000
0F00
3180
60C0
60C0
00C0
03C0
1CC0
60C0
C0C0
C0C0
C0C0
61C0
7EF0
ENDCHAR
STARTCHAR Aogonek
ENCODING 260
SWIDTH 635 0
DWIDTH 16 0
BBX 17 24 -1 -6
BITMAP
00C000
01C000
01C000
02E000
026000
026000
067000
043000
043000
0C3800
0FF800
081800
181C00
100C00
100C00
300E00
300E00
FC1F80
004000
018000
010000
030000
030000
01E000
ENDCHAR
STARTCHAR aogonek
ENCODING 261
SWIDTH 523 0
DWIDTH 13 0
BBX 12 19 1 -6
BITMAP
0F00
3180
60C0
60C0
00C0
03C0
1CC0
60C0
C0C0
C0C0
C0C0
61C0
7EF0
0200
0C00
0800
1800
1800
0F00
ENDCHAR
STARTCHAR Cacute
ENCODING 262
SWIDTH 684 0
DWIDTH 17 0
BBX 15 24 1 0
BITMAP
0020
0070
00E0
0180
0200
0000
01F8
0E0E
1806
3002
7002
6000
6000
E000
E000
E000
E000
E000
6000
7002
3002
3806
0E0E
03F8
ENDCHAR
STARTCHAR cacute
ENCODING 263
SWIDTH 496 0
DWIDTH 12 0
BBX 10 19 2 0
BITMAP
0100
0380
0700
0C00
1000
0000
1E00
3380
61C0
4080
C000
C000
C000
C000
C000
E040
60C0
7180
1E00
ENDCHAR
STARTCHAR Ccircumflex
ENCODING 264
SWIDTH 684 0
DWIDTH 17 0
BBX 15 23 1 0
BITMAP
0180
03C0
0660
0810
0000
01F8
0E0E
1806
3002
7002
6000
6000
E000
E000
E000
E000
E000
6000
7002
3002
3806
0E0E
03F8
ENDCHAR
STARTCHAR ccircumflex
ENCODING 265
SWIDTH 496 0
DWIDTH 12 0
BBX 10 18 2 0
BITMAP
0C00
1E00
3300
4080
0000
1E00
3380
61C0
4080
C000
C000
C000
C000
C000
E040
60C0
7180
1E00
ENDCHAR
STARTCHAR Cdotaccent
ENCODING 266
SWIDTH 684 0
DWIDTH 17 0
BBX 15 22 1 0
BITMAP
01C0
01C0
0080
0000
01F8
0E0E
1806
3002
7002
6000
6000
E000
E000
E000
E000
E000
6000
7002
3002
3806
0E0E
03F8
ENDCHAR
STARTCHAR cdotaccent
ENCODING 267
SWIDTH 496 0
DWIDTH 12 0
BBX 10 17 2 0
BITMAP
0E00
0E00
0400
0000
1E00
3380
61C0
4080
C000
C000
C000
C000
C000
E040
60C0
7180
1E00
ENDCHAR
STARTCHAR Ccaron
ENCODING 268
SWIDTH 684 0
DWIDTH 17 0
BBX 15 23 1 0
BITMAP
0C30
0660
03C0
0180
0000
01F8
0E0E
1806
3002
7002
6000
6000
E000
E000
E000
E000
E000
6000
7002
3002
3806
0E0E
03F8
ENDCHAR
STARTCHAR ccaron
ENCODING 269
SWIDTH 496 0
DWIDTH 12 0
BBX 10 18 2 0
BITMAP
6180
3300
1E00
0C00
0000
1E00
3380
61C0
4080
C000
C000
C000
C000
C000
E040
60C0
7180
1E00
ENDCHAR
STARTCHAR Dcaron
ENCODING 270
SWIDTH 779 0
DWIDTH 19 0
BBX 17 23 1 0
BITMAP
0C3000
066000
03C000
018000
000000
FFE000
303800
300E00
300600
300700
300300
300380
300380
300380
300380
300380
300380
300300
300700
300600
300E00
303800
FFE000
ENDCHAR
STARTCHAR dcaron
ENCODING 271
SWIDTH 846 0
DWIDTH 21 0
BBX 17 19 2 0
BITMAP
006100
01E180
006180
006180
006100
006100
1F6200
30E000
606000
606000
C06000
C06000
C06000
C06000
C06000
C06000
606000
70E000
1F7800
ENDCHAR
STARTCHAR Dcroat
ENCODING 272
SWIDTH 785 0
DWIDTH 20 0
BBX 18 18 1 0
BITMAP
7FF000
181C00
180F00
180300
180380
180380
1801C0
1801C0
1801C0
FF01C0
1801C0
1801C0
180180
180380
180300
180700
181C00
7FF000
ENDCHAR
STARTCHAR dcroat
ENCODING 273
SWIDTH 598 0
DWIDTH 15 0
BBX 13 19 2 0
BITMAP
0060
01E0
0060
0060
0060
03F0
1F60
30E0
6060
6060
C060
C060
C060
C060
C060
C060
6060
70E0
1F78
ENDCHAR
STARTCHAR Emacron
ENCODING 274
SWIDTH 606 0
DWIDTH 15 0
BBX 13 20 1 0
BITMAP
1FC0
0000
FFF8
3018
3008
3008
3000
3000
3000
3020
3060
3FE0
3020
3020
3000
3000
3008
3008
3018
FFF8
ENDCHAR
STARTCHAR emacron
ENCODING 275
SWIDTH 514 0
DWIDTH 13 0
BBX 10 15 2 0
BITMAP
3F80
0000
1E00
2180
6080
40C0
C0C0
FFC0
C000
C000
C000
C040
6040
7080
1F00
ENDCHAR
STARTCHAR Ebreve
ENCODING 276
SWIDTH 606 0
DWIDTH 15 0
BBX 13 23 1 0
BITMAP
2040
30C0
1F80
0F00
0000
FFF8
3018
3008
3008
3000
3000
3000
3020
3060
3FE0
3020
3020
3000
3000
3008
3008
3018
FFF8
ENDCHAR
STARTCHAR ebreve
ENCODING 277
SWIDTH 514 0
DWIDTH 13 0
BBX 10 18 2 0
BITMAP
4080
6180
3F00
1E00
0000
1E00
2180
6080
40C0
C0C0
FFC0
C000
C000
C000
C040
6040
7080
1F00
ENDCHAR
STARTCHAR Edotaccent
ENCODING 278
SWIDTH 606 0
DWIDTH 15 0
BBX 13 22 1 0
BITMAP
0700
0700
0200
0000
FFF8
3018
3008
3008
3000
3000
3000
3020
3060
3FE0
3020
3020
3000
3000
3008
3008
3018
FFF8
ENDCHAR
STARTCHAR edotaccent
ENCODING 279
SWIDTH 514 0
DWIDTH 13 0
BBX 10 17 2 0
BITMAP
0E00
0E00
0400
0000
1E00
2180
6080
40C0
C0C0
FFC0
C000
C000
C000
C040
6040
7080
1F00
ENDCHAR
STARTCHAR Eogonek
ENCODING 280
SWIDTH 606 0
DWIDTH 15 0
BBX 13 24 1 -6
BITMAP
FFF8
3018
3008
3008
3000
3000
3000
3020
3060
3FE0
3020
3020
3000
3000
3008
3008
3018
FFF8
0100
0600
0400
0C00
0C00
0780
ENDCHAR
STARTCHAR eogonek
ENCODING 281
SWIDTH 514 0
DWIDTH 13 0
BBX 10 19 2 -6
BITMAP
1E00
2180
6080
40C0
C0C0
FFC0
C000
C000
C000
C040
6040
7080
1F00
0400
1800
1000
3000
3000
1E00
ENDCHAR
STARTCHAR Ecaron
ENCODING 282
SWIDTH 606 0
DWIDTH 15 0
BBX 13 23 1 0
BITMAP
30C0
1980
0F00
0600
0000
FFF8
3018
3008
3008
3000
3000
3000
3020
3060
3FE0
3020
3020
3000
3000
3008
3008
3018
FFF8
ENDCHAR
STARTCHAR ecaron
ENCODING 283
SWIDTH 514 0
DWIDTH 13 0
BBX 10 18 2 0
BITMAP
6180
3300
1E00
0C00
0000
1E00
2180
6080
40C0
C0C0
FFC0
C000
C000
C000
C040
6040
7080
1F00
ENDCHAR
STARTCHAR Gcircumflex
ENCODING 284
SWIDTH 734 0
DWIDTH 18 0
BBX 17 23 1 0
BITMAP
018000
03C000
066000
081000
000000
01F000
0E0E00
180600
300200
700200
700000
E00000
E00000
E00000
E00000
E03F80
600600
600600
700600
300600
380600
0E0600
03F800
ENDCHAR
STARTCHAR gcircumflex
ENCODING 285
SWIDTH 520 0
DWIDTH 13 0
BBX 12 24 1 -6
BITMAP
0600
0F00
1980
2040
0000
1E30
31E0
6080
60C0
60C0
60C0
30C0
3180
1F00
2000
6000
7FC0
1FE0
6070
C030
C030
C020
70E0
1F00
ENDCHAR
STARTCHAR Gbreve
ENCODING 286
SWIDTH 734 0
DWIDTH 18 0
BBX 17 23 1 0
BITMAP
081000
0C3000
07E000
03C000
000000
01F000
0E0E00
180600
300200
700200
700000
E00000
E00000
E00000
E00000
E03F80
600600
600600
700600
300600
380600
0E0600
03F800
ENDCHAR
STARTCHAR gbreve
ENCODING 287
SWIDTH 520 0
DWIDTH 13 0
BBX 12 24 1 -6
BITMAP
2040
30C0
1F80
0F00
0000
1E30
31E0
6080
60C0
60C0
60C0
30C0
3180
1F00
2000
6000
7FC0
1FE0
6070
C030
C030
C020
70E0
1F00
ENDCHAR
STARTCHAR Gdotaccent
ENCODING 288
SWIDTH 734 0
DWIDTH 18 0
BBX 17 22 1 0
BITMAP
01C000
01C000
008000
000000
01F000
0E0E00
180600
300200
700200
700000
E00000
E00000
E00000
E00000
E03F80
600600
600600
700600
300600
380600
0E0600
03F800
ENDCHAR
STARTCHAR gdotaccent
ENCODING 289
SWIDTH 520 0
DWIDTH 13 0
BBX 12 23 1 -6
BITMAP
0700
0700
0200
0000
1E30
31E0
6080
60C0
60C0
60C0
30C0
3180
1F00
2000
6000
7FC0
1FE0
6070
C030
C030
C020
70E0
1F00
ENDCHAR
STARTCHAR Gcommaaccent
ENCODING 290
SWIDTH 734 0
DWIDTH 18 0
BBX 17 26 1 -8
BITMAP
01F000
0E0E00
180600
300200
700200
700000
E00000
E00000
E00000
E00000
E03F80
600600
600600
700600
300600
380600
0E0600
03F800
000000
008000
01C000
00C000
008000
008000
010000
010000
ENDCHAR
STARTCHAR gcommaaccent
ENCODING 291
SWIDTH 520 0
DWIDTH 13 0
BBX 12 27 1 -6
BITMAP
0100
0200
0200
0600
0600
0600
0200
0000
1E30
31E0
6080
60C0
60C0
60C0
30C0
3180
1F00
2000
6000
7FC0
1FE0
6070
C030
C030
C020
70E0
1F00
ENDCHAR
STARTCHAR Hcircumflex
ENCODING 292
SWIDTH 798 0
DWIDTH 20 0
BBX 18 23 1 0
BITMAP
00C000
01E000
033000
040800
000000
FE1FC0
300300
300300
300300
300300
300300
300300
300300
300300
3FFF00
300300
300300
300300
300300
300300
300300
300300
FE1FC0
ENDCHAR
STARTCHAR hcircumflex
ENCODING 293
SWIDTH 607 0
DWIDTH 15 0
BBX 14 24 1 0
BITMAP
1800
3C00
6600
8100
0000
3000
F000
3000
3000
3000
3000
33C0
3C60
3830
3030
3030
3030
3030
3030
3030
3030
3030
3030
FCFC
ENDCHAR
STARTCHAR Hbar
ENCODING 294
SWIDTH 798 0
DWIDTH 20 0
BBX 18 18 1 0
BITMAP
FE1FC0
300300
300300
300300
300300
FFFFC0
300300
300300
300300
3FFF00
300300
300300
300300
300300
300300
300300
300300
FE1FC0
ENDCHAR
STARTCHAR hbar
ENCODING 295
SWIDTH 607 0
DWIDTH 15 0
BBX 14 19 1 0
BITMAP
3000
F000
3000
3000
3000
7E00
33C0
3C60
3830
3030
3030
3030
3030
3030
3030
3030
3030
3030
FCFC
ENDCHAR
STARTCHAR Itilde
ENCODING 296
SWIDTH 349 0
DWIDTH 9 0
BBX 9 22 0 0
BITMAP
3080
7F00
8200
0000
7E00
1800
1800
1800
1800
1800
1800
1800
1800
1800
1800
1800
1800
1800
1800
1800
1800
7E00
ENDCHAR
STARTCHAR itilde
ENCODING 297
SWIDTH 291 0
DWIDTH 7 0
BBX 9 17 0 0
BITMAP
3080
7F00
8200
0000
1800
7800
1800
1800
1800
1800
1800
1800
1800
1800
1800
1800
7E00
ENDCHAR
STARTCHAR Imacron
ENCODING 298
SWIDTH 349 0
DWIDTH 9 0
BBX 7 20 1 0
BITMAP
FE
00
FC
30
30
30
30
30
30
30
30
30
30
30
30
30
30
30
30
FC
ENDCHAR
STARTCHAR imacron
ENCODING 299
SWIDTH 291 0
DWIDTH 7 0
BBX 7 15 0 0
BITMAP
FE
00
18
78
18
18
18
18
18
18
18
18
18
18
7E
ENDCHAR
STARTCHAR Ibreve
ENCODING 300
SWIDTH 349 0
DWIDTH 9 0
BBX 8 23 0 0
BITMAP
81
C3
7E
3C
00
7E
18
18
18
18
18
18
18
18
18
18
18
18
18
18
18
18
7E
ENDCHAR
STARTCHAR ibreve
ENCODING 301
SWIDTH 291 0
DWIDTH 7 0
BBX 8 18 0 0
BITMAP
81
C3
7E
3C
00
18
78
18
18
18
18
18
18
18
18
18
18
7E
ENDCHAR
STARTCHAR Iogonek
ENCODING 302
SWIDTH 349 0
DWIDTH 9 0
BBX 6 24 1 -6
BITMAP
FC
30
30
30
30
30
30
30
30
30
30
30
30
30
30
30
30
FC
08
30
20
60
60
3C
ENDCHAR
STARTCHAR iogonek
ENCODING 303
SWIDTH 291 0
DWIDTH 7 0
BBX 6 24 1 -6
BITMAP
30
30
30
00
00
30
F0
30
30
30
30
30
30
30
30
30
30
FC
08
30
20
60
60
3C
ENDCHAR
STARTCHAR Idotaccent
ENCODING 304
SWIDTH 349 0
DWIDTH 9 0
BBX 6 22 1 0
BITMAP
38
38
10
00
FC
30
30
30
30
30
30
30
30
30
30
30
30
30
30
30
30
FC
ENDCHAR
STARTCHAR dotlessi
ENCODING 305
SWIDTH 291 0
DWIDTH 7 0
BBX 6 13 1 0
BITMAP
30
F0
30
30
30
30
30
30
30
30
30
30
FC
ENDCHAR
STARTCHAR IJ
ENCODING 306
SWIDTH 682 0
DWIDTH 18 0
BBX 16 20 1 -2
BITMAP
FC3F
300C
300C
300C
300C
300C
300C
300C
300C
300C
300C
300C
300C
300C
300C
300C
300C
FC1C
0018
0070
ENDCHAR
STARTCHAR ij
ENCODING 307
SWIDTH 556 0
DWIDTH 14 0
BBX 11 24 1 -6
BITMAP
30E0
30E0
30E0
0000
0000
3060
F1E0
3060
3060
3060
3060
3060
3060
3060
3060
3060
3060
FC60
0060
0060
0040
00C0
0180
0300
ENDCHAR
STARTCHAR Jcircumflex
ENCODING 308
SWIDTH 350 0
DWIDTH 9 0
BBX 8 25 1 -2
BITMAP
18
3C
66
81
00
7E
18
18
18
18
18
18
18
18
18
18
18
18
18
18
18
18
38
30
E0
ENDCHAR
STARTCHAR jcircumflex
ENCODING 309
SWIDTH 280 0
DWIDTH 7 0
BBX 8 24 -1 -6
BITMAP
18
3C
66
81
00
0C
3C
0C
0C
0C
0C
0C
0C
0C
0C
0C
0C
0C
0C
0C
08
18
30
60
ENDCHAR
STARTCHAR Kcommaaccent
ENCODING 310
SWIDTH 658 0
DWIDTH 16 0
BBX 16 26 1 -8
BITMAP
FC3F
3018
3030
3060
30C0
3180
3200
3400
3E00
3700
3780
33C0
31E0
30F0
3070
3038
301E
FC07
0000
0100
0380
0180
0100
0100
0200
0200
ENDCHAR
STARTCHAR kcommaaccent
ENCODING 311
SWIDTH 524 0
DWIDTH 13 0
BBX 13 27 1 -8
BITMAP
3000
F000
3000
3000
3000
3000
30F0
31C0
3180
3300
3600
3C00
3E00
3E00
3700
3380
31C0
30F0
FC38
0000
0200
0700
0300
0200
0200
0400
0400
ENDCHAR
STARTCHAR kgreenlandic
ENCODING 312
SWIDTH 524 0
DWIDTH 13 0
BBX 13 12 1 0
BITMAP
31C0
3180
3300
3600
3C00
3E00
3E00
3700
3380
31C0
30F0
FC38
ENDCHAR
STARTCHAR Lacute
ENCODING 313
SWIDTH 568 0
DWIDTH 14 0
BBX 13 24 1 0
BITMAP
0200
0700
0E00
1800
2000
0000
FC00
3000
3000
3000
3000
3000
3000
3000
3000
3000
3000
3000
3000
3008
3010
3010
3030
FFF0
ENDCHAR
STARTCHAR lacute
ENCODING 314
SWIDTH 279 0
DWIDTH 7 0
BBX 7 25 1 0
BITMAP
04
0E
1C
30
40
00
30
F0
30
30
30
30
30
30
30
30
30
30
30
30
30
30
30
30
FC
ENDCHAR
STARTCHAR Lcommaaccent
ENCODING 315
SWIDTH 568 0
DWIDTH 14 0
BBX 13 26 1 -8
BITMAP
FC00
3000
3000
3000
3000
3000
3000
3000
3000
3000
3000
3000
3000
3008
3010
3010
3030
FFF0
0000
0200
0700
0300
0200
0200
0400
0400
ENDCHAR
STARTCHAR lcommaaccent
ENCODING 316
SWIDTH 279 0
DWIDTH 7 0
BBX 6 27 1 -8
BITMAP
30
F0
30
30
30
30
30
30
30
30
30
30
30
30
30
30
30
30
FC
00
10
38
18
10
10
20
20
ENDCHAR
STARTCHAR Lcaron
ENCODING 317
SWIDTH 818 0
DWIDTH 20 0
BBX 17 19 1 0
BITMAP
000100
FC0180
300180
300180
300100
300100
300200
300000
300000
300000
300000
300000
300000
300000
300800
301000
301000
303000
FFF000
ENDCHAR
STARTCHAR lcaron
ENCODING 318
SWIDTH 543 0
DWIDTH 14 0
BBX 11 19 1 0
BITMAP
3040
F060
3060
3060
3040
3040
3080
3000
3000
3000
3000
3000
3000
3000
3000
3000
3000
3000
FC00
ENDCHAR
STARTCHAR Ldot
ENCODING 319
SWIDTH 805 0
DWIDTH 20 0
BBX 17 18 1 0
BITMAP
FC0000
300000
300000
300000
300000
300000
300000
300000
300000
300000
300380
300380
300380
300800
301000
301000
303000
FFF000
ENDCHAR
STARTCHAR ldot
ENCODING 320
SWIDTH 530 0
DWIDTH 14 0
BBX 11 19 1 0
BITMAP
3000
F000
3000
3000
3000
3000
3000
3000
3000
3000
3000
30E0
30E0
30E0
3000
3000
3000
3000
FC00
ENDCHAR
STARTCHAR Lslash
ENCODING 321
SWIDTH 574 0
DWIDTH 14 0
BBX 13 18 2 0
BITMAP
FC00
3000
3000
3000
3000
3200
3600
3C00
3800
7000
F000
B000
3000
3008
3010
3010
3030
FFF0
ENDCHAR
STARTCHAR lslash
ENCODING 322
SWIDTH 294 0
DWIDTH 7 0
BBX 7 19 0 0
BITMAP
18
78
18
18
18
18
1A
1E
1C
18
38
58
98
18
18
18
18
18
7E
ENDCHAR
STARTCHAR Nacute
ENCODING 323
SWIDTH 780 0
DWIDTH 19 0
BBX 18 24 1 0
BITMAP
002000
007000
00E000
018000
020000
000000
F80FC0
3C0380
3C0100
2E0100
2F0100
278100
238100
21C100
21E100
20E100
207100
203900
203D00
201D00
200F00
200700
700700
FC0300
ENDCHAR
STARTCHAR nacute
ENCODING 324
SWIDTH 619 0
DWIDTH 15 0
BBX 14 19 1 0
BITMAP
0080
01C0
0380
0600
0800
0000
33C0
FC60
3830
3030
3030
3030
3030
3030
3030
3030
3030
3030
FCFC
ENDCHAR
STARTCHAR Ncommaaccent
ENCODING 325
SWIDTH 780 0
DWIDTH 19 0
BBX 18 26 1 -8
BITMAP
F80FC0
3C0380
3C0100
2E0100
2F0100
278100
238100
21C100
21E100
20E100
207100
203900
203D00
201D00
200F00
200700
700700
FC0300
000000
004000
00E000
006000
004000
004000
008000
008000
ENDCHAR
STARTCHAR ncommaaccent
ENCODING 326
SWIDTH 619 0
DWIDTH 15 0
BBX 14 21 1 -8
BITMAP
33C0
FC60
3830
3030
3030
3030
3030
3030
3030
3030
3030
3030
FCFC
0000
0100
0380
0180
0100
0100
0200
0200
ENDCHAR
STARTCHAR Ncaron
ENCODING 327
SWIDTH 780 0
DWIDTH 19 0
BBX 18 23 1 0
BITMAP
0C3000
066000
03C000
018000
000000
F80FC0
3C0380
3C0100
2E0100
2F0100
278100
238100
21C100
21E100
20E100
207100
203900
203D00
201D00
200F00
200700
700700
FC0300
ENDCHAR
STARTCHAR ncaron
ENCODING 328
SWIDTH 619 0
DWIDTH 15 0
BBX 14 18 1 0
BITMAP
30C0
1980
0F00
0600
0000
33C0
FC60
3830
3030
3030
3030
3030
3030
3030
3030
3030
3030
FCFC
ENDCHAR
STARTCHAR napostrophe
ENCODING 329
SWIDTH 883 0
DWIDTH 22 0
BBX 20 19 2 0
BITMAP
400000
600000
600000
600000
400000
400000
80CF00
03F180
00E0C0
00C0C0
00C0C0
00C0C0
00C0C0
00C0C0
00C0C0
00C0C0
00C0C0
00C0C0
03F3F0
ENDCHAR
STARTCHAR Eng
ENCODING 330
SWIDTH 780 0
DWIDTH 19 0
BBX 18 24 1 -6
BITMAP
F80FC0
3C0380
3C0100
2E0100
2F0100
278100
238100
21C100
21E100
20E100
207100
203900
203D00
201F00
200F00
200700
700700
FC0300
000300
000300
000200
000600
000C00
001800
ENDCHAR
STARTCHAR eng
ENCODING 331
SWIDTH 619 0
DWIDTH 15 0
BBX 12 19 1 -6
BITMAP
33C0
FC60
3830
3030
3030
3030
3030
3030
3030
3030
3030
3030
FC30
0030
0030
0020
0060
00C0
0180
ENDCHAR
STARTCHAR Omacron
ENCODING 332
SWIDTH 762 0
DWIDTH 19 0
BBX 17 20 1 0
BITMAP
07F000
000000
03E000
0C1800
380E00
300600
700700
600300
E00380
E00380
E00380
E00380
E00380
E00380
600300
700700
300600
380E00
0C1800
03E000
ENDCHAR
STARTCHAR omacron
ENCODING 333
SWIDTH 577 0
DWIDTH 14 0
BBX 11 15 2 0
BITMAP
3F80
0000
1F00
3180
60C0
C060
C060
C060
C060
C060
C060
C060
60C0
3180
1F00
ENDCHAR
STARTCHAR Obreve
ENCODING 334
SWIDTH 762 0
DWIDTH 19 0
BBX 17 23 1 0
BITMAP
040800
061800
03F000
01E000
000000
03E000
0C1800
380E00
300600
700700
600300
E00380
E00380
E00380
E00380
E00380
E00380
600300
700700
300600
380E00
0C1800
03E000
ENDCHAR
STARTCHAR obreve
ENCODING 335
SWIDTH 577 0
DWIDTH 14 0
BBX 11 18 2 0
BITMAP
2040
30C0
1F80
0F00
0000
1F00
3180
60C0
C060
C060
C060
C060
C060
C060
C060
60C0
3180
1F00
ENDCHAR
STARTCHAR Ohungarumlaut
ENCODING 336
SWIDTH 762 0
DWIDTH 19 0
BBX 17 24 1 0
BITMAP
009800
019800
01B000
032000
022000
000000
03E000
0C1800
380E00
300600
700700
600300
E00380
E00380
E00380
E00380
E00380
E00380
600300
700700
300600
380E00
0C1800
03E000
ENDCHAR
STARTCHAR ohungarumlaut
ENCODING 337
SWIDTH 577 0
DWIDTH 14 0
BBX 11 19 2 0
BITMAP
04C0
0CC0
0D80
1900
1100
0000
1F00
3180
60C0
C060
C060
C060
C060
C060
C060
C060
60C0
3180
1F00
ENDCHAR
STARTCHAR OE
ENCODING 338
SWIDTH 1025 0
DWIDTH 26 0
BBX 24 18 1 0
BITMAP
01FFFE
0F0606
180606
380602
700600
700600
600600
E00604
E0060C
E007FC
E00604
E00604
E00600
700600
700601
380601
0E0603
03FFFF
ENDCHAR
STARTCHAR oe
ENCODING 339
SWIDTH 882 0
DWIDTH 22 0
BBX 19 13 2 0
BITMAP
1F0F00
3190C0
60F040
C06060
C06060
C07FE0
C06000
C06000
C06000
C06020
60F040
319840
1F0F80
ENDCHAR
STARTCHAR Racute
ENCODING 340
SWIDTH 644 0
DWIDTH 16 0
BBX 15 24 1 0
BITMAP
0040
00E0
01C0
0300
0400
0000
FFC0
3070
3030
3018
3018
3018
3010
3030
3060
3F80
3060
3030
3030
3030
3038
3018
3018
FC0E
ENDCHAR
STARTCHAR racute
ENCODING 341
SWIDTH 389 0
DWIDTH 10 0
BBX 9 19 1 0
BITMAP
0200
0700
0E00
1800
2000
0000
3380
FF00
3000
3000
3000
3000
3000
3000
3000
3000
3000
3000
FC00
ENDCHAR
STARTCHAR Rcommaaccent
ENCODING 342
SWIDTH 644 0
DWIDTH 16 0
BBX 15 26 1 -8
BITMAP
FFC0
3070
3030
3018
3018
3018
3010
3030
3060
3F80
3060
3030
3030
3030
3038
3018
3018
FC0E
0000
0100
0380
0180
0100
0100
0200
0200
ENDCHAR
STARTCHAR rcommaaccent
ENCODING 343
SWIDTH 389 0
DWIDTH 10 0
BBX 9 21 1 -8
BITMAP
3380
FF00
3000
3000
3000
3000
3000
3000
3000
3000
3000
3000
FC00
0000
1000
3800
1800
1000
1000
2000
2000
ENDCHAR
STARTCHAR Rcaron
ENCODING 344
SWIDTH 644 0
DWIDTH 16 0
BBX 15 23 1 0
BITMAP
1860
0CC0
0780
0300
0000
FFC0
3070
3030
3018
3018
3018
3010
3030
3060
3F80
3060
3030
3030
3030
3038
3018
3018
FC0E
ENDCHAR
STARTCHAR rcaron
ENCODING 345
SWIDTH 389 0
DWIDTH 10 0
BBX 9 18 1 0
BITMAP
C300
6600
3C00
1800
0000
3380
FF00
3000
3000
3000
3000
3000
3000
3000
3000
3000
3000
FC00
ENDCHAR
STARTCHAR Sacute
ENCODING 346
SWIDTH 541 0
DWIDTH 14 0
BBX 11 24 1 0
BITMAP
0080
01C0
0380
0600
0800
0000
0F80
30E0
2060
6020
6020
7000
7800
3E00
1F80
07C0
01C0
00E0
8060
8060
4060
4040
71C0
1F00
ENDCHAR
STARTCHAR sacute
ENCODING 347
SWIDTH 436 0
DWIDTH 11 0
BBX 9 19 1 0
BITMAP
0200
0700
0E00
1800
2000
0000
3C00
6300
C100
C100
E000
7C00
3F00
0F80
8380
8180
C180
C300
3E00
ENDCHAR
STARTCHAR Scircumflex
ENCODING 348
SWIDTH 541 0
DWIDTH 14 0
BBX 11 23 1 0
BITMAP
0600
0F00
1980
2040
0000
0F80
30E0
2060
6020
6020
7000
7800
3E00
1F80
07C0
01C0
00E0
8060
8060
4060
4040
71C0
1F00
ENDCHAR
STARTCHAR scircumflex
ENCODING 349
SWIDTH 436 0
DWIDTH 11 0
BBX 9 18 1 0
BITMAP
1800
3C00
6600
8100
0000
3C00
6300
C100
C100
E000
7C00
3F00
0F80
8380
8180
C180
C300
3E00
ENDCHAR
STARTCHAR Scedilla
ENCODING 350
SWIDTH 541 0
DWIDTH 14 0
BBX 11 24 1 -6
BITMAP
0F80
30E0
2060
6020
6020
7000
7800
3E00
1F80
07C0
01C0
00E0
8060
8060
4060
4040
71C0
1F00
0600
0E00
0300
0300
0300
0E00
ENDCHAR
STARTCHAR scedilla
ENCODING 351
SWIDTH 436 0
DWIDTH 11 0
BBX 9 19 1 -6
BITMAP
3C00
6300
C100
C100
E000
7C00
3F00
0F80
8380
8180
C180
C300
3E00
0C00
1C00
0600
0600
0600
1C00
ENDCHAR
STARTCHAR Scaron
ENCODING 352
SWIDTH 541 0
DWIDTH 14 0
BBX 11 22 1 0
BITMAP
2080
1180
0F00
0400
0F80
30E0
2060
6020
6020
7000
7800
3E00
1F80
07C0
01C0
00E0
0060
8060
4060
4040
70C0
1F00
ENDCHAR
STARTCHAR scaron
ENCODING 353
SWIDTH 436 0
DWIDTH 11 0
BBX 9 18 1 0
BITMAP
C100
2600
1C00
0800
0000
3C00
6300
C100
C100
E000
7C00
3F00
0F80
8380
8180
C180
C300
3E00
ENDCHAR
STARTCHAR Tcommaaccent
ENCODING 354
SWIDTH 621 0
DWIDTH 16 0
BBX 14 24 0 -6
BITMAP
FFFC
C30C
C30C
8304
0300
0300
0300
0300
0300
0300
0300
0300
0300
0300
0300
0300
0300
1FE0
0300
0700
0180
0180
0180
0700
ENDCHAR
STARTCHAR tcommaaccent
ENCODING 355
SWIDTH 344 0
DWIDTH 9 0
BBX 8 22 1 -6
BITMAP
10
10
30
FE
30
30
30
30
30
30
30
30
30
30
30
1F
18
38
0C
0C
0C
38
ENDCHAR
STARTCHAR Tcaron
ENCODING 356
SWIDTH 621 0
DWIDTH 16 0
BBX 14 23 0 0
BITMAP
1860
0CC0
0780
0300
0000
FFFC
C30C
C30C
8304
0300
0300
0300
0300
0300
0300
0300
0300
0300
0300
0300
0300
0300
1FE0
ENDCHAR
STARTCHAR tcaron
ENCODING 357
SWIDTH 605 0
DWIDTH 16 0
BBX 13 19 1 0
BITMAP
0010
0018
0018
1018
1010
3010
FE20
3000
3000
3000
3000
3000
3000
3000
3000
3000
3000
3000
1F00
ENDCHAR
STARTCHAR Tbar
ENCODING 358
SWIDTH 621 0
DWIDTH 16 0
BBX 14 18 0 0
BITMAP
FFFC
C30C
C30C
8304
0300
0300
0300
0300
0FC0
0300
0300
0300
0300
0300
0300
0300
0300
1FE0
ENDCHAR
STARTCHAR tbar
ENCODING 359
SWIDTH 344 0
DWIDTH 9 0
BBX 8 16 1 0
BITMAP
10
10
30
FE
30
30
30
30
30
7E
30
30
30
30
30
1F
ENDCHAR
STARTCHAR Utilde
ENCODING 360
SWIDTH 791 0
DWIDTH 20 0
BBX 18 22 1 0
BITMAP
018400
03F800
041000
000000
FE1FC0
300300
300300
300300
300300
300300
300300
300300
300300
300300
300300
300300
300300
300300
180600
180600
0E1C00
03F000
ENDCHAR
STARTCHAR utilde
ENCODING 361
SWIDTH 606 0
DWIDTH 15 0
BBX 14 17 1 0
BITMAP
0610
0FE0
1040
0000
3030
F0F0
3030
3030
3030
3030
3030
3030
3030
3030
3030
38F0
0F3C
ENDCHAR
STARTCHAR Umacron
ENCODING 362
SWIDTH 791 0
DWIDTH 20 0
BBX 18 20 1 0
BITMAP
03F800
000000
FE1FC0
300300
300300
300300
300300
300300
300300
300300
300300
300300
300300
300300
300300
300300
180600
180600
0E1C00
03F000
ENDCHAR
STARTCHAR umacron
ENCODING 363
SWIDTH 606 0
DWIDTH 15 0
BBX 14 15 1 0
BITMAP
1FC0
0000
3030
F0F0
3030
3030
3030
3030
3030
3030
3030
3030
3030
38F0
0F3C
ENDCHAR
STARTCHAR Ubreve
ENCODING 364
SWIDTH 791 0
DWIDTH 20 0
BBX 18 23 1 0
BITMAP
040800
061800
03F000
01E000
000000
FE1FC0
300300
300300
300300
300300
300300
300300
300300
300300
300300
300300
300300
300300
300300
180600
180600
0E1C00
03F000
ENDCHAR
STARTCHAR ubreve
ENCODING 365
SWIDTH 606 0
DWIDTH 15 0
BBX 14 18 1 0
BITMAP
1020
1860
0FC0
0780
0000
3030
F0F0
3030
3030
3030
3030
3030
3030
3030
3030
3030
38F0
0F3C
ENDCHAR
STARTCHAR Uring
ENCODING 366
SWIDTH 791 0
DWIDTH 20 0
BBX 18 24 1 0
BITMAP
00C000
012000
012000
012000
00C000
000000
FE1FC0
300300
300300
300300
300300
300300
300300
300300
300300
300300
300300
300300
300300
300300
180600
180600
0E1C00
03F000
ENDCHAR
STARTCHAR uring
ENCODING 367
SWIDTH 606 0
DWIDTH 15 0
BBX 14 19 1 0
BITMAP
0300
0480
0480
0480
0300
0000
3030
F0F0
3030
3030
3030
3030
3030
3030
3030
3030
3030
38F0
0F3C
ENDCHAR
STARTCHAR Uhungarumlaut
ENCODING 368
SWIDTH 791 0
DWIDTH 20 0
BBX 18 24 1 0
BITMAP
009800
019800
01B000
032000
022000
000000
FE1FC0
300300
300300
300300
300300
300300
300300
300300
300300
300300
300300
300300
300300
300300
180600
180600
0E1C00
03F000
ENDCHAR
STARTCHAR uhungarumlaut
ENCODING 369
SWIDTH 606 0
DWIDTH 15 0
BBX 14 19 1 0
BITMAP
0260
0660
06C0
0C80
0880
0000
3030
F0F0
3030
3030
3030
3030
3030
3030
3030
3030
3030
38F0
0F3C
ENDCHAR
STARTCHAR Uogonek
ENCODING 370
SWIDTH 791 0
DWIDTH 20 0
BBX 18 24 1 -6
BITMAP
FE1FC0
300300
300300
300300
300300
300300
300300
300300
300300
300300
300300
300300
300300
300300
180600
180600
0E1C00
03F000
002000
00C000
008000
018000
018000
00F000
ENDCHAR
STARTCHAR uogonek
ENCODING 371
SWIDTH 606 0
DWIDTH 15 0
BBX 14 19 1 -6
BITMAP
3030
F0F0
3030
3030
3030
3030
3030
3030
3030
3030
3030
38F0
0F3C
0080
0300
0200
0600
0600
03C0
ENDCHAR
STARTCHAR Wcircumflex
ENCODING 372
SWIDTH 940 0
DWIDTH 23 0
BBX 25 23 0 0
BITMAP
00180000
003C0000
00660000
00810000
00000000
FC001F80
70180600
301C0600
301C0400
381C0400
182E0C00
18260800
18260800
1C470800
0C431800
0C431000
0E439000
0E819000
0681A000
0681E000
0701E000
0700E000
0300C000
ENDCHAR
STARTCHAR wcircumflex
ENCODING 373
SWIDTH 768 0
DWIDTH 19 0
BBX 20 18 0 0
BITMAP
006000
00F000
019800
020400
000000
F801F0
706060
306040
30B0C0
30B080
189880
199880
191900
091D00
0D0D00
0F0D00
060E00
060600
ENDCHAR
STARTCHAR Ycircumflex
ENCODING 374
SWIDTH 588 0
DWIDTH 15 0
BBX 16 23 0 0
BITMAP
0180
03C0
0660
0810
0000
FE3F
380C
1808
1C18
0C10
0E30
0620
0760
0340
0340
0180
0180
0180
0180
0180
0180
0180
0FF0
ENDCHAR
STARTCHAR ycircumflex
ENCODING 375
SWIDTH 506 0
DWIDTH 13 0
BBX 13 24 0 -6
BITMAP
0600
0F00
1980
2040
0000
F8F8
7030
3020
3860
1840
1840
1CC0
0C80
0C80
0700
0700
0700
0200
0200
0200
0400
0400
3800
7000
ENDCHAR
STARTCHAR Ydieresis
ENCODING 376
SWIDTH 588 0
DWIDTH 15 0
BBX 16 21 0 0
BITMAP
0E70
0E70
0000
FC3F
380C
1808
1C18
0C10
0E30
0620
0760
0340
03C0
0180
0180
0180
0180
0180
0180
0180
0FF0
ENDCHAR
STARTCHAR Zacute
ENCODING 377
SWIDTH 610 0
DWIDTH 15 0
BBX 14 24 1 0
BITMAP
0020
0070
00E0
0180
0200
0000
7FFC
603C
4038
4070
00F0
00E0
01C0
03C0
0380
0700
0E00
0E00
1C00
3804
3804
7004
E00C
FFFC
ENDCHAR
STARTCHAR zacute
ENCODING 378
SWIDTH 480 0
DWIDTH 12 0
BBX 11 19 0 0
BITMAP
0080
01C0
0380
0600
0800
0000
7FE0
60E0
41C0
4380
0300
0700
0E00
1C00
1C00
3820
7020
7060
FFE0
ENDCHAR
STARTCHAR Zdotaccent
ENCODING 379
SWIDTH 610 0
DWIDTH 15 0
BBX 14 22 1 0
BITMAP
0380
0380
0100
0000
7FFC
603C
4038
4070
00F0
00E0
01C0
03C0
0380
0700
0E00
0E00
1C00
3804
3804
7004
E00C
FFFC
ENDCHAR
STARTCHAR zdotaccent
ENCODING 380
SWIDTH 480 0
DWIDTH 12 0
BBX 11 17 0 0
BITMAP
0E00
0E00
0400
0000
7FE0
60E0
41C0
4380
0300
0700
0E00
1C00
1C00
3820
7020
7060
FFE0
ENDCHAR
STARTCHAR Zcaron
ENCODING 381
SWIDTH 610 0
DWIDTH 15 0
BBX 14 22 1 0
BITMAP
1020
0CC0
0780
0300
7FFC
603C
4038
4070
00F0
00E0
01C0
03C0
0380
0700
0E00
0E00
1C00
3804
3804
7004
E00C
FFFC
ENDCHAR
STARTCHAR zcaron
ENCODING 382
SWIDTH 480 0
DWIDTH 12 0
BBX 11 18 0 0
BITMAP
2080
1900
0E00
0400
0000
7FE0
60E0
41C0
4380
0300
0700
0E00
1C00
1C00
3820
7020
7060
FFE0
ENDCHAR
STARTCHAR uni0186
ENCODING 390
SWIDTH 684 0
DWIDTH 17 0
BBX 15 18 1 0
BITMAP
3F80
E0E0
C038
8018
801C
000C
000E
000E
000E
000E
000E
000C
000C
801C
8018
C030
E0E0
3F00
ENDCHAR
STARTCHAR uni0189
ENCODING 393
SWIDTH 785 0
DWIDTH 20 0
BBX 18 18 1 0
BITMAP
7FF000
181C00
180F00
180300
180380
180380
1801C0
1801C0
1801C0
FF01C0
1801C0
1801C0
180180
180380
180300
180700
181C00
7FF000
ENDCHAR
STARTCHAR uni018E
ENCODING 398
SWIDTH 606 0
DWIDTH 15 0
BBX 13 18 1 0
BITMAP
FFF8
C060
8060
8060
0060
0060
2060
2060
3FE0
3060
2060
0060
0060
0060
8060
8060
C060
FFF8
ENDCHAR
STARTCHAR florin
ENCODING 402
SWIDTH 530 0
DWIDTH 13 0
BBX 13 21 0 -3
BITMAP
0070
0198
0198
0300
0300
0300
0300
0700
1FE0
0600
0600
0600
0600
0600
0E00
0C00
0C00
0C00
4C00
C800
7000
ENDCHAR
STARTCHAR uni0197
ENCODING 407
SWIDTH 349 0
DWIDTH 9 0
BBX 6 18 1 0
BITMAP
FC
30
30
30
30
30
30
30
FC
30
30
30
30
30
30
30
30
FC
ENDCHAR
STARTCHAR uni019A
ENCODING 410
SWIDTH 279 0
DWIDTH 7 0
BBX 6 19 1 0
BITMAP
30
F0
30
30
30
30
30
30
30
FC
30
30
30
30
30
30
30
30
FC
ENDCHAR
STARTCHAR uni019D
ENCODING 413
SWIDTH 780 0
DWIDTH 19 0
BBX 19 24 0 -6
BITMAP
7C07E0
1E01C0
1E0080
170080
178080
13C080
11C080
10E080
10F080
107080
103880
101C80
101E80
180E80
180780
180380
180380
180180
180000
180000
100000
300000
600000
C00000
ENDCHAR
STARTCHAR uni019F
ENCODING 415
SWIDTH 762 0
DWIDTH 19 0
BBX 17 18 1 0
BITMAP
03E000
0C1800
380E00
300600
700700
600300
E00380
E00380
FFFF80
E00380
E00380
E00380
600300
700700
300600
380E00
0C1800
03E000
ENDCHAR
STARTCHAR Ohorn
ENCODING 416
SWIDTH 762 0
DWIDTH 19 0
BBX 18 18 1 0
BITMAP
03E080
0C18C0
380EC0
3006C0
700780
600380
E00380
E00380
E00380
E00380
E00380
E00380
600300
700700
300600
380E00
0C1800
03E000
ENDCHAR
STARTCHAR ohorn
ENCODING 417
SWIDTH 577 0
DWIDTH 14 0
BBX 13 13 2 0
BITMAP
1F10
3198
60D8
C078
C070
C070
C060
C060
C060
C060
60C0
3180
1F00
ENDCHAR
STARTCHAR uni01A7
ENCODING 423
SWIDTH 541 0
DWIDTH 14 0
BBX 11 18 1 0
BITMAP
3E00
E180
C080
80C0
80C0
01C0
03C0
0F80
3F00
7C00
7000
E000
C020
C020
C040
4040
71C0
1F00
ENDCHAR
STARTCHAR uni01A8
ENCODING 424
SWIDTH 436 0
DWIDTH 11 0
BBX 9 13 1 0
BITMAP
1E00
6300
4180
4180
0380
1F00
7E00
F800
E080
C080
C180
6180
3E00
ENDCHAR
STARTCHAR uni01AE
ENCODING 430
SWIDTH 621 0
DWIDTH 16 0
BBX 14 24 0 -6
BITMAP
FFFC
C30C
C30C
8304
0300
0300
0300
0300
0300
0300
0300
0300
0300
0300
0300
0300
0300
0300
0300
0300
0100
0180
00C0
0060
ENDCHAR
STARTCHAR Uhorn
ENCODING 431
SWIDTH 791 0
DWIDTH 20 0
BBX 19 18 1 0
BITMAP
FE1FC0
300360
300360
300360
300340
300340
300380
300300
300300
300300
300300
300300
300300
300300
180600
180600
0E1C00
03F000
ENDCHAR
STARTCHAR uhorn
ENCODING 432
SWIDTH 606 0
DWIDTH 15 0
BBX 16 13 1 0
BITMAP
3032
F0F3
3033
3033
3032
3032
3034
3030
3030
3030
3030
38F0
0F3C
ENDCHAR
STARTCHAR uni01B5
ENCODING 437
SWIDTH 610 0
DWIDTH 15 0
BBX 14 18 1 0
BITMAP
7FFC
603C
4038
4070
00F0
00E0
01C0
03C0
0FC0
0700
0E00
0E00
1C00
3804
3804
7004
E00C
FFFC
ENDCHAR
STARTCHAR uni01B6
ENCODING 438
SWIDTH 480 0
DWIDTH 12 0
BBX 11 13 0 0
BITMAP
7FE0
60E0
41C0
4380
0300
0700
1F80
1C00
1C00
3820
7020
7060
FFE0
ENDCHAR
STARTCHAR uni01BB
ENCODING 443
SWIDTH 530 0
DWIDTH 13 0
BBX 12 17 0 0
BITMAP
0F80
38C0
7060
6060
2060
0060
0060
00C0
FFF0
0300
0600
0C00
1000
3010
6020
7FE0
FFE0
ENDCHAR
STARTCHAR uni01BC
ENCODING 444
SWIDTH 530 0
DWIDTH 13 0
BBX 11 17 1 0
BITMAP
7FC0
7FC0
4000
4000
4000
4000
5F00
61C0
40C0
0060
0060
0060
0060
C060
C0C0
6180
3F00
ENDCHAR
STARTCHAR uni01C0
ENCODING 448
SWIDTH 228 0
DWIDTH 6 0
BBX 2 18 2 0
BITMAP
C0
C0
C0
C0
C0
C0
C0
C0
C0
C0
C0
C0
C0
C0
C0
C0
C0
C0
ENDCHAR
STARTCHAR uni01C2
ENCODING 450
SWIDTH 570 0
DWIDTH 14 0
BBX 12 18 1 -3
BITMAP
0600
0600
0600
0600
0600
0600
FFF0
0600
0600
0600
0600
FFF0
0600
0600
0600
0600
0600
0600
ENDCHAR
STARTCHAR uni01C3
ENCODING 451
SWIDTH 242 0
DWIDTH 6 0
BBX 3 18 2 0
BITMAP
E0
E0
E0
E0
E0
40
40
40
40
40
40
40
00
00
00
E0
E0
E0
ENDCHAR
STARTCHAR uni01CD
ENCODING 461
SWIDTH 635 0
DWIDTH 16 0
BBX 17 23 -1 0
BITMAP
061800
033000
01E000
00C000
000000
00C000
01C000
01C000
02E000
026000
026000
067000
043000
043000
0C3800
0FF800
081800
181C00
100C00
100C00
300E00
300E00
FC1F80
ENDCHAR
STARTCHAR uni01CE
ENCODING 462
SWIDTH 523 0
DWIDTH 13 0
BBX 12 18 1 0
BITMAP
30C0
1980
0F00
0600
0000
0F00
3180
60C0
60C0
00C0
03C0
1CC0
60C0
C0C0
C0C0
C0C0
61C0
7EF0
ENDCHAR
STARTCHAR uni01CF
ENCODING 463
SWIDTH 349 0
DWIDTH 9 0
BBX 8 23 0 0
BITMAP
C3
66
3C
18
00
7E
18
18
18
18
18
18
18
18
18
18
18
18
18
18
18
18
7E
ENDCHAR
STARTCHAR uni01D0
ENCODING 464
SWIDTH 291 0
DWIDTH 7 0
BBX 8 18 0 0
BITMAP
C3
66
3C
18
00
18
78
18
18
18
18
18
18
18
18
18
18
7E
ENDCHAR
STARTCHAR uni01D1
ENCODING 465
SWIDTH 762 0
DWIDTH 19 0
BBX 17 23 1 0
BITMAP
061800
033000
01E000
00C000
000000
03E000
0C1800
380E00
300600
700700
600300
E00380
E00380
E00380
E00380
E00380
E00380
600300
700700
300600
380E00
0C1800
03E000
ENDCHAR
STARTCHAR uni01D2
ENCODING 466
SWIDTH 577 0
DWIDTH 14 0
BBX 11 18 2 0
BITMAP
30C0
1980
0F00
0600
0000
1F00
3180
60C0
C060
C060
C060
C060
C060
C060
C060
60C0
3180
1F00
ENDCHAR
STARTCHAR uni01D3
ENCODING 467
SWIDTH 791 0
DWIDTH 20 0
BBX 18 23 1 0
BITMAP
061800
033000
01E000
00C000
000000
FE1FC0
300300
300300
300300
300300
300300
300300
300300
300300
300300
300300
300300
300300
300300
180600
180600
0E1C00
03F000
ENDCHAR
STARTCHAR uni01D4
ENCODING 468
SWIDTH 606 0
DWIDTH 15 0
BBX 14 18 1 0
BITMAP
1860
0CC0
0780
0300
0000
3030
F0F0
3030
3030
3030
3030
3030
3030
3030
3030
3030
38F0
0F3C
ENDCHAR
STARTCHAR uni01D5
ENCODING 469
SWIDTH 791 0
DWIDTH 20 0
BBX 18 23 1 0
BITMAP
03F800
000000
073800
073800
000000
FE1FC0
300300
300300
300300
300300
300300
300300
300300
300300
300300
300300
300300
300300
300300
180600
180600
0E1C00
03F000
ENDCHAR
STARTCHAR uni01D6
ENCODING 470
SWIDTH 606 0
DWIDTH 15 0
BBX 14 19 1 0
BITMAP
1FC0
0000
38E0
38E0
1040
0000
3030
F0F0
3030
3030
3030
3030
3030
3030
3030
3030
3030
38F0
0F3C
ENDCHAR
STARTCHAR uni01D7
ENCODING 471
SWIDTH 791 0
DWIDTH 20 0
BBX 18 27 1 0
BITMAP
001000
003800
007000
00C000
010000
000000
073800
073800
000000
FE1FC0
300300
300300
300300
300300
300300
300300
300300
300300
300300
300300
300300
300300
300300
180600
180600
0E1C00
03F000
ENDCHAR
STARTCHAR uni01D8
ENCODING 472
SWIDTH 606 0
DWIDTH 15 0
BBX 14 23 1 0
BITMAP
0040
00E0
01C0
0300
0400
0000
38E0
38E0
1040
0000
3030
F0F0
3030
3030
3030
3030
3030
3030
3030
3030
3030
38F0
0F3C
ENDCHAR
STARTCHAR uni01D9
ENCODING 473
SWIDTH 791 0
DWIDTH 20 0
BBX 18 26 1 0
BITMAP
061800
033000
01E000
00C000
000000
073800
073800
000000
FE1FC0
300300
300300
300300
300300
300300
300300
300300
300300
300300
300300
300300
300300
300300
180600
180600
0E1C00
03F000
ENDCHAR
STARTCHAR uni01DA
ENCODING 474
SWIDTH 606 0
DWIDTH 15 0
BBX 14 22 1 0
BITMAP
1860
0CC0
0780
0300
0000
38E0
38E0
1040
0000
3030
F0F0
3030
3030
3030
3030
3030
3030
3030
3030
3030
38F0
0F3C
ENDCHAR
STARTCHAR uni01DB
ENCODING 475
SWIDTH 791 0
DWIDTH 20 0
BBX 18 27 1 0
BITMAP
020000
070000
038000
00C000
002000
000000
073800
073800
000000
FE1FC0
300300
300300
300300
300300
300300
300300
300300
300300
300300
300300
300300
300300
300300
180600
180600
0E1C00
03F000
ENDCHAR
STARTCHAR uni01DC
ENCODING 476
SWIDTH 606 0
DWIDTH 15 0
BBX 14 23 1 0
BITMAP
0800
1C00
0E00
0300
0080
0000
38E0
38E0
1040
0000
3030
F0F0
3030
3030
3030
3030
3030
3030
3030
3030
3030
38F0
0F3C
ENDCHAR
STARTCHAR uni01DD
ENCODING 477
SWIDTH 514 0
DWIDTH 13 0
BBX 10 13 2 0
BITMAP
3E00
4380
8180
80C0
00C0
00C0
00C0
FFC0
C0C0
C080
4180
6100
1E00
ENDCHAR
STARTCHAR uni01DE
ENCODING 478
SWIDTH 635 0
DWIDTH 16 0
BBX 16 23 0 0
BITMAP
07F0
0000
0E70
0E70
0000
0180
0180
02C0
02C0
02C0
04E0
0460
0C60
0870
0830
0FF0
1038
1018
1018
201C
200C
600E
F83F
ENDCHAR
STARTCHAR uni01DF
ENCODING 479
SWIDTH 523 0
DWIDTH 13 0
BBX 12 19 1 0
BITMAP
3F80
0000
71C0
71C0
2080
0000
0F00
3180
60C0
60C0
00C0
03C0
1CC0
60C0
C0C0
C0C0
C0C0
61C0
7EF0
ENDCHAR
STARTCHAR uni01E0
ENCODING 480
SWIDTH 635 0
DWIDTH 16 0
BBX 17 24 -1 0
BITMAP
07F000
000000
01C000
01C000
008000
000000
00C000
01C000
01C000
02E000
026000
026000
067000
043000
043000
0C3800
0FF800
081800
181C00
100C00
100C00
300E00
300E00
FC1F80
ENDCHAR
STARTCHAR uni01E1
ENCODING 481
SWIDTH 523 0
DWIDTH 13 0
BBX 12 19 1 0
BITMAP
3F80
0000
0E00
0E00
0400
0000
0F00
3180
60C0
60C0
00C0
03C0
1CC0
60C0
C0C0
C0C0
C0C0
61C0
7EF0
ENDCHAR
STARTCHAR uni01E2
ENCODING 482
SWIDTH 876 0
DWIDTH 22 0
BBX 23 20 -2 0
BITMAP
003F80
000000
00FFFC
003C0C
002C0C
006C04
00CC00
00CC00
018C00
018C08
030C18
03FFF8
060C08
060C08
0C0C00
0C0C00
180C02
100C02
300C06
FC3FFE
ENDCHAR
STARTCHAR uni01E3
ENCODING 483
SWIDTH 797 0
DWIDTH 20 0
BBX 18 15 1 0
BITMAP
07F000
000000
1F1E00
31A180
60E080
60C0C0
00C0C0
07FFC0
38C000
60C000
C0C000
C0C040
C0E040
637080
3C3F00
ENDCHAR
STARTCHAR uni01E4
ENCODING 484
SWIDTH 734 0
DWIDTH 18 0
BBX 17 18 1 0
BITMAP
01F000
0E0E00
180600
300200
700200
700000
E00000
E00000
E00000
E00000
E03F80
600600
600600
700600
301F80
380600
0E0600
03F800
ENDCHAR
STARTCHAR uni01E5
ENCODING 485
SWIDTH 520 0
DWIDTH 13 0
BBX 12 19 1 -6
BITMAP
1E30
31E0
6080
60C0
60C0
60C0
30C0
3180
1F00
2000
6000
7FC0
1FE0
6070
FFF0
C030
C020
70E0
1F00
ENDCHAR
STARTCHAR Gcaron
ENCODING 486
SWIDTH 734 0
DWIDTH 18 0
BBX 17 23 1 0
BITMAP
0C3000
066000
03C000
018000
000000
01F000
0E0E00
180600
300200
700200
700000
E00000
E00000
E00000
E00000
E03F80
600600
600600
700600
300600
380600
0E0600
03F800
ENDCHAR
STARTCHAR gcaron
ENCODING 487
SWIDTH 520 0
DWIDTH 13 0
BBX 12 24 1 -6
BITMAP
30C0
1980
0F00
0600
0000
1E30
31E0
6080
60C0
60C0
60C0
30C0
3180
1F00
2000
6000
7FC0
1FE0
6070
C030
C030
C020
70E0
1F00
ENDCHAR
STARTCHAR uni01E8
ENCODING 488
SWIDTH 658 0
DWIDTH 16 0
BBX 16 23 1 0
BITMAP
0C30
0660
03C0
0180
0000
FC3F
3018
3030
3060
30C0
3180
3200
3400
3E00
3700
3780
33C0
31E0
30F0
3070
3038
301E
FC07
ENDCHAR
STARTCHAR uni01E9
ENCODING 489
SWIDTH 524 0
DWIDTH 13 0
BBX 13 24 1 0
BITMAP
C300
6600
3C00
1800
0000
3000
F000
3000
3000
3000
3000
30F0
31C0
3180
3300
3600
3C00
3E00
3E00
3700
3380
31C0
30F0
FC38
ENDCHAR
STARTCHAR uni01EA
ENCODING 490
SWIDTH 762 0
DWIDTH 19 0
BBX 17 24 1 -6
BITMAP
03E000
0C1800
380E00
300600
700700
600300
E00380
E00380
E00380
E00380
E00380
E00380
600300
700700
300600
380E00
0C1800
03E000
004000
018000
010000
030000
030000
01E000
ENDCHAR
STARTCHAR uni01EB
ENCODING 491
SWIDTH 577 0
DWIDTH 14 0
BBX 11 19 2 -6
BITMAP
1F00
3180
60C0
C060
C060
C060
C060
C060
C060
C060
60C0
3180
1F00
0200
0C00
0800
1800
1800
0F00
ENDCHAR
STARTCHAR uni01EC
ENCODING 492
SWIDTH 762 0
DWIDTH 19 0
BBX 17 26 1 -6
BITMAP
07F000
000000
03E000
0C1800
380E00
300600
700700
600300
E00380
E00380
E00380
E00380
E00380
E00380
600300
700700
300600
380E00
0C1800
03E000
004000
018000
010000
030000
030000
01E000
ENDCHAR
STARTCHAR uni01ED
ENCODING 493
SWIDTH 577 0
DWIDTH 14 0
BBX 11 21 2 -6
BITMAP
3F80
0000
1F00
3180
60C0
C060
C060
C060
C060
C060
C060
C060
60C0
3180
1F00
0200
0C00
0800
1800
1800
0F00
ENDCHAR
STARTCHAR uni01F0
ENCODING 496
SWIDTH 280 0
DWIDTH 7 0
BBX 8 24 -1 -6
BITMAP
C3
66
3C
18
00
0C
3C
0C
0C
0C
0C
0C
0C
0C
0C
0C
0C
0C
0C
0C
08
18
30
60
ENDCHAR
STARTCHAR uni01F4
ENCODING 500
SWIDTH 734 0
DWIDTH 18 0
BBX 17 24 1 0
BITMAP
002000
007000
00E000
018000
020000
000000
01F000
0E0E00
180600
300200
700200
700000
E00000
E00000
E00000
E00000
E03F80
600600
600600
700600
300600
380600
0E0600
03F800
ENDCHAR
STARTCHAR uni01F5
ENCODING 501
SWIDTH 520 0
DWIDTH 13 0
BBX 12 25 1 -6
BITMAP
0080
01C0
0380
0600
0800
0000
1E30
31E0
6080
60C0
60C0
60C0
30C0
3180
1F00
2000
6000
7FC0
1FE0
6070
C030
C030
C020
70E0
1F00
ENDCHAR
STARTCHAR uni01F8
ENCODING 504
SWIDTH 780 0
DWIDTH 19 0
BBX 18 24 1 0
BITMAP
040000
0E0000
070000
018000
004000
000000
F80FC0
3C0380
3C0100
2E0100
2F0100
278100
238100
21C100
21E100
20E100
207100
203900
203D00
201D00
200F00
200700
700700
FC0300
ENDCHAR
STARTCHAR uni01F9
ENCODING 505
SWIDTH 619 0
DWIDTH 15 0
BBX 14 19 1 0
BITMAP
1000
3800
1C00
0600
0100
0000
33C0
FC60
3830
3030
3030
3030
3030
3030
3030
3030
3030
3030
FCFC
ENDCHAR
STARTCHAR Aringacute
ENCODING 506
SWIDTH 627 0
DWIDTH 16 0
BBX 17 28 -1 0
BITMAP
001000
003800
007000
00C000
010000
000000
01C000
022000
022000
022000
01C000
01C000
01C000
02E000
02E000
026000
047000
047000
043800
0C3800
0FF800
181C00
101C00
100C00
300E00
200600
600700
FC1F80
ENDCHAR
STARTCHAR aringacute
ENCODING 507
SWIDTH 523 0
DWIDTH 13 0
BBX 12 25 1 0
BITMAP
0080
01C0
0380
0600
0800
0000
0E00
1100
1100
1100
0E00
0000
0F00
3180
60C0
60C0
00C0
03C0
1CC0
60C0
C0C0
C0C0
C0C0
61C0
7EF0
ENDCHAR
STARTCHAR AEacute
ENCODING 508
SWIDTH 876 0
DWIDTH 22 0
BBX 23 24 -2 0
BITMAP
000100
000380
000700
000C00
001000
000000
00FFFC
003C0C
002C0C
006C04
00CC00
00CC00
018C00
018C08
030C18
03FFF8
060C08
060C08
0C0C00
0C0C00
180C02
100C02
300C06
FC3FFE
ENDCHAR
STARTCHAR aeacute
ENCODING 509
SWIDTH 797 0
DWIDTH 20 0
BBX 18 19 1 0
BITMAP
001000
003800
007000
00C000
010000
000000
1F1E00
31A180
60E080
60C0C0
00C0C0
07FFC0
38C000
60C000
C0C000
C0C040
C0E040
637080
3C3F00
ENDCHAR
STARTCHAR Oslashacute
ENCODING 510
SWIDTH 762 0
DWIDTH 19 0
BBX 17 26 1 -1
BITMAP
001000
003800
007000
00C000
010000
000000
000200
03E600
0C1C00
380E00
301E00
701700
602300
E06380
E04380
E08380
E08380
E10380
E20380
620300
740700
380600
380E00
1C1800
33E000
200000
ENDCHAR
STARTCHAR oslashacute
ENCODING 511
SWIDTH 577 0
DWIDTH 14 0
BBX 12 21 1 -1
BITMAP
0080
01C0
0380
0600
0800
0000
0020
1F20
30C0
60E0
C1F0
C130
C230
C630
CC30
C830
F020
7060
70C0
4F80
4000
ENDCHAR
STARTCHAR uni0200
ENCODING 512
SWIDTH 635 0
DWIDTH 16 0
BBX 17 24 -1 0
BITMAP
0C8000
0CC000
06C000
026000
022000
000000
00C000
01C000
01C000
02E000
026000
026000
067000
043000
043000
0C3800
0FF800
081800
181C00
100C00
100C00
300E00
300E00
FC1F80
ENDCHAR
STARTCHAR uni0201
ENCODING 513
SWIDTH 523 0
DWIDTH 13 0
BBX 12 19 1 0
BITMAP
6400
6600
3600
1300
1100
0000
0F00
3180
60C0
60C0
00C0
03C0
1CC0
60C0
C0C0
C0C0
C0C0
61C0
7EF0
ENDCHAR
STARTCHAR uni0202
ENCODING 514
SWIDTH 635 0
DWIDTH 16 0
BBX 17 23 -1 0
BITMAP
01E000
03F000
061800
040800
000000
00C000
01C000
01C000
02E000
026000
026000
067000
043000
043000
0C3800
0FF800
081800
181C00
100C00
100C00
300E00
300E00
FC1F80
ENDCHAR
STARTCHAR uni0203
ENCODING 515
SWIDTH 523 0
DWIDTH 13 0
BBX 12 18 1 0
BITMAP
0F00
1F80
30C0
2040
0000
0F00
3180
60C0
60C0
00C0
03C0
1CC0
60C0
C0C0
C0C0
C0C0
61C0
7EF0
ENDCHAR
STARTCHAR uni0204
ENCODING 516
SWIDTH 606 0
DWIDTH 15 0
BBX 13 24 1 0
BITMAP
3200
3300
1B00
0980
0880
0000
FFF8
3018
3008
3008
3000
3000
3000
3020
3060
3FE0
3020
3020
3000
3000
3008
3008
3018
FFF8
ENDCHAR
STARTCHAR uni0205
ENCODING 517
SWIDTH 514 0
DWIDTH 13 0
BBX 10 19 2 0
BITMAP
6400
6600
3600
1300
1100
0000
1E00
2180
6080
40C0
C0C0
FFC0
C000
C000
C000
C040
6040
7080
1F00
ENDCHAR
STARTCHAR uni0206
ENCODING 518
SWIDTH 606 0
DWIDTH 15 0
BBX 13 23 1 0
BITMAP
0F00
1F80
30C0
2040
0000
FFF8
3018
3008
3008
3000
3000
3000
3020
3060
3FE0
3020
3020
3000
3000
3008
3008
3018
FFF8
ENDCHAR
STARTCHAR uni0207
ENCODING 519
SWIDTH 514 0
DWIDTH 13 0
BBX 10 18 2 0
BITMAP
1E00
3F00
6180
4080
0000
1E00
2180
6080
40C0
C0C0
FFC0
C000
C000
C000
C040
6040
7080
1F00
ENDCHAR
STARTCHAR uni0208
ENCODING 520
SWIDTH 349 0
DWIDTH 9 0
BBX 7 24 0 0
BITMAP
C8
CC
6C
26
22
00
7E
18
18
18
18
18
18
18
18
18
18
18
18
18
18
18
18
7E
ENDCHAR
STARTCHAR uni0209
ENCODING 521
SWIDTH 291 0
DWIDTH 7 0
BBX 8 19 -1 0
BITMAP
C8
CC
6C
26
22
00
0C
3C
0C
0C
0C
0C
0C
0C
0C
0C
0C
0C
3F
ENDCHAR
STARTCHAR uni020A
ENCODING 522
SWIDTH 349 0
DWIDTH 9 0
BBX 8 23 0 0
BITMAP
3C
7E
C3
81
00
7E
18
18
18
18
18
18
18
18
18
18
18
18
18
18
18
18
7E
ENDCHAR
STARTCHAR uni020B
ENCODING 523
SWIDTH 291 0
DWIDTH 7 0
BBX 8 18 0 0
BITMAP
3C
7E
C3
81
00
18
78
18
18
18
18
18
18
18
18
18
18
7E
ENDCHAR
STARTCHAR uni020C
ENCODING 524
SWIDTH 762 0
DWIDTH 19 0
BBX 17 24 1 0
BITMAP
0C8000
0CC000
06C000
026000
022000
000000
03E000
0C1800
380E00
300600
700700
600300
E00380
E00380
E00380
E00380
E00380
E00380
600300
700700
300600
380E00
0C1800
03E000
ENDCHAR
STARTCHAR uni020D
ENCODING 525
SWIDTH 577 0
DWIDTH 14 0
BBX 11 19 2 0
BITMAP
6400
6600
3600
1300
1100
0000
1F00
3180
60C0
C060
C060
C060
C060
C060
C060
C060
60C0
3180
1F00
ENDCHAR
STARTCHAR uni020E
ENCODING 526
SWIDTH 762 0
DWIDTH 19 0
BBX 17 23 1 0
BITMAP
01E000
03F000
061800
040800
000000
03E000
0C1800
380E00
300600
700700
600300
E00380
E00380
E00380
E00380
E00380
E00380
600300
700700
300600
380E00
0C1800
03E000
ENDCHAR
STARTCHAR uni020F
ENCODING 527
SWIDTH 577 0
DWIDTH 14 0
BBX 11 18 2 0
BITMAP
0F00
1F80
30C0
2040
0000
1F00
3180
60C0
C060
C060
C060
C060
C060
C060
C060
60C0
3180
1F00
ENDCHAR
STARTCHAR uni0210
ENCODING 528
SWIDTH 644 0
DWIDTH 16 0
BBX 15 24 1 0
BITMAP
1900
1980
0D80
04C0
0440
0000
FFC0
3070
3030
3018
3018
3018
3010
3030
3060
3F80
3060
3030
3030
3030
3038
3018
3018
FC0E
ENDCHAR
STARTCHAR uni0211
ENCODING 529
SWIDTH 389 0
DWIDTH 10 0
BBX 9 19 1 0
BITMAP
C800
CC00
6C00
2600
2200
0000
3380
FF00
3000
3000
3000
3000
3000
3000
3000
3000
3000
3000
FC00
ENDCHAR
STARTCHAR uni0212
ENCODING 530
SWIDTH 644 0
DWIDTH 16 0
BBX 15 23 1 0
BITMAP
0780
0FC0
1860
1020
0000
FFC0
3070
3030
3018
3018
3018
3010
3030
3060
3F80
3060
3030
3030
3030
3038
3018
3018
FC0E
ENDCHAR
STARTCHAR uni0213
ENCODING 531
SWIDTH 389 0
DWIDTH 10 0
BBX 9 18 1 0
BITMAP
3C00
7E00
C300
8100
0000
3380
FF00
3000
3000
3000
3000
3000
3000
3000
3000
3000
3000
FC00
ENDCHAR
STARTCHAR uni0214
ENCODING 532
SWIDTH 791 0
DWIDTH 20 0
BBX 18 24 1 0
BITMAP
064000
066000
036000
013000
011000
000000
FE1FC0
300300
300300
300300
300300
300300
300300
300300
300300
300300
300300
300300
300300
300300
180600
180600
0E1C00
03F000
ENDCHAR
STARTCHAR uni0215
ENCODING 533
SWIDTH 606 0
DWIDTH 15 0
BBX 14 19 1 0
BITMAP
3200
3300
1B00
0980
0880
0000
3030
F0F0
3030
3030
3030
3030
3030
3030
3030
3030
3030
38F0
0F3C
ENDCHAR
STARTCHAR uni0216
ENCODING 534
SWIDTH 791 0
DWIDTH 20 0
BBX 18 23 1 0
BITMAP
01E000
03F000
061800
040800
000000
FE1FC0
300300
300300
300300
300300
300300
300300
300300
300300
300300
300300
300300
300300
300300
180600
180600
0E1C00
03F000
ENDCHAR
STARTCHAR uni0217
ENCODING 535
SWIDTH 606 0
DWIDTH 15 0
BBX 14 18 1 0
BITMAP
0780
0FC0
1860
1020
0000
3030
F0F0
3030
3030
3030
3030
3030
3030
3030
3030
3030
38F0
0F3C
ENDCHAR
STARTCHAR Scommaaccent
ENCODING 536
SWIDTH 541 0
DWIDTH 14 0
BBX 11 26 1 -8
BITMAP
0F80
30E0
2060
6020
6020
7000
7800
3E00
1F80
07C0
01C0
00E0
8060
8060
4060
4040
71C0
1F00
0000
0400
0E00
0600
0400
0400
0800
0800
ENDCHAR
STARTCHAR scommaaccent
ENCODING 537
SWIDTH 436 0
DWIDTH 11 0
BBX 9 21 1 -8
BITMAP
3C00
6300
C100
C100
E000
7C00
3F00
0F80
8380
8180
C180
C300
3E00
0000
0800
1C00
0C00
0800
0800
1000
1000
ENDCHAR
STARTCHAR Tcommaaccent
ENCODING 538
SWIDTH 621 0
DWIDTH 16 0
BBX 14 26 0 -8
BITMAP
FFFC
C30C
C30C
8304
0300
0300
0300
0300
0300
0300
0300
0300
0300
0300
0300
0300
0300
1FE0
0000
0100
0380
0180
0100
0100
0200
0200
ENDCHAR
STARTCHAR tcommaaccent
ENCODING 539
SWIDTH 344 0
DWIDTH 9 0
BBX 8 24 1 -8
BITMAP
10
10
30
FE
30
30
30
30
30
30
30
30
30
30
30
1F
00
10
38
18
10
10
20
20
ENDCHAR
STARTCHAR uni021E
ENCODING 542
SWIDTH 798 0
DWIDTH 20 0
BBX 18 23 1 0
BITMAP
061800
033000
01E000
00C000
000000
FE1FC0
300300
300300
300300
300300
300300
300300
300300
300300
3FFF00
300300
300300
300300
300300
300300
300300
300300
FE1FC0
ENDCHAR
STARTCHAR uni021F
ENCODING 543
SWIDTH 607 0
DWIDTH 15 0
BBX 14 24 1 0
BITMAP
C300
6600
3C00
1800
0000
3000
F000
3000
3000
3000
3000
33C0
3C60
3830
3030
3030
3030
3030
3030
3030
3030
3030
3030
FCFC
ENDCHAR
STARTCHAR uni0226
ENCODING 550
SWIDTH 635 0
DWIDTH 16 0
BBX 17 22 -1 0
BITMAP
01C000
01C000
008000
000000
00C000
01C000
01C000
02E000
026000
026000
067000
043000
043000
0C3800
0FF800
081800
181C00
100C00
100C00
300E00
300E00
FC1F80
ENDCHAR
STARTCHAR uni0227
ENCODING 551
SWIDTH 523 0
DWIDTH 13 0
BBX 12 17 1 0
BITMAP
0E00
0E00
0400
0000
0F00
3180
60C0
60C0
00C0
03C0
1CC0
60C0
C0C0
C0C0
C0C0
61C0
7EF0
ENDCHAR
STARTCHAR uni0228
ENCODING 552
SWIDTH 606 0
DWIDTH 15 0
BBX 13 24 1 -6
BITMAP
FFF8
3018
3008
3008
3000
3000
3000
3020
3060
3FE0
3020
3020
3000
3000
3008
3008
3018
FFF8
0300
0700
0180
0180
0180
0700
ENDCHAR
STARTCHAR uni0229
ENCODING 553
SWIDTH 514 0
DWIDTH 13 0
BBX 10 19 2 -6
BITMAP
1E00
2180
6080
40C0
C0C0
FFC0
C000
C000
C000
C040
6040
7080
1F00
0C00
1C00
0600
0600
0600
1C00
ENDCHAR
STARTCHAR uni022A
ENCODING 554
SWIDTH 762 0
DWIDTH 19 0
BBX 17 23 1 0
BITMAP
07F000
000000
0E3800
0E3800
000000
03E000
0C1800
380E00
300600
700700
600300
E00380
E00380
E00380
E00380
E00380
E00380
600300
700700
300600
380E00
0C1800
03E000
ENDCHAR
STARTCHAR uni022B
ENCODING 555
SWIDTH 577 0
DWIDTH 14 0
BBX 11 19 2 0
BITMAP
3F80
0000
7380
7380
2100
0000
1F00
3180
60C0
C060
C060
C060
C060
C060
C060
C060
60C0
3180
1F00
ENDCHAR
STARTCHAR uni022C
ENCODING 556
SWIDTH 762 0
DWIDTH 19 0
BBX 17 23 1 0
BITMAP
07F000
000000
078800
087000
000000
03E000
0C1800
380E00
300600
700700
600300
E00380
E00380
E00380
E00380
E00380
E00380
600300
700700
300600
380E00
0C1800
03E000
ENDCHAR
STARTCHAR uni022D
ENCODING 557
SWIDTH 577 0
DWIDTH 14 0
BBX 11 19 2 0
BITMAP
3F80
0000
3C40
4380
0000
0000
1F00
3180
60C0
C060
C060
C060
C060
C060
C060
C060
60C0
3180
1F00
ENDCHAR
STARTCHAR uni022E
ENCODING 558
SWIDTH 762 0
DWIDTH 19 0
BBX 17 22 1 0
BITMAP
01C000
01C000
008000
000000
03E000
0C1800
380E00
300600
700700
600300
E00380
E00380
E00380
E00380
E00380
E00380
600300
700700
300600
380E00
0C1800
03E000
ENDCHAR
STARTCHAR uni022F
ENCODING 559
SWIDTH 577 0
DWIDTH 14 0
BBX 11 17 2 0
BITMAP
0E00
0E00
0400
0000
1F00
3180
60C0
C060
C060
C060
C060
C060
C060
C060
60C0
3180
1F00
ENDCHAR
STARTCHAR uni0230
ENCODING 560
SWIDTH 762 0
DWIDTH 19 0
BBX 17 24 1 0
BITMAP
07F000
000000
01C000
01C000
008000
000000
03E000
0C1800
380E00
300600
700700
600300
E00380
E00380
E00380
E00380
E00380
E00380
600300
700700
300600
380E00
0C1800
03E000
ENDCHAR
STARTCHAR uni0231
ENCODING 561
SWIDTH 577 0
DWIDTH 14 0
BBX 11 19 2 0
BITMAP
3F80
0000
0E00
0E00
0400
0000
1F00
3180
60C0
C060
C060
C060
C060
C060
C060
C060
60C0
3180
1F00
ENDCHAR
STARTCHAR uni0232
ENCODING 562
SWIDTH 588 0
DWIDTH 15 0
BBX 16 20 0 0
BITMAP
0FE0
0000
FE3F
380C
1808
1C18
0C10
0E30
0620
0760
0340
0340
0180
0180
0180
0180
0180
0180
0180
0FF0
ENDCHAR
STARTCHAR uni0233
ENCODING 563
SWIDTH 506 0
DWIDTH 13 0
BBX 13 21 0 -6
BITMAP
1FC0
0000
F8F8
7030
3020
3860
1840
1840
1CC0
0C80
0C80
0700
0700
0700
0200
0200
0200
0400
0400
3800
7000
ENDCHAR
STARTCHAR uni0250
ENCODING 592
SWIDTH 523 0
DWIDTH 13 0
BBX 12 13 1 0
BITMAP
F7E0
3860
3030
3030
3030
3060
3380
3C00
3000
3060
3060
18C0
0F00
ENDCHAR
STARTCHAR uni0254
ENCODING 596
SWIDTH 496 0
DWIDTH 12 0
BBX 10 13 2 0
BITMAP
1E00
7300
E180
4080
00C0
00C0
00C0
00C0
00C0
81C0
C180
6380
1E00
ENDCHAR
STARTCHAR uni0258
ENCODING 600
SWIDTH 514 0
DWIDTH 13 0
BBX 10 13 2 0
BITMAP
1E00
6100
4180
C080
C0C0
FFC0
00C0
00C0
00C0
80C0
8180
4380
3E00
ENDCHAR
STARTCHAR uni0259
ENCODING 601
SWIDTH 514 0
DWIDTH 13 0
BBX 10 13 2 0
BITMAP
3E00
4380
8180
80C0
00C0
00C0
00C0
FFC0
C0C0
C080
4180
6100
1E00
ENDCHAR
STARTCHAR uni025F
ENCODING 607
SWIDTH 319 0
DWIDTH 8 0
BBX 9 19 1 -7
BITMAP
1F80
0600
0600
0600
0600
0600
0600
0600
0600
0600
0600
0600
3F80
0600
0600
0600
4400
E400
3800
ENDCHAR
STARTCHAR uni0265
ENCODING 613
SWIDTH 607 0
DWIDTH 15 0
BBX 14 19 1 -7
BITMAP
FCFC
3030
3030
3030
3030
3030
3030
3030
3030
3030
3070
18F0
0F30
0030
0030
0030
0030
003C
0030
ENDCHAR
STARTCHAR uni0275
ENCODING 629
SWIDTH 577 0
DWIDTH 14 0
BBX 11 13 2 0
BITMAP
1F00
3180
60C0
C060
C060
C060
FFE0
C060
C060
C060
60C0
3180
1F00
ENDCHAR
STARTCHAR uni0279
ENCODING 633
SWIDTH 389 0
DWIDTH 10 0
BBX 9 13 1 0
BITMAP
1F80
0600
0600
0600
0600
0600
0600
0600
0600
0600
0600
7F80
E600
ENDCHAR
STARTCHAR uni0287
ENCODING 647
SWIDTH 344 0
DWIDTH 9 0
BBX 8 16 1 0
BITMAP
F8
0C
0C
0C
0C
0C
0C
0C
0C
0C
0C
0C
7F
0C
08
08
ENDCHAR
STARTCHAR uni0288
ENCODING 648
SWIDTH 344 0
DWIDTH 9 0
BBX 7 22 1 -6
BITMAP
10
10
30
FE
30
30
30
30
30
30
30
30
30
30
30
30
30
30
10
18
0C
06
ENDCHAR
STARTCHAR uni0289
ENCODING 649
SWIDTH 606 0
DWIDTH 15 0
BBX 14 13 1 0
BITMAP
3030
F0F0
3030
3030
3030
3030
FFFC
3030
3030
3030
3030
38F0
0F3C
ENDCHAR
STARTCHAR uni028C
ENCODING 652
SWIDTH 504 0
DWIDTH 13 0
BBX 13 13 0 0
BITMAP
0300
0700
0700
0980
0980
0980
18C0
10C0
10C0
30E0
2060
6070
F9F8
ENDCHAR
STARTCHAR uni028D
ENCODING 653
SWIDTH 768 0
DWIDTH 19 0
BBX 20 13 0 0
BITMAP
060600
070600
0B0F00
0B0B00
0B8900
098980
119980
119180
10D0C0
30D0C0
2060C0
6060E0
F801F0
ENDCHAR
STARTCHAR uni028E
ENCODING 654
SWIDTH 506 0
DWIDTH 13 0
BBX 13 19 0 0
BITMAP
0070
00E0
0100
0100
0200
0200
0200
0700
0700
0700
0980
0980
19C0
10C0
10C0
30E0
2060
6070
F8F8
ENDCHAR
STARTCHAR uni029E
ENCODING 670
SWIDTH 524 0
DWIDTH 13 0
BBX 13 19 1 -7
BITMAP
E1F8
7860
1C60
0E60
0760
03E0
03E0
01E0
0360
0660
0C60
1C60
7860
0060
0060
0060
0060
0078
0060
ENDCHAR
STARTCHAR uni02BB
ENCODING 699
SWIDTH 278 0
DWIDTH 7 0
BBX 3 7 2 12
BITMAP
20
40
40
C0
C0
C0
40
ENDCHAR
STARTCHAR afii57929
ENCODING 700
SWIDTH 278 0
DWIDTH 7 0
BBX 3 7 2 12
BITMAP
40
60
60
60
40
40
80
ENDCHAR
STARTCHAR afii64937
ENCODING 701
SWIDTH 278 0
DWIDTH 7 0
BBX 3 7 2 12
BITMAP
40
C0
C0
C0
40
40
20
ENDCHAR
STARTCHAR circumflex
ENCODING 710
SWIDTH 400 0
DWIDTH 10 0
BBX 8 4 1 14
BITMAP
18
3C
66
81
ENDCHAR
STARTCHAR caron
ENCODING 711
SWIDTH 400 0
DWIDTH 10 0
BBX 8 4 1 14
BITMAP
C3
66
3C
18
ENDCHAR
STARTCHAR uni02C8
ENCODING 712
SWIDTH 278 0
DWIDTH 7 0
BBX 2 7 2 12
BITMAP
C0
C0
C0
C0
C0
80
80
ENDCHAR
STARTCHAR macron
ENCODING 713
SWIDTH 400 0
DWIDTH 10 0
BBX 7 1 1 15
BITMAP
FE
ENDCHAR
STARTCHAR uni02CA
ENCODING 714
SWIDTH 400 0
DWIDTH 10 0
BBX 6 5 3 13
BITMAP
08
1C
38
60
80
ENDCHAR
STARTCHAR uni02CB
ENCODING 715
SWIDTH 400 0
DWIDTH 10 0
BBX 6 5 1 13
BITMAP
40
E0
70
18
04
ENDCHAR
STARTCHAR uni02CD
ENCODING 717
SWIDTH 400 0
DWIDTH 10 0
BBX 7 1 1 -2
BITMAP
FE
ENDCHAR
STARTCHAR uni02CE
ENCODING 718
SWIDTH 400 0
DWIDTH 10 0
BBX 6 5 1 -6
BITMAP
40
E0
70
18
04
ENDCHAR
STARTCHAR uni02CF
ENCODING 719
SWIDTH 400 0
DWIDTH 10 0
BBX 6 5 3 -6
BITMAP
08
1C
38
60
80
ENDCHAR
STARTCHAR breve
ENCODING 728
SWIDTH 400 0
DWIDTH 10 0
BBX 8 4 1 14
BITMAP
81
C3
7E
3C
ENDCHAR
STARTCHAR dotaccent
ENCODING 729
SWIDTH 400 0
DWIDTH 10 0
BBX 3 3 3 14
BITMAP
E0
E0
40
ENDCHAR
STARTCHAR ring
ENCODING 730
SWIDTH 400 0
DWIDTH 10 0
BBX 4 5 3 14
BITMAP
60
90
90
90
60
ENDCHAR
STARTCHAR ogonek
ENCODING 731
SWIDTH 400 0
DWIDTH 10 0
BBX 5 6 2 -6
BITMAP
10
60
40
C0
C0
78
ENDCHAR
STARTCHAR tilde
ENCODING 732
SWIDTH 400 0
DWIDTH 10 0
BBX 9 3 0 14
BITMAP
3080
7F00
8200
ENDCHAR
STARTCHAR hungarumlaut
ENCODING 733
SWIDTH 400 0
DWIDTH 10 0
BBX 7 5 3 14
BITMAP
26
66
6C
C8
88
ENDCHAR
STARTCHAR uni02EE
ENCODING 750
SWIDTH 458 0
DWIDTH 11 0
BBX 8 7 2 12
BITMAP
66
67
63
62
62
44
88
ENDCHAR
STARTCHAR uni037E
ENCODING 894
SWIDTH 265 0
DWIDTH 7 0
BBX 3 16 2 -3
BITMAP
C0
E0
E0
00
00
00
00
00
40
E0
60
60
40
40
80
80
ENDCHAR
STARTCHAR tonos
ENCODING 900
SWIDTH 400 0
DWIDTH 10 0
BBX 6 5 3 13
BITMAP
08
1C
38
60
80
ENDCHAR
STARTCHAR dieresistonos
ENCODING 901
SWIDTH 400 0
DWIDTH 10 0
BBX 8 9 1 14
BITMAP
02
07
0E
18
20
00
E7
E7
42
ENDCHAR
STARTCHAR anoteleia
ENCODING 903
SWIDTH 265 0
DWIDTH 7 0
BBX 3 3 2 5
BITMAP
E0
E0
E0
ENDCHAR
STARTCHAR mu
ENCODING 956
SWIDTH 606 0
DWIDTH 15 0
BBX 14 19 1 -6
BITMAP
3030
F0F0
3030
3030
3030
3030
3030
3030
3030
3030
3030
38F0
2F3C
2000
2000
3000
3000
3000
2000
ENDCHAR
STARTCHAR uni1E00
ENCODING 7680
SWIDTH 635 0
DWIDTH 16 0
BBX 17 24 -1 -6
BITMAP
00C000
01C000
01C000
02E000
026000
026000
067000
043000
043000
0C3800
0FF800
081800
181C00
100C00
100C00
300E00
300E00
FC1F80
000000
00C000
012000
012000
012000
00C000
ENDCHAR
STARTCHAR uni1E01
ENCODING 7681
SWIDTH 523 0
DWIDTH 13 0
BBX 12 19 1 -6
BITMAP
0F00
3180
60C0
60C0
00C0
03C0
1CC0
60C0
C0C0
C0C0
C0C0
61C0
7EF0
0000
0600
0900
0900
0900
0600
ENDCHAR
STARTCHAR uni1E02
ENCODING 7682
SWIDTH 646 0
DWIDTH 16 0
BBX 14 22 1 0
BITMAP
0700
0700
0200
0000
FFE0
3070
3038
3018
3018
3018
3030
3060
3FC0
3078
3018
300C
300C
300C
300C
3018
3038
FFE0
ENDCHAR
STARTCHAR uni1E03
ENCODING 7683
SWIDTH 598 0
DWIDTH 15 0
BBX 13 23 0 0
BITMAP
3800
3800
1000
0000
3000
F000
3000
3000
3000
3000
33C0
3C70
3030
3018
3018
3018
3018
3018
3018
3010
3030
3860
2FC0
ENDCHAR
STARTCHAR uni1E04
ENCODING 7684
SWIDTH 646 0
DWIDTH 16 0
BBX 14 22 1 -4
BITMAP
FFE0
3070
3038
3018
3018
3018
3030
3060
3FC0
3078
3018
300C
300C
300C
300C
3018
3038
FFE0
0000
0700
0700
0200
ENDCHAR
STARTCHAR uni1E05
ENCODING 7685
SWIDTH 598 0
DWIDTH 15 0
BBX 13 23 0 -4
BITMAP
3000
F000
3000
3000
3000
3000
33C0
3C70
3030
3018
3018
3018
3018
3018
3018
3010
3030
3860
2FC0
0000
0700
0700
0200
ENDCHAR
STARTCHAR uni1E06
ENCODING 7686
SWIDTH 646 0
DWIDTH 16 0
BBX 14 20 1 -2
BITMAP
FFE0
3070
3038
3018
3018
3018
3030
3060
3FC0
3078
3018
300C
300C
300C
300C
3018
3038
FFE0
0000
1FC0
ENDCHAR
STARTCHAR uni1E07
ENCODING 7687
SWIDTH 598 0
DWIDTH 15 0
BBX 13 21 0 -2
BITMAP
3000
F000
3000
3000
3000
3000
33C0
3C70
3030
3018
3018
3018
3018
3018
3018
3010
3030
3860
2FC0
0000
1FC0
ENDCHAR
STARTCHAR uni1E08
ENCODING 7688
SWIDTH 680 0
DWIDTH 17 0
BBX 15 30 1 -6
BITMAP
0020
0070
00E0
0180
0200
0000
01F8
0E0E
1806
3002
7002
6000
6000
E000
E000
E000
E000
E000
6000
7002
3002
3806
0E0E
03F8
0080
01C0
0060
0060
0060
01C0
ENDCHAR
STARTCHAR uni1E09
ENCODING 7689
SWIDTH 496 0
DWIDTH 12 0
BBX 10 25 2 -6
BITMAP
0100
0380
0700
0C00
1000
0000
1E00
3380
6180
4180
C000
C000
C000
C000
C000
C040
6080
7180
3E00
0800
0C00
0600
0600
0600
1C00
ENDCHAR
STARTCHAR uni1E0A
ENCODING 7690
SWIDTH 779 0
DWIDTH 19 0
BBX 17 22 1 0
BITMAP
038000
038000
010000
000000
FFE000
303800
300E00
300600
300700
300300
300380
300380
300380
300380
300380
300380
300300
300700
300600
300E00
303800
FFE000
ENDCHAR
STARTCHAR uni1E0B
ENCODING 7691
SWIDTH 598 0
DWIDTH 15 0
BBX 13 23 2 0
BITMAP
01C0
01C0
0080
0000
0060
01E0
0060
0060
0060
0060
1F60
30E0
6060
6060
C060
C060
C060
C060
C060
C060
6060
70E0
1F78
ENDCHAR
STARTCHAR uni1E0C
ENCODING 7692
SWIDTH 779 0
DWIDTH 19 0
BBX 17 22 1 -4
BITMAP
FFE000
303800
300E00
300600
300700
300300
300380
300380
300380
300380
300380
300380
300300
300700
300600
300E00
303800
FFE000
000000
038000
038000
010000
ENDCHAR
STARTCHAR uni1E0D
ENCODING 7693
SWIDTH 598 0
DWIDTH 15 0
BBX 13 23 2 -4
BITMAP
0060
01E0
0060
0060
0060
0060
1F60
30E0
6060
6060
C060
C060
C060
C060
C060
C060
6060
70E0
1F78
0000
0700
0700
0200
ENDCHAR
STARTCHAR uni1E0E
ENCODING 7694
SWIDTH 779 0
DWIDTH 19 0
BBX 17 20 1 -2
BITMAP
FFE000
303800
300E00
300600
300700
300300
300380
300380
300380
300380
300380
300380
300300
300700
300600
300E00
303800
FFE000
000000
0FE000
ENDCHAR
STARTCHAR uni1E0F
ENCODING 7695
SWIDTH 598 0
DWIDTH 15 0
BBX 13 21 2 -2
BITMAP
0060
01E0
0060
0060
0060
0060
1F60
30E0
6060
6060
C060
C060
C060
C060
C060
C060
6060
70E0
1F78
0000
1FC0
ENDCHAR
STARTCHAR uni1E10
ENCODING 7696
SWIDTH 779 0
DWIDTH 19 0
BBX 17 24 1 -6
BITMAP
FFE000
303800
300E00
300600
300700
300300
300380
300380
300380
300380
300380
300380
300300
300700
300600
300E00
303800
FFE000
018000
038000
00C000
00C000
00C000
038000
ENDCHAR
STARTCHAR uni1E11
ENCODING 7697
SWIDTH 598 0
DWIDTH 15 0
BBX 13 25 2 -6
BITMAP
0060
01E0
0060
0060
0060
0060
1F60
30E0
6060
6060
C060
C060
C060
C060
C060
C060
6060
70E0
1F78
0300
0700
0180
0180
0180
0700
ENDCHAR
STARTCHAR uni1E12
ENCODING 7698
SWIDTH 779 0
DWIDTH 19 0
BBX 17 23 1 -5
BITMAP
FFE000
303800
300E00
300600
300700
300300
300380
300380
300380
300380
300380
300380
300300
300700
300600
300E00
303800
FFE000
000000
018000
03C000
066000
081000
ENDCHAR
STARTCHAR uni1E13
ENCODING 7699
SWIDTH 598 0
DWIDTH 15 0
BBX 13 24 2 -5
BITMAP
0060
01E0
0060
0060
0060
0060
1F60
30E0
6060
6060
C060
C060
C060
C060
C060
C060
6060
70E0
1F78
0000
0300
0780
0CC0
1020
ENDCHAR
STARTCHAR uni1E14
ENCODING 7700
SWIDTH 606 0
DWIDTH 15 0
BBX 13 26 1 0
BITMAP
0800
1C00
0E00
0300
0080
0000
1FC0
0000
FFF8
3018
3008
3008
3000
3000
3000
3020
3060
3FE0
3020
3020
3000
3000
3008
3008
3018
FFF8
ENDCHAR
STARTCHAR uni1E15
ENCODING 7701
SWIDTH 514 0
DWIDTH 13 0
BBX 10 21 2 0
BITMAP
2000
7000
3800
0C00
0200
0000
3F80
0000
1E00
2180
6080
40C0
C0C0
FFC0
C000
C000
C000
C040
6040
7080
1F00
ENDCHAR
STARTCHAR uni1E16
ENCODING 7702
SWIDTH 606 0
DWIDTH 15 0
BBX 13 26 1 0
BITMAP
0040
00E0
01C0
0300
0400
0000
1FC0
0000
FFF8
3018
3008
3008
3000
3000
3000
3020
3060
3FE0
3020
3020
3000
3000
3008
3008
3018
FFF8
ENDCHAR
STARTCHAR uni1E17
ENCODING 7703
SWIDTH 514 0
DWIDTH 13 0
BBX 10 21 2 0
BITMAP
0100
0380
0700
0C00
1000
0000
3F80
0000
1E00
2180
6080
40C0
C0C0
FFC0
C000
C000
C000
C040
6040
7080
1F00
ENDCHAR
STARTCHAR uni1E18
ENCODING 7704
SWIDTH 606 0
DWIDTH 15 0
BBX 13 23 1 -5
BITMAP
FFF8
3018
3008
3008
3000
3000
3000
3020
3060
3FE0
3020
3020
3000
3000
3008
3008
3018
FFF8
0000
0600
0F00
1980
2040
ENDCHAR
STARTCHAR uni1E19
ENCODING 7705
SWIDTH 514 0
DWIDTH 13 0
BBX 10 18 2 -5
BITMAP
1E00
2180
6080
40C0
C0C0
FFC0
C000
C000
C000
C040
6040
7080
1F00
0000
0C00
1E00
3300
4080
ENDCHAR
STARTCHAR uni1E1A
ENCODING 7706
SWIDTH 606 0
DWIDTH 15 0
BBX 13 22 1 -4
BITMAP
FFF8
3018
3008
3008
3000
3000
3000
3020
3060
3FE0
3020
3020
3000
3000
3008
3008
3018
FFF8
0000
0C20
1FC0
2080
ENDCHAR
STARTCHAR uni1E1B
ENCODING 7707
SWIDTH 514 0
DWIDTH 13 0
BBX 10 17 2 -4
BITMAP
1E00
2180
6080
40C0
C0C0
FFC0
C000
C000
C000
C040
6040
7080
1F00
0000
3080
7F00
8200
ENDCHAR
STARTCHAR uni1E1C
ENCODING 7708
SWIDTH 606 0
DWIDTH 15 0
BBX 13 29 1 -6
BITMAP
2040
30C0
1F80
0F00
0000
FFF8
3018
3008
3008
3000
3000
3000
3020
3060
3FE0
3020
3020
3000
3000
3008
3008
3018
FFF8
0300
0700
0180
0180
0180
0700
ENDCHAR
STARTCHAR uni1E1D
ENCODING 7709
SWIDTH 514 0
DWIDTH 13 0
BBX 10 24 2 -6
BITMAP
4080
6180
3F00
1E00
0000
1E00
2180
6080
40C0
C0C0
FFC0
C000
C000
C000
C040
6040
7080
1F00
0C00
1C00
0600
0600
0600
1C00
ENDCHAR
STARTCHAR uni1E1E
ENCODING 7710
SWIDTH 580 0
DWIDTH 14 0
BBX 13 22 1 0
BITMAP
0700
0700
0200
0000
FFF8
3018
3008
3008
3000
3000
3000
3020
3020
3FE0
3020
3020
3000
3000
3000
3000
3000
FE00
ENDCHAR
STARTCHAR uni1E1F
ENCODING 7711
SWIDTH 319 0
DWIDTH 8 0
BBX 9 23 1 0
BITMAP
1C00
1C00
0800
0000
0E00
1380
1100
3000
3000
3000
FE00
3000
3000
3000
3000
3000
3000
3000
3000
3000
3000
3000
FC00
ENDCHAR
STARTCHAR uni1E20
ENCODING 7712
SWIDTH 734 0
DWIDTH 18 0
BBX 17 20 1 0
BITMAP
07F000
000000
01F000
0E0E00
180600
300200
700200
700000
E00000
E00000
E00000
E00000
E03F80
600600
600600
700600
300600
380600
0E0600
03F800
ENDCHAR
STARTCHAR uni1E21
ENCODING 7713
SWIDTH 520 0
DWIDTH 13 0
BBX 12 21 1 -6
BITMAP
1FC0
0000
1E30
31E0
6080
60C0
60C0
60C0
30C0
3180
1F00
2000
6000
7FC0
1FE0
6070
C030
C030
C020
70E0
1F00
ENDCHAR
STARTCHAR uni1E22
ENCODING 7714
SWIDTH 798 0
DWIDTH 20 0
BBX 18 22 1 0
BITMAP
00E000
00E000
004000
000000
FE1FC0
300300
300300
300300
300300
300300
300300
300300
300300
3FFF00
300300
300300
300300
300300
300300
300300
300300
FE1FC0
ENDCHAR
STARTCHAR uni1E23
ENCODING 7715
SWIDTH 607 0
DWIDTH 15 0
BBX 14 23 1 0
BITMAP
1C00
1C00
0800
0000
3000
F000
3000
3000
3000
3000
33C0
3C60
3830
3030
3030
3030
3030
3030
3030
3030
3030
3030
FCFC
ENDCHAR
STARTCHAR uni1E24
ENCODING 7716
SWIDTH 798 0
DWIDTH 20 0
BBX 18 22 1 -4
BITMAP
FE1FC0
300300
300300
300300
300300
300300
300300
300300
300300
3FFF00
300300
300300
300300
300300
300300
300300
300300
FE1FC0
000000
00E000
00E000
004000
ENDCHAR
STARTCHAR uni1E25
ENCODING 7717
SWIDTH 607 0
DWIDTH 15 0
BBX 14 23 1 -4
BITMAP
3000
F000
3000
3000
3000
3000
33C0
3C60
3830
3030
3030
3030
3030
3030
3030
3030
3030
3030
FCFC
0000
0380
0380
0100
ENDCHAR
STARTCHAR uni1E26
ENCODING 7718
SWIDTH 798 0
DWIDTH 20 0
BBX 18 22 1 0
BITMAP
073800
073800
021000
000000
FE1FC0
300300
300300
300300
300300
300300
300300
300300
300300
3FFF00
300300
300300
300300
300300
300300
300300
300300
FE1FC0
ENDCHAR
STARTCHAR uni1E27
ENCODING 7719
SWIDTH 607 0
DWIDTH 15 0
BBX 14 23 1 0
BITMAP
E700
E700
4200
0000
3000
F000
3000
3000
3000
3000
33C0
3C60
3830
3030
3030
3030
3030
3030
3030
3030
3030
3030
FCFC
ENDCHAR
STARTCHAR uni1E28
ENCODING 7720
SWIDTH 798 0
DWIDTH 20 0
BBX 18 24 1 -6
BITMAP
FE1FC0
300300
300300
300300
300300
300300
300300
300300
300300
3FFF00
300300
300300
300300
300300
300300
300300
300300
FE1FC0
00C000
01C000
006000
006000
006000
01C000
ENDCHAR
STARTCHAR uni1E29
ENCODING 7721
SWIDTH 607 0
DWIDTH 15 0
BBX 14 25 1 -6
BITMAP
3000
F000
3000
3000
3000
3000
33C0
3C60
3830
3030
3030
3030
3030
3030
3030
3030
3030
3030
FCFC
0300
0700
0180
0180
0180
0700
ENDCHAR
STARTCHAR uni1E2A
ENCODING 7722
SWIDTH 798 0
DWIDTH 20 0
BBX 18 23 1 -5
BITMAP
FE1FC0
300300
300300
300300
300300
300300
300300
300300
300300
3FFF00
300300
300300
300300
300300
300300
300300
300300
FE1FC0
000000
040800
061800
03F000
01E000
ENDCHAR
STARTCHAR uni1E2B
ENCODING 7723
SWIDTH 607 0
DWIDTH 15 0
BBX 14 24 1 -5
BITMAP
3000
F000
3000
3000
3000
3000
33C0
3C60
3830
3030
3030
3030
3030
3030
3030
3030
3030
3030
FCFC
0000
1020
1860
0FC0
0780
ENDCHAR
STARTCHAR uni1E2C
ENCODING 7724
SWIDTH 349 0
DWIDTH 9 0
BBX 9 22 -1 -4
BITMAP
3F00
0C00
0C00
0C00
0C00
0C00
0C00
0C00
0C00
0C00
0C00
0C00
0C00
0C00
0C00
0C00
0C00
3F00
0000
3080
7F00
8200
ENDCHAR
STARTCHAR uni1E2D
ENCODING 7725
SWIDTH 291 0
DWIDTH 7 0
BBX 9 22 -1 -4
BITMAP
0C00
0C00
0C00
0000
0000
0C00
3C00
0C00
0C00
0C00
0C00
0C00
0C00
0C00
0C00
0C00
0C00
3F00
0000
3080
7F00
8200
ENDCHAR
STARTCHAR uni1E2E
ENCODING 7726
SWIDTH 349 0
DWIDTH 9 0
BBX 8 27 0 0
BITMAP
02
07
0E
18
20
00
E7
E7
00
7E
18
18
18
18
18
18
18
18
18
18
18
18
18
18
18
18
7E
ENDCHAR
STARTCHAR uni1E2F
ENCODING 7727
SWIDTH 291 0
DWIDTH 7 0
BBX 8 23 0 0
BITMAP
02
07
0E
18
20
00
E6
E7
C6
00
18
78
18
18
18
18
18
18
18
18
18
18
7E
ENDCHAR
STARTCHAR uni1E30
ENCODING 7728
SWIDTH 658 0
DWIDTH 16 0
BBX 16 24 1 0
BITMAP
0020
0070
00E0
0180
0200
0000
FC3F
3018
3030
3060
30C0
3180
3200
3400
3E00
3700
3780
33C0
31E0
30F0
3070
3038
301E
FC07
ENDCHAR
STARTCHAR uni1E31
ENCODING 7729
SWIDTH 524 0
DWIDTH 13 0
BBX 13 25 1 0
BITMAP
0200
0700
0E00
1800
2000
0000
3000
F000
3000
3000
3000
3000
30F0
31C0
3180
3300
3600
3C00
3E00
3E00
3700
3380
31C0
30F0
FC38
ENDCHAR
STARTCHAR uni1E32
ENCODING 7730
SWIDTH 658 0
DWIDTH 16 0
BBX 16 22 1 -4
BITMAP
FC3F
3018
3030
3060
30C0
3180
3200
3400
3E00
3700
3780
33C0
31E0
30F0
3070
3038
301E
FC07
0000
0380
0380
0100
ENDCHAR
STARTCHAR uni1E33
ENCODING 7731
SWIDTH 524 0
DWIDTH 13 0
BBX 13 23 1 -4
BITMAP
3000
F000
3000
3000
3000
3000
30F0
31C0
3180
3300
3600
3C00
3E00
3E00
3700
3380
31C0
30F0
FC38
0000
0700
0700
0200
ENDCHAR
STARTCHAR uni1E34
ENCODING 7732
SWIDTH 658 0
DWIDTH 16 0
BBX 16 20 1 -2
BITMAP
FC3F
3018
3030
3060
30C0
3180
3200
3400
3E00
3700
3780
33C0
31E0
30F0
3070
3038
301E
FC07
0000
0FE0
ENDCHAR
STARTCHAR uni1E35
ENCODING 7733
SWIDTH 524 0
DWIDTH 13 0
BBX 13 21 1 -2
BITMAP
3000
F000
3000
3000
3000
3000
30F0
31C0
3180
3300
3600
3C00
3E00
3E00
3700
3380
31C0
30F0
FC38
0000
1FC0
ENDCHAR
STARTCHAR uni1E36
ENCODING 7734
SWIDTH 568 0
DWIDTH 14 0
BBX 13 22 1 -4
BITMAP
FC00
3000
3000
3000
3000
3000
3000
3000
3000
3000
3000
3000
3000
3008
3010
3010
3030
FFF0
0000
0700
0700
0200
ENDCHAR
STARTCHAR uni1E37
ENCODING 7735
SWIDTH 279 0
DWIDTH 7 0
BBX 6 23 1 -4
BITMAP
30
F0
30
30
30
30
30
30
30
30
30
30
30
30
30
30
30
30
FC
00
38
38
10
ENDCHAR
STARTCHAR uni1E38
ENCODING 7736
SWIDTH 568 0
DWIDTH 14 0
BBX 13 24 1 -4
BITMAP
7F00
0000
FC00
3000
3000
3000
3000
3000
3000
3000
3000
3000
3000
3000
3000
3008
3010
3010
3030
FFF0
0000
0700
0700
0200
ENDCHAR
STARTCHAR uni1E39
ENCODING 7737
SWIDTH 279 0
DWIDTH 7 0
BBX 7 25 0 -4
BITMAP
FE
00
18
78
18
18
18
18
18
18
18
18
18
18
18
18
18
18
18
18
7E
00
1C
1C
08
ENDCHAR
STARTCHAR uni1E3A
ENCODING 7738
SWIDTH 568 0
DWIDTH 14 0
BBX 13 20 1 -2
BITMAP
FC00
3000
3000
3000
3000
3000
3000
3000
3000
3000
3000
3000
3000
3008
3010
3010
3030
FFF0
0000
1FC0
ENDCHAR
STARTCHAR uni1E3B
ENCODING 7739
SWIDTH 279 0
DWIDTH 7 0
BBX 7 21 1 -2
BITMAP
30
F0
30
30
30
30
30
30
30
30
30
30
30
30
30
30
30
30
FC
00
FE
ENDCHAR
STARTCHAR uni1E3C
ENCODING 7740
SWIDTH 568 0
DWIDTH 14 0
BBX 13 23 1 -5
BITMAP
FC00
3000
3000
3000
3000
3000
3000
3000
3000
3000
3000
3000
3000
3008
3010
3010
3030
FFF0
0000
0600
0F00
1980
2040
ENDCHAR
STARTCHAR uni1E3D
ENCODING 7741
SWIDTH 279 0
DWIDTH 7 0
BBX 8 24 0 -5
BITMAP
18
78
18
18
18
18
18
18
18
18
18
18
18
18
18
18
18
18
7E
00
18
3C
66
81
ENDCHAR
STARTCHAR uni1E3E
ENCODING 7742
SWIDTH 944 0
DWIDTH 24 0
BBX 21 24 1 0
BITMAP
000800
001C00
003800
006000
008000
000000
F80078
3800E0
3C00E0
3C01E0
2E0160
2E0360
260260
270260
230460
238460
238860
21C860
21D860
20F060
20F060
206060
706060
FC41F8
ENDCHAR
STARTCHAR uni1E3F
ENCODING 7743
SWIDTH 923 0
DWIDTH 23 0
BBX 22 19 1 0
BITMAP
000800
001C00
003800
006000
008000
000000
33E3C0
FC7C60
383030
303030
303030
303030
303030
303030
303030
303030
303030
303030
FCFCFC
ENDCHAR
STARTCHAR uni1E40
ENCODING 7744
SWIDTH 944 0
DWIDTH 24 0
BBX 21 22 1 0
BITMAP
007000
007000
002000
000000
F80078
3800E0
3C00E0
3C01E0
2E0160
2E0360
260260
270260
230460
238460
238860
21C860
21D860
20F060
20F060
206060
706060
FC41F8
ENDCHAR
STARTCHAR uni1E41
ENCODING 7745
SWIDTH 923 0
DWIDTH 23 0
BBX 22 17 1 0
BITMAP
007000
007000
002000
000000
33E3C0
FC7C60
383030
303030
303030
303030
303030
303030
303030
303030
303030
303030
FCFCFC
ENDCHAR
STARTCHAR uni1E42
ENCODING 7746
SWIDTH 944 0
DWIDTH 24 0
BBX 21 22 1 -4
BITMAP
F80078
3800E0
3C00E0
3C01E0
2E0160
2E0360
260260
270260
230460
238460
238860
21C860
21D860
20F060
20F060
206060
706060
FC41F8
000000
007000
007000
002000
ENDCHAR
STARTCHAR uni1E43
ENCODING 7747
SWIDTH 923 0
DWIDTH 23 0
BBX 22 17 1 -4
BITMAP
33E3C0
FC7C60
383030
303030
303030
303030
303030
303030
303030
303030
303030
303030
FCFCFC
000000
003800
003800
001000
ENDCHAR
STARTCHAR uni1E44
ENCODING 7748
SWIDTH 780 0
DWIDTH 19 0
BBX 18 22 1 0
BITMAP
01C000
01C000
008000
000000
F80FC0
3C0380
3C0100
2E0100
2F0100
278100
238100
21C100
21E100
20E100
207100
203900
203D00
201D00
200F00
200700
700700
FC0300
ENDCHAR
STARTCHAR uni1E45
ENCODING 7749
SWIDTH 619 0
DWIDTH 15 0
BBX 14 17 1 0
BITMAP
0700
0700
0200
0000
33C0
FC60
3830
3030
3030
3030
3030
3030
3030
3030
3030
3030
FCFC
ENDCHAR
STARTCHAR uni1E46
ENCODING 7750
SWIDTH 780 0
DWIDTH 19 0
BBX 18 22 1 -4
BITMAP
F80FC0
3C0380
3C0100
2E0100
2F0100
278100
238100
21C100
21E100
20E100
207100
203900
203D00
201D00
200F00
200700
700700
FC0300
000000
00E000
00E000
004000
ENDCHAR
STARTCHAR uni1E47
ENCODING 7751
SWIDTH 619 0
DWIDTH 15 0
BBX 14 17 1 -4
BITMAP
33C0
FC60
3830
3030
3030
3030
3030
3030
3030
3030
3030
3030
FCFC
0000
0380
0380
0100
ENDCHAR
STARTCHAR uni1E48
ENCODING 7752
SWIDTH 780 0
DWIDTH 19 0
BBX 18 20 1 -2
BITMAP
F80FC0
3C0380
3C0100
2E0100
2F0100
278100
238100
21C100
21E100
20E100
207100
203900
203D00
201D00
200F00
200700
700700
FC0300
000000
03F800
ENDCHAR
STARTCHAR uni1E49
ENCODING 7753
SWIDTH 619 0
DWIDTH 15 0
BBX 14 15 1 -2
BITMAP
33C0
FC60
3830
3030
3030
3030
3030
3030
3030
3030
3030
3030
FCFC
0000
0FE0
ENDCHAR
STARTCHAR uni1E4A
ENCODING 7754
SWIDTH 780 0
DWIDTH 19 0
BBX 18 23 1 -5
BITMAP
F80FC0
3C0380
3C0100
2E0100
2F0100
278100
238100
21C100
21E100
20E100
207100
203900
203D00
201D00
200F00
200700
700700
FC0300
000000
00C000
01E000
033000
040800
ENDCHAR
STARTCHAR uni1E4B
ENCODING 7755
SWIDTH 619 0
DWIDTH 15 0
BBX 14 18 1 -5
BITMAP
33C0
FC60
3830
3030
3030
3030
3030
3030
3030
3030
3030
3030
FCFC
0000
0300
0780
0CC0
1020
ENDCHAR
STARTCHAR uni1E4C
ENCODING 7756
SWIDTH 762 0
DWIDTH 19 0
BBX 17 27 1 0
BITMAP
001000
003800
007000
00C000
010000
000000
078800
087000
000000
03E000
0C1800
380E00
300600
700700
600300
E00380
E00380
E00380
E00380
E00380
E00380
600300
700700
300600
380E00
0C1800
03E000
ENDCHAR
STARTCHAR uni1E4D
ENCODING 7757
SWIDTH 577 0
DWIDTH 14 0
BBX 11 23 2 0
BITMAP
0080
01C0
0380
0600
0800
0000
3C40
4380
0000
0000
1F00
3180
60C0
C060
C060
C060
C060
C060
C060
C060
60C0
3180
1F00
ENDCHAR
STARTCHAR uni1E4E
ENCODING 7758
SWIDTH 762 0
DWIDTH 19 0
BBX 17 25 1 0
BITMAP
073800
073800
021000
000000
078800
087000
000000
03E000
0C1800
380E00
300600
700700
600300
E00380
E00380
E00380
E00380
E00380
E00380
600300
700700
300600
380E00
0C1800
03E000
ENDCHAR
STARTCHAR uni1E4F
ENCODING 7759
SWIDTH 577 0
DWIDTH 14 0
BBX 11 21 2 0
BITMAP
39C0
39C0
1080
0000
3C40
4380
0000
0000
1F00
3180
60C0
C060
C060
C060
C060
C060
C060
C060
60C0
3180
1F00
ENDCHAR
STARTCHAR uni1E50
ENCODING 7760
SWIDTH 762 0
DWIDTH 19 0
BBX 17 26 1 0
BITMAP
020000
070000
038000
00C000
002000
000000
07F000
000000
03E000
0C1800
380E00
300600
700700
600300
E00380
E00380
E00380
E00380
E00380
E00380
600300
700700
300600
380E00
0C1800
03E000
ENDCHAR
STARTCHAR uni1E51
ENCODING 7761
SWIDTH 577 0
DWIDTH 14 0
BBX 11 21 2 0
BITMAP
1000
3800
1C00
0600
0100
0000
3F80
0000
1F00
3180
60C0
C060
C060
C060
C060
C060
C060
C060
60C0
3180
1F00
ENDCHAR
STARTCHAR uni1E52
ENCODING 7762
SWIDTH 762 0
DWIDTH 19 0
BBX 17 26 1 0
BITMAP
001000
003800
007000
00C000
010000
000000
07F000
000000
03E000
0C1800
380E00
300600
700700
600300
E00380
E00380
E00380
E00380
E00380
E00380
600300
700700
300600
380E00
0C1800
03E000
ENDCHAR
STARTCHAR uni1E53
ENCODING 7763
SWIDTH 577 0
DWIDTH 14 0
BBX 11 21 2 0
BITMAP
0080
01C0
0380
0600
0800
0000
3F80
0000
1F00
3180
60C0
C060
C060
C060
C060
C060
C060
C060
60C0
3180
1F00
ENDCHAR
STARTCHAR uni1E54
ENCODING 7764
SWIDTH 600 0
DWIDTH 15 0
BBX 13 24 1 0
BITMAP
0040
00E0
01C0
0300
0400
0000
FFC0
3070
3030
3018
3018
3018
3018
3018
3030
3060
3FC0
3000
3000
3000
3000
3000
3000
FE00
ENDCHAR
STARTCHAR uni1E55
ENCODING 7765
SWIDTH 608 0
DWIDTH 15 0
BBX 13 25 1 -6
BITMAP
0080
01C0
0380
0600
0800
0000
33C0
FC70
3830
3018
3018
3018
3018
3018
3018
3030
3030
3860
37C0
3000
3000
3000
3000
3000
FC00
ENDCHAR
STARTCHAR uni1E56
ENCODING 7766
SWIDTH 600 0
DWIDTH 15 0
BBX 13 22 1 0
BITMAP
0700
0700
0200
0000
FFC0
3070
3030
3018
3018
3018
3018
3018
3030
3060
3FC0
3000
3000
3000
3000
3000
3000
FE00
ENDCHAR
STARTCHAR uni1E57
ENCODING 7767
SWIDTH 608 0
DWIDTH 15 0
BBX 13 23 1 -6
BITMAP
0700
0700
0200
0000
33C0
FC70
3830
3018
3018
3018
3018
3018
3018
3030
3030
3860
37C0
3000
3000
3000
3000
3000
FC00
ENDCHAR
STARTCHAR uni1E58
ENCODING 7768
SWIDTH 644 0
DWIDTH 16 0
BBX 15 22 1 0
BITMAP
0700
0700
0200
0000
FFC0
3070
3030
3018
3018
3018
3010
3030
3060
3F80
3060
3030
3030
3030
3038
3018
3018
FC0E
ENDCHAR
STARTCHAR uni1E59
ENCODING 7769
SWIDTH 389 0
DWIDTH 10 0
BBX 9 17 1 0
BITMAP
1C00
1C00
0800
0000
3380
FF00
3000
3000
3000
3000
3000
3000
3000
3000
3000
3000
FC00
ENDCHAR
STARTCHAR uni1E5A
ENCODING 7770
SWIDTH 644 0
DWIDTH 16 0
BBX 15 22 1 -4
BITMAP
FFC0
3070
3030
3018
3018
3018
3010
3030
3060
3F80
3060
3030
3030
3030
3038
3018
3018
FC0E
0000
0380
0380
0100
ENDCHAR
STARTCHAR uni1E5B
ENCODING 7771
SWIDTH 389 0
DWIDTH 10 0
BBX 9 17 1 -4
BITMAP
3380
FF00
3000
3000
3000
3000
3000
3000
3000
3000
3000
3000
FC00
0000
3800
3800
1000
ENDCHAR
STARTCHAR uni1E5C
ENCODING 7772
SWIDTH 644 0
DWIDTH 16 0
BBX 15 24 1 -4
BITMAP
1FC0
0000
FFC0
3070
3030
3018
3018
3018
3010
3030
3060
3F80
3060
3030
3030
3030
3038
3018
3018
FC0E
0000
0380
0380
0100
ENDCHAR
STARTCHAR uni1E5D
ENCODING 7773
SWIDTH 389 0
DWIDTH 10 0
BBX 9 19 1 -4
BITMAP
7F00
0000
3380
FF00
3000
3000
3000
3000
3000
3000
3000
3000
3000
3000
FC00
0000
3800
3800
1000
ENDCHAR
STARTCHAR uni1E5E
ENCODING 7774
SWIDTH 644 0
DWIDTH 16 0
BBX 15 20 1 -2
BITMAP
FFC0
3070
3030
3018
3018
3018
3010
3030
3060
3F80
3060
3030
3030
3030
3038
3018
3018
FC0E
0000
0FE0
ENDCHAR
STARTCHAR uni1E5F
ENCODING 7775
SWIDTH 389 0
DWIDTH 10 0
BBX 9 15 1 -2
BITMAP
3380
FF00
3000
3000
3000
3000
3000
3000
3000
3000
3000
3000
FC00
0000
FE00
ENDCHAR
STARTCHAR uni1E60
ENCODING 7776
SWIDTH 541 0
DWIDTH 14 0
BBX 11 22 1 0
BITMAP
0E00
0E00
0400
0000
0F80
30E0
2060
6020
6020
7000
7800
3E00
1F80
07C0
01C0
00E0
8060
8060
4060
4040
71C0
1F00
ENDCHAR
STARTCHAR uni1E61
ENCODING 7777
SWIDTH 436 0
DWIDTH 11 0
BBX 9 17 1 0
BITMAP
1C00
1C00
0800
0000
3C00
6300
C100
C100
E000
7C00
3F00
0F80
8380
8180
C180
C300
3E00
ENDCHAR
STARTCHAR uni1E62
ENCODING 7778
SWIDTH 541 0
DWIDTH 14 0
BBX 11 22 1 -4
BITMAP
0F80
30E0
2060
6020
6020
7000
7800
3E00
1F80
07C0
01C0
00E0
8060
8060
4060
4040
71C0
1F00
0000
0E00
0E00
0400
ENDCHAR
STARTCHAR uni1E63
ENCODING 7779
SWIDTH 436 0
DWIDTH 11 0
BBX 9 17 1 -4
BITMAP
3C00
6300
C100
C100
E000
7C00
3F00
0F80
8380
8180
C180
C300
3E00
0000
1C00
1C00
0800
ENDCHAR
STARTCHAR uni1E64
ENCODING 7780
SWIDTH 541 0
DWIDTH 14 0
BBX 11 28 1 0
BITMAP
0700
0700
0200
0000
0080
01C0
0380
0600
0800
0000
0F80
30E0
2060
6020
6020
7000
7800
3E00
1F80
07C0
01C0
00E0
8060
8060
4060
4040
71C0
1F00
ENDCHAR
STARTCHAR uni1E65
ENCODING 7781
SWIDTH 436 0
DWIDTH 11 0
BBX 9 23 1 0
BITMAP
0E00
0E00
0400
0000
0200
0700
0E00
1800
2000
0000
3C00
6300
C100
C100
E000
7C00
3F00
0F80
8380
8180
C180
C300
3E00
ENDCHAR
STARTCHAR uni1E66
ENCODING 7782
SWIDTH 541 0
DWIDTH 14 0
BBX 11 26 1 0
BITMAP
0700
0700
0200
0000
2080
1180
0F00
0400
0F80
30E0
2060
6020
6020
7000
7800
3E00
1F80
07C0
01C0
00E0
0060
8060
4060
4040
70C0
1F00
ENDCHAR
STARTCHAR uni1E67
ENCODING 7783
SWIDTH 436 0
DWIDTH 11 0
BBX 9 22 1 0
BITMAP
1C00
1C00
0800
0000
C100
2600
1C00
0800
0000
3C00
6300
C100
C100
E000
7C00
3F00
0F80
8380
8180
C180
C300
3E00
ENDCHAR
STARTCHAR uni1E68
ENCODING 7784
SWIDTH 541 0
DWIDTH 14 0
BBX 11 26 1 -4
BITMAP
0E00
0E00
0400
0000
0F80
30E0
2060
6020
6020
7000
7800
3E00
1F80
07C0
01C0
00E0
8060
8060
4060
4040
71C0
1F00
0000
0E00
0E00
0400
ENDCHAR
STARTCHAR uni1E69
ENCODING 7785
SWIDTH 436 0
DWIDTH 11 0
BBX 9 21 1 -4
BITMAP
3800
3800
1000
0000
3C00
6300
C100
C100
E000
7C00
3F00
0F80
8380
8180
C180
C300
3E00
0000
1C00
1C00
0800
ENDCHAR
STARTCHAR uni1E6A
ENCODING 7786
SWIDTH 621 0
DWIDTH 16 0
BBX 14 22 0 0
BITMAP
0380
0380
0100
0000
FFFC
C30C
C30C
8304
0300
0300
0300
0300
0300
0300
0300
0300
0300
0300
0300
0300
0300
1FE0
ENDCHAR
STARTCHAR uni1E6B
ENCODING 7787
SWIDTH 344 0
DWIDTH 9 0
BBX 8 20 1 0
BITMAP
38
38
10
00
10
10
30
FE
30
30
30
30
30
30
30
30
30
30
30
1F
ENDCHAR
STARTCHAR uni1E6C
ENCODING 7788
SWIDTH 621 0
DWIDTH 16 0
BBX 14 22 0 -4
BITMAP
FFFC
C30C
C30C
8304
0300
0300
0300
0300
0300
0300
0300
0300
0300
0300
0300
0300
0300
1FE0
0000
0380
0380
0100
ENDCHAR
STARTCHAR uni1E6D
ENCODING 7789
SWIDTH 344 0
DWIDTH 9 0
BBX 8 20 1 -4
BITMAP
10
10
30
FE
30
30
30
30
30
30
30
30
30
30
30
1F
00
38
38
10
ENDCHAR
STARTCHAR uni1E6E
ENCODING 7790
SWIDTH 621 0
DWIDTH 16 0
BBX 14 20 0 -2
BITMAP
FFFC
C30C
C30C
8304
0300
0300
0300
0300
0300
0300
0300
0300
0300
0300
0300
0300
0300
1FE0
0000
0FE0
ENDCHAR
STARTCHAR uni1E6F
ENCODING 7791
SWIDTH 344 0
DWIDTH 9 0
BBX 8 18 1 -2
BITMAP
10
10
30
FE
30
30
30
30
30
30
30
30
30
30
30
1F
00
FE
ENDCHAR
STARTCHAR uni1E70
ENCODING 7792
SWIDTH 621 0
DWIDTH 16 0
BBX 14 23 0 -5
BITMAP
FFFC
C30C
C30C
8304
0300
0300
0300
0300
0300
0300
0300
0300
0300
0300
0300
0300
0300
1FE0
0000
0300
0780
0CC0
1020
ENDCHAR
STARTCHAR uni1E71
ENCODING 7793
SWIDTH 344 0
DWIDTH 9 0
BBX 8 21 1 -5
BITMAP
10
10
30
FE
30
30
30
30
30
30
30
30
30
30
30
1F
00
18
3C
66
81
ENDCHAR
STARTCHAR uni1E72
ENCODING 7794
SWIDTH 791 0
DWIDTH 20 0
BBX 18 22 1 -4
BITMAP
FE1FC0
300300
300300
300300
300300
300300
300300
300300
300300
300300
300300
300300
300300
300300
180600
180600
0E1C00
03F000
000000
073800
073800
021000
ENDCHAR
STARTCHAR uni1E73
ENCODING 7795
SWIDTH 606 0
DWIDTH 15 0
BBX 14 17 1 -4
BITMAP
3030
F0F0
3030
3030
3030
3030
3030
3030
3030
3030
3030
38F0
0F3C
0000
0E70
0E70
0420
ENDCHAR
STARTCHAR uni1E74
ENCODING 7796
SWIDTH 791 0
DWIDTH 20 0
BBX 18 22 1 -4
BITMAP
FE1FC0
300300
300300
300300
300300
300300
300300
300300
300300
300300
300300
300300
300300
300300
180600
180600
0E1C00
03F000
000000
030800
07F000
082000
ENDCHAR
STARTCHAR uni1E75
ENCODING 7797
SWIDTH 606 0
DWIDTH 15 0
BBX 14 17 1 -4
BITMAP
3030
F0F0
3030
3030
3030
3030
3030
3030
3030
3030
3030
38F0
0F3C
0000
0610
0FE0
1040
ENDCHAR
STARTCHAR uni1E76
ENCODING 7798
SWIDTH 791 0
DWIDTH 20 0
BBX 18 23 1 -5
BITMAP
FE1FC0
300300
300300
300300
300300
300300
300300
300300
300300
300300
300300
300300
300300
300300
180600
180600
0E1C00
03F000
000000
00C000
01E000
033000
040800
ENDCHAR
STARTCHAR uni1E77
ENCODING 7799
SWIDTH 606 0
DWIDTH 15 0
BBX 14 18 1 -5
BITMAP
3030
F0F0
3030
3030
3030
3030
3030
3030
3030
3030
3030
38F0
0F3C
0000
0180
03C0
0660
0810
ENDCHAR
STARTCHAR uni1E78
ENCODING 7800
SWIDTH 791 0
DWIDTH 20 0
BBX 18 28 1 0
BITMAP
001000
003800
007000
00C000
010000
000000
018400
03F800
041000
000000
FE1FC0
300300
300300
300300
300300
300300
300300
300300
300300
300300
300300
300300
300300
300300
180600
180600
0E1C00
03F000
ENDCHAR
STARTCHAR uni1E79
ENCODING 7801
SWIDTH 606 0
DWIDTH 15 0
BBX 14 23 1 0
BITMAP
0040
00E0
01C0
0300
0400
0000
0610
0FE0
1040
0000
3030
F0F0
3030
3030
3030
3030
3030
3030
3030
3030
3030
38F0
0F3C
ENDCHAR
STARTCHAR uni1E7A
ENCODING 7802
SWIDTH 791 0
DWIDTH 20 0
BBX 18 24 1 0
BITMAP
073800
073800
021000
000000
03F800
000000
FE1FC0
300300
300300
300300
300300
300300
300300
300300
300300
300300
300300
300300
300300
300300
180600
180600
0E1C00
03F000
ENDCHAR
STARTCHAR uni1E7B
ENCODING 7803
SWIDTH 606 0
DWIDTH 15 0
BBX 14 19 1 0
BITMAP
1CE0
1CE0
0840
0000
1FC0
0000
3030
F0F0
3030
3030
3030
3030
3030
3030
3030
3030
3030
38F0
0F3C
ENDCHAR
STARTCHAR uni1E7C
ENCODING 7804
SWIDTH 634 0
DWIDTH 16 0
BBX 17 22 0 0
BITMAP
030800
07F000
082000
000000
FC0F80
380600
380600
180400
180400
1C0C00
0C0800
0C0800
0E1000
061000
061000
072000
032000
03A000
03C000
01C000
01C000
018000
ENDCHAR
STARTCHAR uni1E7D
ENCODING 7805
SWIDTH 504 0
DWIDTH 13 0
BBX 13 17 0 0
BITMAP
0C20
1FC0
2080
0000
FCF8
7030
3020
3860
1840
1840
18C0
0C80
0C80
0C80
0700
0700
0600
ENDCHAR
STARTCHAR uni1E7E
ENCODING 7806
SWIDTH 634 0
DWIDTH 16 0
BBX 17 22 0 -4
BITMAP
FC0F80
380600
380600
180400
180400
1C0C00
0C0800
0C0800
0E1000
061000
061000
072000
032000
03A000
03C000
01C000
01C000
018000
000000
01C000
01C000
008000
ENDCHAR
STARTCHAR uni1E7F
ENCODING 7807
SWIDTH 504 0
DWIDTH 13 0
BBX 13 17 0 -4
BITMAP
FCF8
7030
3020
3860
1840
1840
18C0
0C80
0C80
0C80
0700
0700
0600
0000
0700
0700
0200
ENDCHAR
STARTCHAR Wgrave
ENCODING 7808
SWIDTH 940 0
DWIDTH 23 0
BBX 25 24 0 0
BITMAP
00400000
00E00000
00700000
00180000
00040000
00000000
FC001F80
70180600
301C0600
301C0400
381C0400
182E0C00
18260800
18260800
1C470800
0C431800
0C431000
0E439000
0E819000
0681A000
0681E000
0701E000
0700E000
0300C000
ENDCHAR
STARTCHAR wgrave
ENCODING 7809
SWIDTH 768 0
DWIDTH 19 0
BBX 20 19 0 0
BITMAP
010000
038000
01C000
006000
001000
000000
F801F0
706060
306040
30B0C0
30B080
189880
199880
191900
091D00
0D0D00
0F0D00
060E00
060600
ENDCHAR
STARTCHAR Wacute
ENCODING 7810
SWIDTH 940 0
DWIDTH 23 0
BBX 25 24 0 0
BITMAP
00020000
00070000
000E0000
00180000
00200000
00000000
FC001F80
70180600
301C0600
301C0400
381C0400
182E0C00
18260800
18260800
1C470800
0C431800
0C431000
0E439000
0E819000
0681A000
0681E000
0701E000
0700E000
0300C000
ENDCHAR
STARTCHAR wacute
ENCODING 7811
SWIDTH 768 0
DWIDTH 19 0
BBX 20 19 0 0
BITMAP
000800
001C00
003800
006000
008000
000000
F801F0
706060
306040
30B0C0
30B080
189880
199880
191900
091D00
0D0D00
0F0D00
060E00
060600
ENDCHAR
STARTCHAR Wdieresis
ENCODING 7812
SWIDTH 940 0
DWIDTH 23 0
BBX 25 22 0 0
BITMAP
00E70000
00E70000
00420000
00000000
FC001F80
70180600
301C0600
301C0400
381C0400
182E0C00
18260800
18260800
1C470800
0C431800
0C431000
0E439000
0E819000
0681A000
0681E000
0701E000
0700E000
0300C000
ENDCHAR
STARTCHAR wdieresis
ENCODING 7813
SWIDTH 768 0
DWIDTH 19 0
BBX 20 17 0 0
BITMAP
039C00
039C00
010800
000000
F801F0
706060
306040
30B0C0
30B080
189880
199880
191900
091D00
0D0D00
0F0D00
060E00
060600
ENDCHAR
STARTCHAR uni1E86
ENCODING 7814
SWIDTH 940 0
DWIDTH 23 0
BBX 25 22 0 0
BITMAP
00380000
00380000
00100000
00000000
FC001F80
70180600
301C0600
301C0400
381C0400
182E0C00
18260800
18260800
1C470800
0C431800
0C431000
0E439000
0E819000
0681A000
0681E000
0701E000
0700E000
0300C000
ENDCHAR
STARTCHAR uni1E87
ENCODING 7815
SWIDTH 768 0
DWIDTH 19 0
BBX 20 17 0 0
BITMAP
00E000
00E000
004000
000000
F801F0
706060
306040
30B0C0
30B080
189880
199880
191900
091D00
0D0D00
0F0D00
060E00
060600
ENDCHAR
STARTCHAR uni1E88
ENCODING 7816
SWIDTH 940 0
DWIDTH 23 0
BBX 25 22 0 -4
BITMAP
FC001F80
70180600
301C0600
301C0400
381C0400
182E0C00
18260800
18260800
1C470800
0C431800
0C431000
0E439000
0E819000
0681A000
0681E000
0701E000
0700E000
0300C000
00000000
001C0000
001C0000
00080000
ENDCHAR
STARTCHAR uni1E89
ENCODING 7817
SWIDTH 768 0
DWIDTH 19 0
BBX 20 17 0 -4
BITMAP
F801F0
706060
306040
30B0C0
30B080
189880
199880
191900
091D00
0D0D00
0F0D00
060E00
060600
000000
00E000
00E000
004000
ENDCHAR
STARTCHAR uni1E8A
ENCODING 7818
SWIDTH 624 0
DWIDTH 16 0
BBX 16 22 0 0
BITMAP
0380
0380
0100
0000
FE3F
380C
1810
1C10
0E20
0640
0740
0380
0180
01C0
03C0
06E0
0460
0C70
1838
3818
301C
FC7F
ENDCHAR
STARTCHAR uni1E8B
ENCODING 7819
SWIDTH 486 0
DWIDTH 12 0
BBX 13 17 0 0
BITMAP
0E00
0E00
0400
0000
F9F0
70C0
3880
1900
1F00
0E00
0700
0F00
0980
19C0
10C0
30E0
F9F8
ENDCHAR
STARTCHAR uni1E8C
ENCODING 7820
SWIDTH 624 0
DWIDTH 16 0
BBX 16 22 0 0
BITMAP
0E70
0E70
0420
0000
FE3F
380C
1810
1C10
0E20
0640
0740
0380
0180
01C0
03C0
06E0
0460
0C70
1838
3818
301C
FC7F
ENDCHAR
STARTCHAR uni1E8D
ENCODING 7821
SWIDTH 486 0
DWIDTH 12 0
BBX 13 17 0 0
BITMAP
39C0
39C0
1080
0000
F9F0
70C0
3880
1900
1F00
0E00
0700
0F00
0980
19C0
10C0
30E0
F9F8
ENDCHAR
STARTCHAR uni1E8E
ENCODING 7822
SWIDTH 588 0
DWIDTH 15 0
BBX 16 22 0 0
BITMAP
0380
0380
0100
0000
FE3F
380C
1808
1C18
0C10
0E30
0620
0760
0340
0340
0180
0180
0180
0180
0180
0180
0180
0FF0
ENDCHAR
STARTCHAR uni1E8F
ENCODING 7823
SWIDTH 506 0
DWIDTH 13 0
BBX 13 23 0 -6
BITMAP
0700
0700
0200
0000
F8F8
7030
3020
3860
1840
1840
1CC0
0C80
0C80
0700
0700
0700
0200
0200
0200
0400
0400
3800
7000
ENDCHAR
STARTCHAR uni1E90
ENCODING 7824
SWIDTH 610 0
DWIDTH 15 0
BBX 14 23 1 0
BITMAP
0180
03C0
0660
0810
0000
7FFC
603C
4038
4070
00F0
00E0
01C0
03C0
0380
0700
0E00
0E00
1C00
3804
3804
7004
E00C
FFFC
ENDCHAR
STARTCHAR uni1E91
ENCODING 7825
SWIDTH 480 0
DWIDTH 12 0
BBX 11 18 0 0
BITMAP
0600
0F00
1980
2040
0000
7FE0
60E0
41C0
4380
0300
0700
0E00
1C00
1C00
3820
7020
7060
FFE0
ENDCHAR
STARTCHAR uni1E92
ENCODING 7826
SWIDTH 610 0
DWIDTH 15 0
BBX 14 22 1 -4
BITMAP
7FFC
603C
4038
4070
00F0
00E0
01C0
03C0
0380
0700
0E00
0E00
1C00
3804
3804
7004
E00C
FFFC
0000
0700
0700
0200
ENDCHAR
STARTCHAR uni1E93
ENCODING 7827
SWIDTH 480 0
DWIDTH 12 0
BBX 11 17 0 -4
BITMAP
7FE0
60E0
41C0
4380
0300
0700
0E00
1C00
1C00
3820
7020
7060
FFE0
0000
0E00
0E00
0400
ENDCHAR
STARTCHAR uni1E94
ENCODING 7828
SWIDTH 610 0
DWIDTH 15 0
BBX 14 20 1 -2
BITMAP
7FFC
603C
4038
4070
00F0
00E0
01C0
03C0
0380
0700
0E00
0E00
1C00
3804
3804
7004
E00C
FFFC
0000
1FC0
ENDCHAR
STARTCHAR uni1E95
ENCODING 7829
SWIDTH 480 0
DWIDTH 12 0
BBX 11 15 0 -2
BITMAP
7FE0
60E0
41C0
4380
0300
0700
0E00
1C00
1C00
3820
7020
7060
FFE0
0000
3F80
ENDCHAR
STARTCHAR uni1E96
ENCODING 7830
SWIDTH 607 0
DWIDTH 15 0
BBX 14 21 1 -2
BITMAP
3000
F000
3000
3000
3000
3000
33C0
3C60
3830
3030
3030
3030
3030
3030
3030
3030
3030
3030
FCFC
0000
0FE0
ENDCHAR
STARTCHAR uni1E97
ENCODING 7831
SWIDTH 344 0
DWIDTH 9 0
BBX 8 20 1 0
BITMAP
E7
E7
42
00
10
10
30
FE
30
30
30
30
30
30
30
30
30
30
30
1F
ENDCHAR
STARTCHAR uni1E98
ENCODING 7832
SWIDTH 768 0
DWIDTH 19 0
BBX 20 19 0 0
BITMAP
006000
009000
009000
009000
006000
000000
F801F0
706060
306040
30B0C0
30B080
189880
199880
191900
091D00
0D0D00
0F0D00
060E00
060600
ENDCHAR
STARTCHAR uni1E99
ENCODING 7833
SWIDTH 506 0
DWIDTH 13 0
BBX 13 25 0 -6
BITMAP
0600
0900
0900
0900
0600
0000
F8F8
7030
3020
3860
1840
1840
1CC0
0C80
0C80
0700
0700
0700
0200
0200
0200
0400
0400
3800
7000
ENDCHAR
STARTCHAR uni1EA0
ENCODING 7840
SWIDTH 635 0
DWIDTH 16 0
BBX 17 22 -1 -4
BITMAP
00C000
01C000
01C000
02E000
026000
026000
067000
043000
043000
0C3800
0FF800
081800
181C00
100C00
100C00
300E00
300E00
FC1F80
000000
01C000
01C000
008000
ENDCHAR
STARTCHAR uni1EA1
ENCODING 7841
SWIDTH 523 0
DWIDTH 13 0
BBX 12 17 1 -4
BITMAP
0F00
3180
60C0
60C0
00C0
03C0
1CC0
60C0
C0C0
C0C0
C0C0
61C0
7EF0
0000
0E00
0E00
0400
ENDCHAR
STARTCHAR uni1EA4
ENCODING 7844
SWIDTH 635 0
DWIDTH 16 0
BBX 17 28 -1 0
BITMAP
001000
003800
007000
00C000
010000
000000
008000
01E000
023000
040800
00C000
01C000
01C000
02E000
026000
026000
067000
043000
043000
0C3800
0FF800
081800
181C00
100C00
100C00
300E00
300E00
FC1F80
ENDCHAR
STARTCHAR uni1EA5
ENCODING 7845
SWIDTH 523 0
DWIDTH 13 0
BBX 12 24 1 0
BITMAP
0100
0380
0700
0C00
1000
0000
0400
1E00
3100
60C0
0000
0F00
3180
60C0
60C0
00C0
03C0
1CC0
60C0
C0C0
C0C0
C0C0
61C0
7EF0
ENDCHAR
STARTCHAR uni1EA6
ENCODING 7846
SWIDTH 635 0
DWIDTH 16 0
BBX 17 28 -1 0
BITMAP
020000
070000
038000
00C000
002000
000000
008000
01E000
023000
040800
00C000
01C000
01C000
02E000
026000
026000
067000
043000
043000
0C3800
0FF800
081800
181C00
100C00
100C00
300E00
300E00
FC1F80
ENDCHAR
STARTCHAR uni1EA7
ENCODING 7847
SWIDTH 523 0
DWIDTH 13 0
BBX 12 24 1 0
BITMAP
2000
7000
3800
0C00
0200
0000
0400
1E00
3100
60C0
0000
0F00
3180
60C0
60C0
00C0
03C0
1CC0
60C0
C0C0
C0C0
C0C0
61C0
7EF0
ENDCHAR
STARTCHAR uni1EAA
ENCODING 7850
SWIDTH 635 0
DWIDTH 16 0
BBX 17 26 -1 0
BITMAP
018400
03F800
041000
000000
008000
01E000
023000
040800
00C000
01C000
01C000
02E000
026000
026000
067000
043000
043000
0C3800
0FF800
081800
181C00
100C00
100C00
300E00
300E00
FC1F80
ENDCHAR
STARTCHAR uni1EAB
ENCODING 7851
SWIDTH 523 0
DWIDTH 13 0
BBX 12 22 1 0
BITMAP
0C20
1FC0
2080
0000
0400
1E00
3100
60C0
0000
0F00
3180
60C0
60C0
00C0
03C0
1CC0
60C0
C0C0
C0C0
C0C0
61C0
7EF0
ENDCHAR
STARTCHAR uni1EAC
ENCODING 7852
SWIDTH 635 0
DWIDTH 16 0
BBX 17 27 -1 -4
BITMAP
00C000
01E000
033000
040800
000000
00C000
01C000
01C000
02E000
026000
026000
067000
043000
043000
0C3800
0FF800
081800
181C00
100C00
100C00
300E00
300E00
FC1F80
000000
01C000
01C000
008000
ENDCHAR
STARTCHAR uni1EAD
ENCODING 7853
SWIDTH 523 0
DWIDTH 13 0
BBX 12 22 1 -4
BITMAP
0600
0F00
1980
2040
0000
0F00
3180
60C0
60C0
00C0
03C0
1CC0
60C0
C0C0
C0C0
C0C0
61C0
7EF0
0000
0E00
0E00
0400
ENDCHAR
STARTCHAR uni1EAE
ENCODING 7854
SWIDTH 635 0
DWIDTH 16 0
BBX 17 29 -1 0
BITMAP
001000
003800
007000
00C000
010000
000000
040800
061800
03F000
01E000
000000
00C000
01C000
01C000
02E000
026000
026000
067000
043000
043000
0C3800
0FF800
081800
181C00
100C00
100C00
300E00
300E00
FC1F80
ENDCHAR
STARTCHAR uni1EAF
ENCODING 7855
SWIDTH 523 0
DWIDTH 13 0
BBX 12 24 1 0
BITMAP
0080
01C0
0380
0600
0800
0000
2040
30C0
1F80
0F00
0000
0F00
3180
60C0
60C0
00C0
03C0
1CC0
60C0
C0C0
C0C0
C0C0
61C0
7EF0
ENDCHAR
STARTCHAR uni1EB0
ENCODING 7856
SWIDTH 635 0
DWIDTH 16 0
BBX 17 29 -1 0
BITMAP
020000
070000
038000
00C000
002000
000000
040800
061800
03F000
01E000
000000
00C000
01C000
01C000
02E000
026000
026000
067000
043000
043000
0C3800
0FF800
081800
181C00
100C00
100C00
300E00
300E00
FC1F80
ENDCHAR
STARTCHAR uni1EB1
ENCODING 7857
SWIDTH 523 0
DWIDTH 13 0
BBX 12 24 1 0
BITMAP
1000
3800
1C00
0600
0100
0000
2040
30C0
1F80
0F00
0000
0F00
3180
60C0
60C0
00C0
03C0
1CC0
60C0
C0C0
C0C0
C0C0
61C0
7EF0
ENDCHAR
STARTCHAR uni1EB4
ENCODING 7860
SWIDTH 635 0
DWIDTH 16 0
BBX 17 27 -1 0
BITMAP
018400
03F800
041000
000000
040800
061800
03F000
01E000
000000
00C000
01C000
01C000
02E000
026000
026000
067000
043000
043000
0C3800
0FF800
081800
181C00
100C00
100C00
300E00
300E00
FC1F80
ENDCHAR
STARTCHAR uni1EB5
ENCODING 7861
SWIDTH 523 0
DWIDTH 13 0
BBX 12 22 1 0
BITMAP
0C20
1FC0
2080
0000
2040
30C0
1F80
0F00
0000
0F00
3180
60C0
60C0
00C0
03C0
1CC0
60C0
C0C0
C0C0
C0C0
61C0
7EF0
ENDCHAR
STARTCHAR uni1EB6
ENCODING 7862
SWIDTH 635 0
DWIDTH 16 0
BBX 17 27 -1 -4
BITMAP
040800
061800
03F000
01E000
000000
00C000
01C000
01C000
02E000
026000
026000
067000
043000
043000
0C3800
0FF800
081800
181C00
100C00
100C00
300E00
300E00
FC1F80
000000
01C000
01C000
008000
ENDCHAR
STARTCHAR uni1EB7
ENCODING 7863
SWIDTH 523 0
DWIDTH 13 0
BBX 12 22 1 -4
BITMAP
2040
30C0
1F80
0F00
0000
0F00
3180
60C0
60C0
00C0
03C0
1CC0
60C0
C0C0
C0C0
C0C0
61C0
7EF0
0000
0E00
0E00
0400
ENDCHAR
STARTCHAR uni1EB8
ENCODING 7864
SWIDTH 606 0
DWIDTH 15 0
BBX 13 22 1 -4
BITMAP
FFF8
3018
3008
3008
3000
3000
3000
3020
3060
3FE0
3020
3020
3000
3000
3008
3008
3018
FFF8
0000
0700
0700
0200
ENDCHAR
STARTCHAR uni1EB9
ENCODING 7865
SWIDTH 514 0
DWIDTH 13 0
BBX 10 17 2 -4
BITMAP
1E00
2180
6080
40C0
C0C0
FFC0
C000
C000
C000
C040
6040
7080
1F00
0000
1C00
1C00
0800
ENDCHAR
STARTCHAR uni1EBC
ENCODING 7868
SWIDTH 606 0
DWIDTH 15 0
BBX 13 22 1 0
BITMAP
0610
0FE0
1040
0000
FFF8
3018
3008
3008
3000
3000
3000
3020
3060
3FE0
3020
3020
3000
3000
3008
3008
3018
FFF8
ENDCHAR
STARTCHAR uni1EBD
ENCODING 7869
SWIDTH 514 0
DWIDTH 13 0
BBX 10 17 2 0
BITMAP
1840
3F80
4100
0000
1E00
2180
6080
40C0
C0C0
FFC0
C000
C000
C000
C040
6040
7080
1F00
ENDCHAR
STARTCHAR uni1EBE
ENCODING 7870
SWIDTH 606 0
DWIDTH 15 0
BBX 13 28 1 0
BITMAP
0040
00E0
01C0
0300
0400
0000
0300
0780
0CC0
1020
FFF8
3018
3008
3008
3000
3000
3000
3020
3060
3FE0
3020
3020
3000
3000
3008
3008
3018
FFF8
ENDCHAR
STARTCHAR uni1EBF
ENCODING 7871
SWIDTH 514 0
DWIDTH 13 0
BBX 10 24 2 0
BITMAP
0100
0380
0700
0C00
1000
0000
0C00
1E00
3300
6080
0000
1E00
2180
6080
40C0
C0C0
FFC0
C000
C000
C000
C040
6040
7080
1F00
ENDCHAR
STARTCHAR uni1EC0
ENCODING 7872
SWIDTH 606 0
DWIDTH 15 0
BBX 13 28 1 0
BITMAP
0800
1C00
0E00
0300
0080
0000
0300
0780
0CC0
1020
FFF8
3018
3008
3008
3000
3000
3000
3020
3060
3FE0
3020
3020
3000
3000
3008
3008
3018
FFF8
ENDCHAR
STARTCHAR uni1EC1
ENCODING 7873
SWIDTH 514 0
DWIDTH 13 0
BBX 10 24 2 0
BITMAP
2000
7000
3800
0C00
0200
0000
0C00
1E00
3300
6080
0000
1E00
2180
6080
40C0
C0C0
FFC0
C000
C000
C000
C040
6040
7080
1F00
ENDCHAR
STARTCHAR uni1EC4
ENCODING 7876
SWIDTH 606 0
DWIDTH 15 0
BBX 13 26 1 0
BITMAP
0610
0FE0
1040
0000
0300
0780
0CC0
1020
FFF8
3018
3008
3008
3000
3000
3000
3020
3060
3FE0
3020
3020
3000
3000
3008
3008
3018
FFF8
ENDCHAR
STARTCHAR uni1EC5
ENCODING 7877
SWIDTH 514 0
DWIDTH 13 0
BBX 10 22 2 0
BITMAP
1840
3F80
4100
0000
0C00
1E00
3300
6080
0000
1E00
2180
6080
40C0
C0C0
FFC0
C000
C000
C000
C040
6040
7080
1F00
ENDCHAR
STARTCHAR uni1EC6
ENCODING 7878
SWIDTH 606 0
DWIDTH 15 0
BBX 13 27 1 -4
BITMAP
0600
0F00
1980
2040
0000
FFF8
3018
3008
3008
3000
3000
3000
3020
3060
3FE0
3020
3020
3000
3000
3008
3008
3018
FFF8
0000
0700
0700
0200
ENDCHAR
STARTCHAR uni1EC7
ENCODING 7879
SWIDTH 514 0
DWIDTH 13 0
BBX 10 22 2 -4
BITMAP
0C00
1E00
3300
4080
0000
1E00
2180
6080
40C0
C0C0
FFC0
C000
C000
C000
C040
6040
7080
1F00
0000
1C00
1C00
0800
ENDCHAR
STARTCHAR uni1ECA
ENCODING 7882
SWIDTH 349 0
DWIDTH 9 0
BBX 6 22 1 -4
BITMAP
FC
30
30
30
30
30
30
30
30
30
30
30
30
30
30
30
30
FC
00
38
38
10
ENDCHAR
STARTCHAR uni1ECB
ENCODING 7883
SWIDTH 291 0
DWIDTH 7 0
BBX 6 22 1 -4
BITMAP
30
30
30
00
00
30
F0
30
30
30
30
30
30
30
30
30
30
FC
00
38
38
10
ENDCHAR
STARTCHAR uni1ECC
ENCODING 7884
SWIDTH 762 0
DWIDTH 19 0
BBX 17 22 1 -4
BITMAP
03E000
0C1800
380E00
300600
700700
600300
E00380
E00380
E00380
E00380
E00380
E00380
600300
700700
300600
380E00
0C1800
03E000
000000
01C000
01C000
008000
ENDCHAR
STARTCHAR uni1ECD
ENCODING 7885
SWIDTH 577 0
DWIDTH 14 0
BBX 11 17 2 -4
BITMAP
1F00
3180
60C0
C060
C060
C060
C060
C060
C060
C060
60C0
3180
1F00
0000
0E00
0E00
0400
ENDCHAR
STARTCHAR uni1ED0
ENCODING 7888
SWIDTH 762 0
DWIDTH 19 0
BBX 17 28 1 0
BITMAP
001000
003800
007000
00C000
010000
000000
008000
01C000
063000
041000
03E000
0C1800
380E00
300600
700700
600300
E00380
E00380
E00380
E00380
E00380
E00380
600300
700700
300600
380E00
0C1800
03E000
ENDCHAR
STARTCHAR uni1ED1
ENCODING 7889
SWIDTH 577 0
DWIDTH 14 0
BBX 11 24 2 0
BITMAP
0080
01C0
0380
0600
0800
0000
0400
0E00
1100
2080
0000
1F00
3180
60C0
C060
C060
C060
C060
C060
C060
C060
60C0
3180
1F00
ENDCHAR
STARTCHAR uni1ED2
ENCODING 7890
SWIDTH 762 0
DWIDTH 19 0
BBX 17 28 1 0
BITMAP
020000
070000
038000
00C000
002000
000000
008000
01C000
063000
041000
03E000
0C1800
380E00
300600
700700
600300
E00380
E00380
E00380
E00380
E00380
E00380
600300
700700
300600
380E00
0C1800
03E000
ENDCHAR
STARTCHAR uni1ED3
ENCODING 7891
SWIDTH 577 0
DWIDTH 14 0
BBX 11 24 2 0
BITMAP
1000
3800
1C00
0600
0100
0000
0400
0E00
1100
2080
0000
1F00
3180
60C0
C060
C060
C060
C060
C060
C060
C060
60C0
3180
1F00
ENDCHAR
STARTCHAR uni1ED6
ENCODING 7894
SWIDTH 762 0
DWIDTH 19 0
BBX 17 26 1 0
BITMAP
018400
03F800
041000
000000
008000
01C000
063000
041000
03E000
0C1800
380E00
300600
700700
600300
E00380
E00380
E00380
E00380
E00380
E00380
600300
700700
300600
380E00
0C1800
03E000
ENDCHAR
STARTCHAR uni1ED7
ENCODING 7895
SWIDTH 577 0
DWIDTH 14 0
BBX 11 22 2 0
BITMAP
0C20
1FC0
2080
0000
0400
0E00
1100
2080
0000
1F00
3180
60C0
C060
C060
C060
C060
C060
C060
C060
60C0
3180
1F00
ENDCHAR
STARTCHAR uni1ED8
ENCODING 7896
SWIDTH 762 0
DWIDTH 19 0
BBX 17 27 1 -4
BITMAP
00C000
01E000
033000
040800
000000
03E000
0C1800
380E00
300600
700700
600300
E00380
E00380
E00380
E00380
E00380
E00380
600300
700700
300600
380E00
0C1800
03E000
000000
01C000
01C000
008000
ENDCHAR
STARTCHAR uni1ED9
ENCODING 7897
SWIDTH 577 0
DWIDTH 14 0
BBX 11 22 2 -4
BITMAP
0600
0F00
1980
2040
0000
1F00
3180
60C0
C060
C060
C060
C060
C060
C060
C060
60C0
3180
1F00
0000
0E00
0E00
0400
ENDCHAR
STARTCHAR uni1EDA
ENCODING 7898
SWIDTH 762 0
DWIDTH 19 0
BBX 18 24 1 0
BITMAP
000800
001C00
003800
006000
008000
000000
03E080
0C18C0
380EC0
3006C0
700780
600380
E00380
E00380
E00380
E00380
E00380
E00380
600300
700700
300600
380E00
0C1800
03E000
ENDCHAR
STARTCHAR uni1EDB
ENCODING 7899
SWIDTH 577 0
DWIDTH 14 0
BBX 13 19 2 0
BITMAP
0040
00E0
01C0
0300
0400
0000
1F10
3198
60D8
C078
C070
C070
C060
C060
C060
C060
60C0
3180
1F00
ENDCHAR
STARTCHAR uni1EDC
ENCODING 7900
SWIDTH 762 0
DWIDTH 19 0
BBX 18 24 1 0
BITMAP
010000
038000
01C000
006000
001000
000000
03E080
0C18C0
380EC0
3006C0
700780
600380
E00380
E00380
E00380
E00380
E00380
E00380
600300
700700
300600
380E00
0C1800
03E000
ENDCHAR
STARTCHAR uni1EDD
ENCODING 7901
SWIDTH 577 0
DWIDTH 14 0
BBX 13 19 2 0
BITMAP
0800
1C00
0E00
0300
0080
0000
1F10
3198
60D8
C078
C070
C070
C060
C060
C060
C060
60C0
3180
1F00
ENDCHAR
STARTCHAR uni1EE0
ENCODING 7904
SWIDTH 762 0
DWIDTH 19 0
BBX 18 22 1 0
BITMAP
00C200
01FC00
020800
000000
03E080
0C18C0
380EC0
3006C0
700780
600380
E00380
E00380
E00380
E00380
E00380
E00380
600300
700700
300600
380E00
0C1800
03E000
ENDCHAR
STARTCHAR uni1EE1
ENCODING 7905
SWIDTH 577 0
DWIDTH 14 0
BBX 13 17 2 0
BITMAP
0610
0FE0
1040
0000
1F10
3198
60D8
C078
C070
C070
C060
C060
C060
C060
60C0
3180
1F00
ENDCHAR
STARTCHAR uni1EE2
ENCODING 7906
SWIDTH 762 0
DWIDTH 19 0
BBX 18 22 1 -4
BITMAP
03E080
0C18C0
380EC0
3006C0
700780
600380
E00380
E00380
E00380
E00380
E00380
E00380
600300
700700
300600
380E00
0C1800
03E000
000000
01C000
01C000
008000
ENDCHAR
STARTCHAR uni1EE3
ENCODING 7907
SWIDTH 577 0
DWIDTH 14 0
BBX 13 17 2 -4
BITMAP
1F10
3198
60D8
C078
C070
C070
C060
C060
C060
C060
60C0
3180
1F00
0000
0E00
0E00
0400
ENDCHAR
STARTCHAR uni1EE4
ENCODING 7908
SWIDTH 791 0
DWIDTH 20 0
BBX 18 22 1 -4
BITMAP
FE1FC0
300300
300300
300300
300300
300300
300300
300300
300300
300300
300300
300300
300300
300300
180600
180600
0E1C00
03F000
000000
00E000
00E000
004000
ENDCHAR
STARTCHAR uni1EE5
ENCODING 7909
SWIDTH 606 0
DWIDTH 15 0
BBX 14 17 1 -4
BITMAP
3030
F0F0
3030
3030
3030
3030
3030
3030
3030
3030
3030
38F0
0F3C
0000
0380
0380
0100
ENDCHAR
STARTCHAR uni1EE8
ENCODING 7912
SWIDTH 791 0
DWIDTH 20 0
BBX 19 24 1 0
BITMAP
000800
001C00
003800
006000
008000
000000
FE1FC0
300360
300360
300360
300340
300340
300380
300300
300300
300300
300300
300300
300300
300300
180600
180600
0E1C00
03F000
ENDCHAR
STARTCHAR uni1EE9
ENCODING 7913
SWIDTH 606 0
DWIDTH 15 0
BBX 16 19 1 0
BITMAP
0010
0038
0070
00C0
0100
0000
3032
F0F3
3033
3033
3032
3032
3034
3030
3030
3030
3030
38F0
0F3C
ENDCHAR
STARTCHAR uni1EEA
ENCODING 7914
SWIDTH 791 0
DWIDTH 20 0
BBX 19 24 1 0
BITMAP
010000
038000
01C000
006000
001000
000000
FE1FC0
300360
300360
300360
300340
300340
300380
300300
300300
300300
300300
300300
300300
300300
180600
180600
0E1C00
03F000
ENDCHAR
STARTCHAR uni1EEB
ENCODING 7915
SWIDTH 606 0
DWIDTH 15 0
BBX 16 19 1 0
BITMAP
0200
0700
0380
00C0
0020
0000
3032
F0F3
3033
3033
3032
3032
3034
3030
3030
3030
3030
38F0
0F3C
ENDCHAR
STARTCHAR uni1EEE
ENCODING 7918
SWIDTH 791 0
DWIDTH 20 0
BBX 19 22 1 0
BITMAP
00C200
01FC00
020800
000000
FE1FC0
300360
300360
300360
300340
300340
300380
300300
300300
300300
300300
300300
300300
300300
180600
180600
0E1C00
03F000
ENDCHAR
STARTCHAR uni1EEF
ENCODING 7919
SWIDTH 606 0
DWIDTH 15 0
BBX 16 17 1 0
BITMAP
0184
03F8
0410
0000
3032
F0F3
3033
3033
3032
3032
3034
3030
3030
3030
3030
38F0
0F3C
ENDCHAR
STARTCHAR uni1EF0
ENCODING 7920
SWIDTH 791 0
DWIDTH 20 0
BBX 19 22 1 -4
BITMAP
FE1FC0
300360
300360
300360
300340
300340
300380
300300
300300
300300
300300
300300
300300
300300
180600
180600
0E1C00
03F000
000000
00E000
00E000
004000
ENDCHAR
STARTCHAR uni1EF1
ENCODING 7921
SWIDTH 606 0
DWIDTH 15 0
BBX 16 17 1 -4
BITMAP
3032
F0F3
3033
3033
3032
3032
3034
3030
3030
3030
3030
38F0
0F3C
0000
0380
0380
0100
ENDCHAR
STARTCHAR Ygrave
ENCODING 7922
SWIDTH 588 0
DWIDTH 15 0
BBX 16 24 0 0
BITMAP
0400
0E00
0700
0180
0040
0000
FE3F
380C
1808
1C18
0C10
0E30
0620
0760
0340
0340
0180
0180
0180
0180
0180
0180
0180
0FF0
ENDCHAR
STARTCHAR ygrave
ENCODING 7923
SWIDTH 506 0
DWIDTH 13 0
BBX 13 25 0 -6
BITMAP
1000
3800
1C00
0600
0100
0000
F8F8
7030
3020
3860
1840
1840
1CC0
0C80
0C80
0700
0700
0700
0200
0200
0200
0400
0400
3800
7000
ENDCHAR
STARTCHAR uni1EF4
ENCODING 7924
SWIDTH 588 0
DWIDTH 15 0
BBX 16 22 0 -4
BITMAP
FE3F
380C
1808
1C18
0C10
0E30
0620
0760
0340
0340
0180
0180
0180
0180
0180
0180
0180
0FF0
0000
01C0
01C0
0080
ENDCHAR
STARTCHAR uni1EF5
ENCODING 7925
SWIDTH 506 0
DWIDTH 13 0
BBX 13 23 0 -10
BITMAP
F8F8
7030
3020
3860
1840
1840
1CC0
0C80
0C80
0700
0700
0700
0200
0200
0200
0400
0400
3800
7000
0000
1C00
1C00
0800
ENDCHAR
STARTCHAR uni1EF8
ENCODING 7928
SWIDTH 588 0
DWIDTH 15 0
BBX 16 22 0 0
BITMAP
0308
07F0
0820
0000
FE3F
380C
1808
1C18
0C10
0E30
0620
0760
0340
0340
0180
0180
0180
0180
0180
0180
0180
0FF0
ENDCHAR
STARTCHAR uni1EF9
ENCODING 7929
SWIDTH 506 0
DWIDTH 13 0
BBX 13 23 0 -6
BITMAP
0C20
1FC0
2080
0000
F8F8
7030
3020
3860
1840
1840
1CC0
0C80
0C80
0700
0700
0700
0200
0200
0200
0400
0400
3800
7000
ENDCHAR
STARTCHAR uni2000
ENCODING 8192
SWIDTH 500 0
DWIDTH 13 0
BBX 1 1 0 0
BITMAP
00
ENDCHAR
STARTCHAR uni2001
ENCODING 8193
SWIDTH 1000 0
DWIDTH 25 0
BBX 1 1 0 0
BITMAP
00
ENDCHAR
STARTCHAR uni2002
ENCODING 8194
SWIDTH 500 0
DWIDTH 13 0
BBX 1 1 0 0
BITMAP
00
ENDCHAR
STARTCHAR uni2003
ENCODING 8195
SWIDTH 1000 0
DWIDTH 25 0
BBX 1 1 0 0
BITMAP
00
ENDCHAR
STARTCHAR uni2004
ENCODING 8196
SWIDTH 333 0
DWIDTH 8 0
BBX 1 1 0 0
BITMAP
00
ENDCHAR
STARTCHAR uni2005
ENCODING 8197
SWIDTH 250 0
DWIDTH 6 0
BBX 1 1 0 0
BITMAP
00
ENDCHAR
STARTCHAR uni2006
ENCODING 8198
SWIDTH 167 0
DWIDTH 4 0
BBX 1 1 0 0
BITMAP
00
ENDCHAR
STARTCHAR uni2007
ENCODING 8199
SWIDTH 530 0
DWIDTH 13 0
BBX 1 1 0 0
BITMAP
00
ENDCHAR
STARTCHAR uni2008
ENCODING 8200
SWIDTH 265 0
DWIDTH 7 0
BBX 1 1 0 0
BITMAP
00
ENDCHAR
STARTCHAR uni2009
ENCODING 8201
SWIDTH 200 0
DWIDTH 5 0
BBX 1 1 0 0
BITMAP
00
ENDCHAR
STARTCHAR uni200A
ENCODING 8202
SWIDTH 100 0
DWIDTH 3 0
BBX 1 1 0 0
BITMAP
00
ENDCHAR
STARTCHAR uni200B
ENCODING 8203
SWIDTH 0 0
DWIDTH 0 0
BBX 1 1 0 0
BITMAP
00
ENDCHAR
STARTCHAR uni2010
ENCODING 8208
SWIDTH 392 0
DWIDTH 10 0
BBX 6 2 2 5
BITMAP
FC
FC
ENDCHAR
STARTCHAR uni2011
ENCODING 8209
SWIDTH 392 0
DWIDTH 10 0
BBX 6 2 2 5
BITMAP
FC
FC
ENDCHAR
STARTCHAR figuredash
ENCODING 8210
SWIDTH 500 0
DWIDTH 12 0
BBX 12 1 0 6
BITMAP
FFF0
ENDCHAR
STARTCHAR endash
ENCODING 8211
SWIDTH 500 0
DWIDTH 12 0
BBX 12 1 0 6
BITMAP
FFF0
ENDCHAR
STARTCHAR emdash
ENCODING 8212
SWIDTH 1000 0
DWIDTH 25 0
BBX 25 1 0 6
BITMAP
FFFFFF80
ENDCHAR
STARTCHAR afii00208
ENCODING 8213
SWIDTH 1000 0
DWIDTH 25 0
BBX 25 1 0 6
BITMAP
FFFFFF80
ENDCHAR
STARTCHAR quoteleft
ENCODING 8216
SWIDTH 278 0
DWIDTH 7 0
BBX 3 7 2 12
BITMAP
20
40
40
C0
C0
C0
40
ENDCHAR
STARTCHAR quoteright
ENCODING 8217
SWIDTH 278 0
DWIDTH 7 0
BBX 3 7 2 12
BITMAP
40
60
60
60
40
40
80
ENDCHAR
STARTCHAR quotesinglbase
ENCODING 8218
SWIDTH 278 0
DWIDTH 7 0
BBX 3 7 2 -3
BITMAP
40
60
60
60
40
40
80
ENDCHAR
STARTCHAR quotereversed
ENCODING 8219
SWIDTH 278 0
DWIDTH 7 0
BBX 3 7 2 12
BITMAP
40
C0
C0
C0
40
40
20
ENDCHAR
STARTCHAR quotedblleft
ENCODING 8220
SWIDTH 458 0
DWIDTH 11 0
BBX 8 7 2 12
BITMAP
11
22
46
46
C6
E6
66
ENDCHAR
STARTCHAR quotedblright
ENCODING 8221
SWIDTH 458 0
DWIDTH 11 0
BBX 8 7 2 12
BITMAP
66
67
63
62
62
44
88
ENDCHAR
STARTCHAR quotedblbase
ENCODING 8222
SWIDTH 458 0
DWIDTH 11 0
BBX 8 7 2 -3
BITMAP
66
67
63
62
62
44
88
ENDCHAR
STARTCHAR uni201F
ENCODING 8223
SWIDTH 458 0
DWIDTH 11 0
BBX 8 7 2 12
BITMAP
66
E6
C6
46
46
22
11
ENDCHAR
STARTCHAR dagger
ENCODING 8224
SWIDTH 504 0
DWIDTH 13 0
BBX 10 21 1 -3
BITMAP
0C00
0C00
0C00
0C00
0C00
F4C0
FFC0
0400
0C00
0C00
0C00
0C00
0C00
0C00
0C00
0C00
0C00
0800
0800
0800
0800
ENDCHAR
STARTCHAR daggerdbl
ENCODING 8225
SWIDTH 488 0
DWIDTH 12 0
BBX 10 22 1 -3
BITMAP
0800
0C00
0C00
0C00
0C00
0C00
FFC0
CBC0
0C00
0C00
0C00
0C00
0C00
0C00
F4C0
FFC0
0C00
0C00
0C00
0C00
0C00
0C00
ENDCHAR
STARTCHAR bullet
ENCODING 8226
SWIDTH 409 0
DWIDTH 10 0
BBX 8 8 1 5
BITMAP
3C
7E
FF
FF
FF
FF
7E
3C
ENDCHAR
STARTCHAR ellipsis
ENCODING 8230
SWIDTH 1000 0
DWIDTH 25 0
BBX 19 3 3 0
BITMAP
E0E0E0
E0E0E0
E0E0E0
ENDCHAR
STARTCHAR perthousand
ENCODING 8240
SWIDTH 1208 0
DWIDTH 30 0
BBX 28 19 1 -1
BITMAP
00020000
3C020000
67FC0000
C30C0000
C3080000
C3100000
C3300000
C3200000
66600000
3C4783C0
008CC660
01986C30
01186C30
02186C30
02186C30
04186C30
0C0CC660
180783C0
08000000
ENDCHAR
STARTCHAR guilsinglleft
ENCODING 8249
SWIDTH 257 0
DWIDTH 6 0
BBX 4 10 1 1
BITMAP
10
30
20
60
C0
C0
60
20
30
10
ENDCHAR
STARTCHAR guilsinglright
ENCODING 8250
SWIDTH 257 0
DWIDTH 6 0
BBX 4 10 1 1
BITMAP
80
C0
40
60
30
30
60
40
C0
80
ENDCHAR
STARTCHAR fraction
ENCODING 8260
SWIDTH 150 0
DWIDTH 4 0
BBX 12 19 -4 -1
BITMAP
0020
0030
0060
0040
00C0
0180
0100
0300
0200
0600
0400
0800
1800
1000
3000
2000
4000
C000
4000
ENDCHAR
STARTCHAR oneinferior
ENCODING 8321
SWIDTH 380 0
DWIDTH 9 0
BBX 6 10 2 -6
BITMAP
30
F0
30
30
30
30
30
30
30
FC
ENDCHAR
STARTCHAR twoinferior
ENCODING 8322
SWIDTH 380 0
DWIDTH 9 0
BBX 7 10 1 -6
BITMAP
38
64
C6
46
04
0C
10
60
C2
FE
ENDCHAR
STARTCHAR threeinferior
ENCODING 8323
SWIDTH 380 0
DWIDTH 9 0
BBX 7 10 1 -6
BITMAP
38
46
C6
04
38
04
06
C6
44
38
ENDCHAR
STARTCHAR uni20A5
ENCODING 8357
SWIDTH 923 0
DWIDTH 23 0
BBX 22 18 1 -2
BITMAP
000600
000600
000400
33EFC0
FC7C60
383830
303830
303830
303030
303030
303030
303030
303030
307030
307030
FCFCFC
00C000
00C000
ENDCHAR
STARTCHAR uni20A6
ENCODING 8358
SWIDTH 780 0
DWIDTH 19 0
BBX 18 18 1 0
BITMAP
F80FC0
3C0380
3C0100
2E0100
2F0100
278100
3FFF00
21C100
21E100
20E100
207100
3FFF00
203D00
201D00
200F00
200700
700700
FC0300
ENDCHAR
STARTCHAR uni20A9
ENCODING 8361
SWIDTH 940 0
DWIDTH 23 0
BBX 25 18 0 0
BITMAP
FC001F80
70180600
301C0600
301C0400
381C0400
182E0C00
19FFE800
18260800
1C470800
0C431800
0C431000
0FFFF000
0E819000
0681A000
0681E000
0701E000
0700E000
0300C000
ENDCHAR
STARTCHAR Euro
ENCODING 8364
SWIDTH 684 0
DWIDTH 17 0
BBX 18 18 -2 0
BITMAP
003F00
01C1C0
0300C0
060040
0E0040
0C0000
FFF000
1C0000
1C0000
1C0000
1C0000
FFF000
0C0000
0E0040
060040
0700C0
01C1C0
007F00
ENDCHAR
STARTCHAR uni20AD
ENCODING 8365
SWIDTH 658 0
DWIDTH 16 0
BBX 16 18 1 0
BITMAP
FC3F
3018
3030
3060
30C0
3180
3200
3400
FFFF
3700
3780
33C0
31E0
30F0
3070
3038
301E
FC07
ENDCHAR
STARTCHAR uni2103
ENCODING 8451
SWIDTH 1017 0
DWIDTH 26 0
BBX 24 18 1 0
BITMAP
0000FC
380707
440C03
821801
823801
823000
443000
387000
007000
007000
007000
007000
003000
003801
001801
001C03
000707
0001FC
ENDCHAR
STARTCHAR uni2109
ENCODING 8457
SWIDTH 913 0
DWIDTH 23 0
BBX 22 18 1 0
BITMAP
007FFC
38180C
441804
821804
821800
821800
441800
381810
001810
001FF0
001810
001810
001800
001800
001800
001800
001800
007F00
ENDCHAR
STARTCHAR trademark
ENCODING 8482
SWIDTH 1100 0
DWIDTH 27 0
BBX 25 11 1 7
BITMAP
FFDE0780
8C4E0700
8C4B0B00
0C0B0B00
0C090B00
0C099300
0C099300
0C08E300
0C08E300
0C084300
3F1E4780
ENDCHAR
STARTCHAR uni212A
ENCODING 8490
SWIDTH 658 0
DWIDTH 16 0
BBX 16 18 1 0
BITMAP
FC3F
3018
3030
3060
30C0
3180
3200
3400
3E00
3700
3780
33C0
31E0
30F0
3070
3038
301E
FC07
ENDCHAR
STARTCHAR uni212B
ENCODING 8491
SWIDTH 627 0
DWIDTH 16 0
BBX 17 22 -1 0
BITMAP
01C000
022000
022000
022000
01C000
01C000
01C000
02E000
02E000
026000
047000
047000
043800
0C3800
0FF800
181C00
101C00
100C00
300E00
200600
600700
FC1F80
ENDCHAR
STARTCHAR uni2132
ENCODING 8498
SWIDTH 580 0
DWIDTH 14 0
BBX 13 18 1 0
BITMAP
03F8
0060
0060
0060
0060
0060
2060
2060
3FE0
2060
2060
0060
0060
0060
8060
8060
C060
FFF8
ENDCHAR
STARTCHAR universal
ENCODING 8704
SWIDTH 635 0
DWIDTH 16 0
BBX 17 18 -1 0
BITMAP
FC1F80
300E00
300E00
100C00
100C00
181C00
081800
0FF800
0C3800
043000
043000
067000
026000
026000
02E000
01C000
01C000
00C000
ENDCHAR
STARTCHAR existential
ENCODING 8707
SWIDTH 606 0
DWIDTH 15 0
BBX 13 18 1 0
BITMAP
FFF8
C060
8060
8060
0060
0060
0060
2060
3060
3FE0
2060
2060
0060
0060
8060
8060
C060
FFF8
ENDCHAR
STARTCHAR uni2204
ENCODING 8708
SWIDTH 606 0
DWIDTH 15 0
BBX 13 18 1 0
BITMAP
FFF8
C0E0
80E0
81E0
01E0
0160
0360
2360
3260
3FE0
2660
2660
0460
0C60
8C60
8860
D860
FFF8
ENDCHAR
STARTCHAR minus
ENCODING 8722
SWIDTH 570 0
DWIDTH 14 0
BBX 12 1 1 6
BITMAP
FFF0
ENDCHAR
STARTCHAR fraction
ENCODING 8725
SWIDTH 150 0
DWIDTH 4 0
BBX 12 19 -4 -1
BITMAP
0020
0030
0060
0040
00C0
0180
0100
0300
0200
0600
0400
0800
1800
1000
3000
2000
4000
C000
4000
ENDCHAR
STARTCHAR periodcentered
ENCODING 8729
SWIDTH 265 0
DWIDTH 7 0
BBX 3 3 2 5
BITMAP
E0
E0
E0
ENDCHAR
STARTCHAR uni2236
ENCODING 8758
SWIDTH 265 0
DWIDTH 7 0
BBX 3 13 2 0
BITMAP
40
E0
E0
00
00
00
00
00
00
00
E0
E0
40
ENDCHAR
STARTCHAR uni2259
ENCODING 8793
SWIDTH 570 0
DWIDTH 14 0
BBX 12 11 1 3
BITMAP
0600
0F00
1980
2040
0000
FFF0
0000
0000
0000
0000
FFF0
ENDCHAR
STARTCHAR uni225A
ENCODING 8794
SWIDTH 570 0
DWIDTH 14 0
BBX 12 11 1 3
BITMAP
30C0
1980
0F00
0600
0000
FFF0
0000
0000
0000
0000
FFF0
ENDCHAR
STARTCHAR notequal
ENCODING 8800
SWIDTH 570 0
DWIDTH 14 0
BBX 12 18 1 -3
BITMAP
00C0
00C0
0080
0180
0180
0100
FFF0
0300
0200
0200
0600
FFF0
0400
0C00
0C00
0800
1800
1800
ENDCHAR
STARTCHAR equivalence
ENCODING 8801
SWIDTH 570 0
DWIDTH 14 0
BBX 12 5 0 4
BITMAP
FFF0
0000
FFF0
0000
FFF0
ENDCHAR
STARTCHAR uni2262
ENCODING 8802
SWIDTH 570 0
DWIDTH 14 0
BBX 12 18 0 -2
BITMAP
00C0
00C0
0080
0180
0180
0100
0300
FFF0
0200
FFF0
0600
FFF0
0400
0C00
0C00
0800
1800
1800
ENDCHAR
STARTCHAR lessequal
ENCODING 8804
SWIDTH 570 0
DWIDTH 14 0
BBX 11 15 1 -2
BITMAP
0020
00E0
03E0
0F00
3C00
F000
8000
E000
3800
0F00
03C0
00E0
0020
0000
FFE0
ENDCHAR
STARTCHAR greaterequal
ENCODING 8805
SWIDTH 570 0
DWIDTH 14 0
BBX 11 15 2 -2
BITMAP
8000
E000
F800
1E00
0780
01E0
0020
00E0
0380
1E00
7800
E000
8000
0000
FFE0
ENDCHAR
STARTCHAR uni226E
ENCODING 8814
SWIDTH 570 0
DWIDTH 14 0
BBX 11 18 1 -2
BITMAP
0180
0180
0100
0320
03E0
03E0
0F00
3E00
F400
8400
EC00
3C00
0F00
1BC0
18E0
1020
3000
3000
ENDCHAR
STARTCHAR uni226F
ENCODING 8815
SWIDTH 570 0
DWIDTH 14 0
BBX 11 18 2 -2
BITMAP
0180
0180
0100
8300
E300
FA00
1E00
0780
05E0
0420
0CE0
0F80
1E00
7800
F800
9000
3000
3000
ENDCHAR
STARTCHAR uni2270
ENCODING 8816
SWIDTH 570 0
DWIDTH 14 0
BBX 11 18 1 -3
BITMAP
0180
0180
0120
03E0
03E0
0F00
3E00
F600
8400
E400
3C00
0F00
0BC0
18E0
1820
1000
FFE0
3000
ENDCHAR
STARTCHAR uni2271
ENCODING 8817
SWIDTH 570 0
DWIDTH 14 0
BBX 11 18 2 -3
BITMAP
0180
0180
8100
E300
FB00
1E00
0780
07E0
0420
04E0
0F80
1E00
7800
F800
9800
1000
FFE0
3000
ENDCHAR
STARTCHAR fi
ENCODING -1
SWIDTH 610 0
DWIDTH 15 0
BBX 14 19 1 0
BITMAP
0780
1C60
1030
3000
3000
3000
FFF0
3030
3030
3030
3030
3030
3030
3030
3030
3030
3030
3030
FCFC
ENDCHAR
STARTCHAR fl
ENCODING -1
SWIDTH 610 0
DWIDTH 15 0
BBX 14 19 1 0
BITMAP
07D0
1870
1830
3030
3030
3030
FE30
3030
3030
3030
3030
3030
3030
3030
3030
3030
3030
3030
FEFC
ENDCHAR
ENDFONT
